<?xml version="1.0" encoding="utf-8"?>
<!-- Generator: Adobe Illustrator 24.0.0, SVG Export Plug-In . SVG Version: 6.00 Build 0)  -->
<svg version="1.1" id="Layer_1" xmlns="http://www.w3.org/2000/svg" xmlns:xlink="http://www.w3.org/1999/xlink" x="0px" y="0px"
	 viewBox="0 0 24.17 27.74" style="enable-background:new 0 0 24.17 27.74;" xml:space="preserve">
<style type="text/css">
	.st0{fill:#DBDBDB;}
</style>
<g>
	<path class="st0" d="M23.46,6.32c-0.01-0.25-0.13-0.44-0.38-0.52C23.04,5.82,23,5.82,22.96,5.82c0.02,0,0.05-0.01,0.07-0.03
		c-0.08-0.05-0.17-0.03-0.26-0.03c-1.54,0-3.08,0-4.62,0c-0.13,0-0.2-0.03-0.25-0.16c-0.34-0.83-0.66-1.66-1.04-2.47
		c-0.4-0.88-1.12-1.36-2.09-1.46c-0.05,0.03-0.1,0.02-0.15,0.02c-1.69,0-3.38,0-5.08,0c-0.05,0-0.1,0.01-0.15-0.02
		C8.51,1.75,7.79,2.19,7.4,3C6.97,3.87,6.64,4.79,6.26,5.68C6.25,5.82,6.15,5.79,6.07,5.79c-0.67,0-1.34,0-2.01,0
		C3.08,5.8,2.1,5.79,1.11,5.8c-0.24,0.08-0.37,0.26-0.38,0.5c-0.01,0.38-0.01,0.76,0,1.14c0.01,0.27,0.18,0.46,0.45,0.52
		c0.05-0.02,0.09-0.02,0.14-0.02c-0.03,0-0.05,0.01-0.08,0.03C1.68,8.03,2.12,8,2.56,8c0.18,0,0.22,0.04,0.22,0.22
		c-0.01,4.95,0,9.9,0,14.85c0,0.09-0.01,0.19,0.02,0.28c0.01-0.03,0.02-0.05,0.03-0.08c-0.01,0.09,0.01,0.17-0.02,0.26
		c0.07,1.03,0.49,1.88,1.32,2.51c0.36,0.27,0.77,0.42,1.23,0.42c0.07-0.03,0.14-0.02,0.2-0.02c4.36,0,8.72,0,13.08,0
		c0.07,0,0.14-0.02,0.2,0.02c0.37,0.01,0.72-0.09,1.03-0.29c0.97-0.64,1.44-1.57,1.53-2.71c-0.03-0.05-0.02-0.11-0.03-0.16
		c0-0.02,0-0.04,0-0.06c0.01,0.03,0.02,0.06,0.04,0.09c0.04-0.1,0.02-0.2,0.02-0.3c0-4.89,0-9.78,0-14.67c0-0.11,0-0.23,0.01-0.34
		c0.04-0.03,0.08-0.03,0.13-0.03c0.48,0,0.97,0,1.45,0c0.28-0.06,0.45-0.26,0.45-0.54C23.47,7.06,23.47,6.69,23.46,6.32z M2.84,8.33
		c0,0.02,0,0.05,0,0.07c0-0.06,0-0.11,0-0.17C2.84,8.27,2.84,8.3,2.84,8.33z M2.84,23.06c0,0.04,0,0.09-0.01,0.13c0,0,0,0,0,0
		C2.84,23.15,2.84,23.1,2.84,23.06z M2.68,7.96c-0.12,0-0.24,0-0.36,0h0c-0.26,0-0.54,0-0.81,0c-0.02,0-0.03,0-0.05,0
		c0.28,0,0.55,0,0.83,0h0C2.42,7.95,2.55,7.95,2.68,7.96c0.02,0,0.04-0.02,0.03-0.02C2.7,7.91,2.74,7.95,2.68,7.96z M18.06,5.83
		c0.03-0.02,0.06-0.02,0.08-0.02C18.12,5.81,18.09,5.82,18.06,5.83c0,0.01-0.01,0.01-0.02,0.02C18.05,5.84,18.05,5.83,18.06,5.83z
		 M18.22,5.81c1.53,0,3.07,0,4.6,0c0.01,0,0.02,0,0.04,0c-1.54,0-3.08,0-4.62,0C18.23,5.82,18.23,5.82,18.22,5.81z M9.01,4.9
		c0.11-0.25,0.22-0.5,0.32-0.76c0.04-0.1,0.1-0.19,0.2-0.24c0.07,0,0.15-0.01,0.22-0.01c1.64,0,3.27,0,4.91,0
		c0.11,0.06,0.19,0.15,0.23,0.28c0.21,0.53,0.43,1.05,0.65,1.59H8.66C8.78,5.46,8.89,5.18,9.01,4.9z M18.76,24.22
		c-0.05,0-0.1,0-0.15,0c-4.26,0-8.52,0-12.79,0c-0.07,0-0.14,0.01-0.21,0.01c-0.01,0-0.02,0-0.04,0c-0.05,0-0.09,0-0.14,0
		c-0.23-0.24-0.36-0.52-0.39-0.85c0-0.06,0-0.11,0-0.17V8.34c0-0.26,0-0.26,0.27-0.26h13.55c0.26,0,0.26,0,0.26,0.26
		c0,4.91,0,9.81,0,14.72c0,0.11,0,0.21,0,0.32C19.11,23.71,18.98,23.98,18.76,24.22z M21.36,23.07V23c0-1.61,0-3.21,0-4.82
		c0-1.5,0-3,0-4.5c0,3.11,0,6.22,0,9.34C21.36,23.04,21.36,23.05,21.36,23.07z M21.36,8.98v0.01c0,0.03,0,0.06,0,0.1V8.46
		c0-0.01,0-0.02,0-0.02v0c0,0,0,0,0-0.01C21.36,8.61,21.36,8.79,21.36,8.98z M15.53,21.3c0.45,0.05,0.9,0.05,1.35,0
		c0.24-0.06,0.37-0.21,0.41-0.45c0.01-0.07,0.02-0.15,0.02-0.22c0-3.02,0-6.04,0-9.06c0-0.06-0.01-0.12-0.01-0.19
		c-0.04-0.29-0.2-0.45-0.49-0.49c-0.41-0.03-0.83-0.03-1.24,0c-0.32,0.05-0.49,0.27-0.49,0.6c0,0.06-0.01,0.11-0.01,0.17
		c0,2.96,0,5.92,0,8.88c0,0.06,0,0.12,0.01,0.19C15.09,21.05,15.25,21.24,15.53,21.3z M11.44,21.31c0.45,0.04,0.9,0.05,1.35-0.01
		c0.27-0.08,0.4-0.25,0.41-0.52c0-0.06,0.01-0.11,0.01-0.17c0-3.01,0-6.02,0-9.03c0-0.05-0.01-0.1-0.01-0.15
		c-0.02-0.3-0.19-0.48-0.49-0.52c-0.41-0.03-0.83-0.03-1.24,0c-0.29,0.04-0.46,0.22-0.49,0.52c0,0.05-0.01,0.1-0.01,0.15
		c0,3.02,0,6.04,0,9.05c0,0.05,0.01,0.1,0.01,0.15C11.01,21.07,11.16,21.25,11.44,21.31z M6.9,20.85c0.04,0.24,0.17,0.39,0.41,0.45
		c0.45,0.05,0.9,0.05,1.35,0c0.03-0.01,0.06,0,0.09-0.02c0.29-0.12,0.39-0.34,0.36-0.77c0-0.04,0.01-0.09,0.01-0.13
		c0-2.93,0-5.86,0-8.79c0-0.04-0.01-0.09-0.01-0.13c-0.01-0.3-0.15-0.48-0.45-0.56c-0.42-0.04-0.85-0.03-1.28-0.01
		c-0.3,0.06-0.45,0.21-0.49,0.49c-0.01,0.07-0.02,0.14-0.02,0.2c0,3.01,0,6.02,0,9.04C6.88,20.71,6.89,20.78,6.9,20.85z"/>
	<path class="st0" d="M2.84,23.22c-0.02,0.1,0.03,0.21-0.04,0.3c0-0.06-0.01-0.12-0.01-0.18c0-0.08,0.01-0.16,0.01-0.24
		c0-4.95,0-9.89,0-14.84c0-0.07,0-0.14,0-0.23C2.86,8.1,2.83,8.15,2.84,8.2c0.03,0.07,0.02,0.14,0.02,0.2c0,4.87,0,9.74,0,14.62
		C2.86,23.09,2.87,23.16,2.84,23.22z"/>
	<path class="st0" d="M21.39,23.45c-0.04-0.03-0.03-0.07-0.04-0.11c-0.03-0.07-0.02-0.15-0.02-0.22c0-4.9,0-9.81,0-14.71
		c0-0.1-0.03-0.21,0.02-0.31c0.07,0.05,0.03,0.12,0.03,0.17c0,4.94,0,9.88,0,14.83c0,0.07,0.01,0.15,0.01,0.22
		C21.4,23.36,21.39,23.4,21.39,23.45z"/>
	<path class="st0" d="M5.36,26.45c0.06-0.06,0.13-0.03,0.2-0.03c4.36,0,8.73,0,13.09,0c0.07,0,0.14-0.02,0.2,0.03
		c-0.06,0-0.11,0.01-0.17,0.01c-4.39,0-8.78,0-13.16,0C5.46,26.46,5.41,26.45,5.36,26.45z"/>
	<path class="st0" d="M6.26,5.68C6.33,5.77,6.28,5.81,6.2,5.83c-0.05,0.01-0.1,0-0.15,0c-1.58,0-3.16,0-4.74,0
		c-0.07,0-0.14,0.02-0.2-0.03c0.1-0.06,0.21-0.04,0.31-0.04c1.54,0,3.09,0,4.63,0C6.13,5.76,6.22,5.78,6.26,5.68z"/>
	<path class="st0" d="M14.78,1.67c-0.06,0.06-0.13,0.03-0.2,0.03c-1.66,0-3.32,0-4.98,0c-0.07,0-0.14,0.02-0.2-0.03
		c0.06,0,0.12-0.01,0.19-0.01c1.66,0,3.32,0,4.98,0C14.65,1.66,14.71,1.66,14.78,1.67z"/>
	<path class="st0" d="M23.08,5.8c-0.04,0.04-0.09,0.03-0.14,0.03c-1.62,0-3.24,0-4.86,0c-0.02,0-0.04,0-0.06-0.04
		c0.06,0,0.12,0,0.18,0c1.53,0,3.05,0,4.58,0c0.08,0,0.16,0,0.24-0.01C23.04,5.79,23.06,5.8,23.08,5.8z"/>
	<path class="st0" d="M21.43,8c-0.01-0.03-0.02-0.06,0.03-0.06c0.5,0,1,0,1.5,0.01c0.02,0,0.03,0.02,0.05,0.03
		C22.79,8.03,22.56,7.99,22.34,8C22.04,8,21.73,8,21.43,8z"/>
	<path class="st0" d="M1.19,7.97C1.2,7.96,1.22,7.94,1.23,7.94c0.51,0,1.02,0,1.53,0.04c-0.5,0-1.01,0-1.51,0
		C1.23,7.98,1.21,7.97,1.19,7.97z"/>
	<path class="st0" d="M5.45,24.23c0.05,0,0.09,0,0.14,0C5.54,24.26,5.49,24.27,5.45,24.23z"/>
	<path class="st0" d="M9.12,20.39c0,0.04,0,0.09-0.01,0.13c0.03,0.43-0.07,0.65-0.36,0.77c-0.03,0.01-0.06,0.01-0.09,0.02
		c-0.45,0.04-0.9,0.05-1.35,0c-0.23-0.06-0.37-0.21-0.41-0.45c-0.01-0.07-0.02-0.15-0.02-0.22c0-3.01,0-6.02,0-9.04
		c0-0.07,0.01-0.14,0.02-0.2c0.04-0.28,0.19-0.43,0.49-0.49c0.43-0.02,0.85-0.03,1.28,0.01c0.29,0.08,0.44,0.26,0.45,0.56
		c0,0.04,0.01,0.09,0.01,0.13C9.12,14.53,9.12,17.46,9.12,20.39z"/>
	<path class="st0" d="M10.99,20.78c0-0.05-0.01-0.1-0.01-0.15c0-3.02,0-6.04,0-9.05c0-0.05,0.01-0.1,0.01-0.15
		c0.02-0.3,0.19-0.48,0.49-0.52c0.41-0.03,0.83-0.03,1.24,0c0.29,0.04,0.47,0.23,0.49,0.52c0,0.05,0.01,0.1,0.01,0.15
		c0,3.01,0,6.02,0,9.03c0,0.06-0.01,0.11-0.01,0.17c-0.02,0.27-0.15,0.44-0.41,0.52c-0.45,0.06-0.9,0.05-1.35,0.01
		C11.16,21.25,11.01,21.07,10.99,20.78z"/>
	<path class="st0" d="M15.09,20.74c0-0.06-0.01-0.12-0.01-0.19c0-2.96,0-5.92,0-8.88c0-0.06,0-0.11,0.01-0.17
		c-0.01-0.33,0.17-0.55,0.49-0.6c0.41-0.03,0.83-0.03,1.24,0c0.28,0.04,0.45,0.2,0.49,0.49c0.01,0.06,0.01,0.12,0.01,0.19
		c0,3.02,0,6.04,0,9.06c0,0.07-0.01,0.15-0.02,0.22c-0.04,0.24-0.17,0.39-0.41,0.45c-0.45,0.05-0.9,0.05-1.35,0
		C15.25,21.24,15.09,21.05,15.09,20.74z"/>
	<path class="st0" d="M18.61,24.22c0.05,0,0.1,0,0.15,0c-0.05,0.07-0.11,0.03-0.17,0.03c-4.26,0-8.52,0-12.79,0
		c-0.06,0-0.13,0.02-0.18-0.02c0.07,0,0.14-0.01,0.21-0.01C10.09,24.22,14.35,24.22,18.61,24.22z"/>
	<path class="st0" d="M19.15,23.37c0,0,0,0.01,0,0.01c0-0.11,0-0.21,0-0.32c0-4.91,0-9.81,0-14.72c0-0.26,0-0.26-0.26-0.26H5.32
		c-0.27,0-0.27,0-0.27,0.26v14.87c0,0.06,0,0.11,0,0.17c-0.05-0.1-0.01-0.21-0.01-0.31c0-4.92,0-9.84,0-14.76
		c0-0.18,0-0.24,0.07-0.26c0.04-0.01,0.11-0.01,0.21-0.01c4.52,0,9.04,0,13.55,0c0.05,0,0.1,0,0.15,0c0.02,0,0.04,0.01,0.06,0.01
		c0.05,0.02,0.08,0.06,0.08,0.13c0,0.04,0,0.09,0,0.13c0,4.96,0,9.91,0,14.87C19.16,23.24,19.17,23.31,19.15,23.37z"/>
	<path class="st0" d="M14.66,3.89c-1.64,0-3.27,0-4.91,0C9.67,3.89,9.6,3.9,9.53,3.9C9.57,3.85,9.64,3.86,9.7,3.86
		c1.61,0,3.21,0,4.81,0C14.56,3.86,14.62,3.84,14.66,3.89z"/>
	<path class="st0" d="M19.15,23.37c0,0,0,0.01,0,0.01c0-0.11,0-0.21,0-0.32c0-4.91,0-9.81,0-14.72c0-0.26,0-0.26-0.26-0.26H5.32
		c-0.27,0-0.27,0-0.27,0.26v14.87c0,0.06,0,0.11,0,0.17c-0.01-0.01-0.02-0.01-0.03-0.02C4.99,23.33,5,23.3,5.01,23.26
		c0-0.12,0-0.24,0-0.36V8.19c0-0.06,0-0.11,0-0.17C5.04,8.01,5.05,8,5.07,8c0.01,0,0.02,0,0.02,0c4.67,0,9.34,0,14.01,0
		c0.01,0,0.02,0,0.03,0c0.02,0,0.03,0.01,0.04,0.02c0,0.11,0,0.23,0,0.34c0,4.88,0,9.76,0,14.64C19.18,23.12,19.2,23.25,19.15,23.37
		z"/>
	<path class="st0" d="M21.36,8.09c0,5.08,0,10.17,0,15.25c-0.07-0.07-0.04-0.15-0.04-0.23c0-4.89,0-9.79,0-14.68
		C21.32,8.31,21.24,8.19,21.36,8.09z"/>
	<path class="st0" d="M19.25,8.06c0,5.04,0,10.07,0,15.11c-0.01,0-0.01,0-0.02,0c0-5.04,0-10.08,0-15.12
		C19.23,8.06,19.24,8.06,19.25,8.06z"/>
	<path class="st0" d="M2.84,23.22c0-5.01,0-10.01,0-15.02C2.9,8.26,2.88,8.33,2.88,8.39c0,4.88,0,9.75,0,14.63
		C2.88,23.09,2.9,23.17,2.84,23.22z"/>
	<path class="st0" d="M5.02,7.98c0.05-0.07,0.13-0.04,0.19-0.04c4.59,0,9.18,0,13.77,0c0.06,0,0.14-0.03,0.19,0.04
		c-0.08,0.04-0.16,0.03-0.24,0.03c-4.56,0-9.12,0-13.68,0C5.18,8.01,5.09,8.02,5.02,7.98z"/>
	<path class="st0" d="M5.02,7.98c0.88,0,1.76,0,2.65,0c3.77,0,7.54,0,11.3,0c0.07,0,0.14,0,0.21,0c0,0.01,0,0.03,0,0.04l-0.02,0
		l-0.02,0c-0.06,0.02-0.12,0.01-0.19,0.01c-4.57,0-9.14,0-13.71,0c-0.06,0-0.13,0.01-0.19-0.01l-0.02,0l-0.02,0
		C5.02,8,5.02,7.99,5.02,7.98z"/>
	<path class="st0" d="M18.76,24.22c-0.04,0.08-0.11,0.05-0.16,0.05c-4.27,0-8.55,0-12.82,0c-0.05,0-0.11,0.02-0.16-0.04
		c0.07,0,0.14-0.01,0.21-0.01c4.26,0,8.52,0,12.79,0C18.66,24.22,18.71,24.22,18.76,24.22z"/>
	<ellipse class="st0" cx="12.11" cy="5.81" rx="4.82" ry="0.01"/>
	<path class="st0" d="M14.67,3.87c0,0.01-0.01,0.01-0.01,0.02c-1.64,0-3.27,0-4.91,0C9.67,3.89,9.6,3.9,9.53,3.9
		c0.02-0.08,0.08-0.06,0.14-0.06c1.65,0,3.29,0,4.94,0c0.02,0,0.05,0.01,0.07,0.01C14.67,3.86,14.67,3.87,14.67,3.87z"/>
	<path class="st0" d="M5.01,23.26c0,0.03,0.01,0.07,0.01,0.1C5.02,23.38,5.01,23.39,5,23.41C5,23.4,4.98,23.39,4.98,23.37
		C4.98,23.33,4.98,23.29,5.01,23.26z"/>
	<path class="st0" d="M5.58,24.23c-0.05,0.04-0.09,0.09-0.14,0C5.49,24.23,5.54,24.23,5.58,24.23z"/>
	<path class="st0" d="M13.2,20.78c-0.02,0.27-0.15,0.44-0.41,0.52c-0.45,0.01-0.9,0-1.35,0.01c-0.28-0.06-0.43-0.24-0.45-0.53
		c0.03-0.06,0.02-0.12,0.02-0.18c0-2.99,0-5.99,0-8.98c0-0.06,0.01-0.13-0.02-0.18c0.02-0.3,0.19-0.48,0.49-0.52
		c0.41,0.03,0.83,0.03,1.24,0c0.29,0.04,0.47,0.23,0.49,0.52c-0.03,0.06-0.02,0.12-0.02,0.18c0,2.99,0,5.99,0,8.98
		C13.19,20.66,13.17,20.72,13.2,20.78z"/>
	<path class="st0" d="M17.29,20.86c-0.04,0.24-0.17,0.39-0.41,0.45c-0.45,0.01-0.9,0.01-1.35,0c-0.29-0.07-0.44-0.26-0.45-0.56
		c0.03-0.06,0.02-0.12,0.02-0.18c0-2.96,0-5.91,0-8.87c0-0.06,0.01-0.13-0.02-0.18c-0.01-0.33,0.17-0.55,0.49-0.6
		c0.41,0.03,0.83,0.03,1.24,0c0.28,0.04,0.45,0.2,0.49,0.49c-0.03,0.06-0.02,0.12-0.02,0.18c0,3.03,0,6.06,0,9.09
		C17.28,20.73,17.27,20.8,17.29,20.86z"/>
	<path class="st0" d="M8.75,21.29c-0.03,0.01-0.06,0.01-0.09,0.02c-0.45,0-0.9,0.01-1.35,0c-0.23-0.06-0.37-0.21-0.41-0.45
		c0.04-0.11-0.01-0.22,0.03-0.33c0-0.02,0-0.05,0-0.07c0-2.97,0-5.95,0-8.92c-0.01-0.04-0.01-0.09-0.03-0.13
		c0.04-0.28,0.19-0.43,0.49-0.49c0.43,0.03,0.85,0.02,1.28,0.01c0.29,0.08,0.44,0.26,0.45,0.56c-0.03,0.06-0.02,0.12-0.02,0.19
		c0,2.89,0,5.79,0,8.68c0,0.06-0.01,0.13,0.02,0.18C9.14,20.95,9.04,21.17,8.75,21.29z"/>
	<path class="st0" d="M17.31,11.58c0,3.02,0,6.04,0,9.06c0,0.07-0.01,0.15-0.02,0.22c-0.05-0.06-0.03-0.13-0.03-0.2
		c0-3.02,0-6.05,0-9.07c0-0.07-0.02-0.14,0.04-0.19C17.3,11.45,17.31,11.52,17.31,11.58z"/>
	<path class="st0" d="M6.9,20.85c-0.01-0.07-0.02-0.15-0.02-0.22c0-3.01,0-6.02,0-9.04c0-0.07,0.01-0.14,0.02-0.2
		c0.03,0.02,0.04,0.05,0.04,0.08c0.03,0.06,0.02,0.12,0.02,0.18c0,2.91,0,5.81,0,8.72c0,0.06,0.02,0.13-0.02,0.18
		C6.92,20.65,6.97,20.76,6.9,20.85z"/>
	<path class="st0" d="M13.21,11.58c0,3.01,0,6.02,0,9.03c0,0.06-0.01,0.11-0.01,0.17c-0.06-0.06-0.03-0.13-0.03-0.2
		c0-2.99,0-5.97,0-8.96c0-0.07-0.02-0.14,0.03-0.2C13.21,11.48,13.21,11.53,13.21,11.58z"/>
	<path class="st0" d="M11.03,20.58c0,0.07,0.02,0.14-0.03,0.2c0-0.05-0.01-0.1-0.01-0.15c0-3.02,0-6.04,0-9.05
		c0-0.05,0.01-0.1,0.01-0.15c0.06,0.06,0.03,0.13,0.03,0.2C11.03,14.61,11.03,17.6,11.03,20.58z"/>
	<path class="st0" d="M15.09,20.74c0-0.06-0.01-0.12-0.01-0.19c0-2.96,0-5.92,0-8.88c0-0.06,0-0.11,0.01-0.17
		c0.06,0.06,0.03,0.13,0.03,0.2c0,2.95,0,5.9,0,8.84C15.12,20.61,15.14,20.68,15.09,20.74z"/>
	<path class="st0" d="M9.12,11.6c0,2.93,0,5.86,0,8.79c0,0.04,0,0.09-0.01,0.13c-0.06-0.06-0.03-0.13-0.03-0.2c0-2.89,0-5.77,0-8.66
		c0-0.07-0.02-0.14,0.03-0.2C9.11,11.51,9.12,11.55,9.12,11.6z"/>
	<path class="st0" d="M12.79,21.3c-0.45,0.06-0.9,0.05-1.35,0.01c0.04-0.05,0.09-0.04,0.14-0.04c0.36,0,0.73,0,1.09,0
		C12.71,21.27,12.76,21.26,12.79,21.3z"/>
	<path class="st0" d="M16.89,21.3c-0.45,0.05-0.9,0.05-1.35,0c0.04-0.05,0.1-0.03,0.16-0.03c0.34,0,0.69,0,1.03,0
		C16.78,21.27,16.84,21.25,16.89,21.3z"/>
	<path class="st0" d="M8.66,21.31c-0.45,0.04-0.9,0.05-1.35,0c0.09-0.06,0.19-0.03,0.29-0.03c0.3,0,0.59,0,0.89,0
		C8.55,21.27,8.61,21.25,8.66,21.31z"/>
	<path class="st0" d="M8.66,10.91c-0.26,0.07-0.53,0.02-0.8,0.03c-0.16,0-0.32,0.05-0.48-0.03C7.81,10.88,8.24,10.87,8.66,10.91z"/>
	<path class="st0" d="M12.72,10.91c-0.06,0.06-0.14,0.03-0.21,0.03c-0.28,0-0.57,0-0.85,0c-0.06,0-0.13,0.02-0.17-0.03
		C11.89,10.88,12.3,10.88,12.72,10.91z"/>
	<path class="st0" d="M16.81,10.9c-0.06,0.06-0.14,0.03-0.21,0.03c-0.28,0-0.57,0-0.85,0c-0.06,0-0.13,0.02-0.17-0.03
		C15.99,10.88,16.4,10.88,16.81,10.9z"/>
	<path class="st0" d="M5.06,8.02c0.06,0,0.11-0.01,0.17-0.01c4.58,0,9.16,0,13.74,0c0.06,0,0.11,0,0.17,0.01
		c-0.06,0.05-0.13,0.03-0.2,0.03c-4.56,0-9.12,0-13.68,0C5.19,8.05,5.12,8.07,5.06,8.02z"/>
	<path class="st0" d="M6.93,20.56c0-3.03,0-6.06,0-9.09C7,11.52,6.97,11.6,6.97,11.66c0,2.9,0,5.8,0,8.7
		C6.97,20.43,7,20.5,6.93,20.56z"/>
</g>
</svg>
