<?xml version="1.0" encoding="utf-8"?>
<!-- Generator: Adobe Illustrator 24.0.0, SVG Export Plug-In . SVG Version: 6.00 Build 0)  -->
<svg version="1.1" id="Layer_1" xmlns="http://www.w3.org/2000/svg" xmlns:xlink="http://www.w3.org/1999/xlink" x="0px" y="0px"
	 viewBox="0 0 1948.61 84.26" style="enable-background:new 0 0 1948.61 84.26;" xml:space="preserve">
<style type="text/css">
	.st0{fill:#C46449;}
</style>
<g>
	<rect x="25.11" y="42.1" class="st0" width="1" height="13.63"/>
	<rect x="112.37" y="42.1" class="st0" width="1" height="13.63"/>
	<rect x="199.63" y="42.1" class="st0" width="1" height="13.63"/>
	<rect x="286.89" y="42.1" class="st0" width="1" height="13.63"/>
	<rect x="374.15" y="42.1" class="st0" width="1" height="13.63"/>
	<rect x="461.41" y="42.1" class="st0" width="1" height="13.63"/>
	<rect x="548.67" y="42.1" class="st0" width="1" height="13.63"/>
	<rect x="635.93" y="42.1" class="st0" width="1" height="13.63"/>
	<rect x="723.18" y="42.1" class="st0" width="1" height="13.63"/>
	<rect x="810.44" y="42.1" class="st0" width="1" height="13.63"/>
	<rect x="897.7" y="42.1" class="st0" width="1" height="13.63"/>
	<rect x="68.74" y="32.14" class="st0" width="1" height="13.63"/>
	<rect x="156" y="32.14" class="st0" width="1" height="13.63"/>
	<rect x="243.26" y="32.14" class="st0" width="1" height="13.63"/>
	<rect x="330.52" y="32.14" class="st0" width="1" height="13.63"/>
	<rect x="417.78" y="32.14" class="st0" width="1" height="13.63"/>
	<rect x="505.04" y="32.14" class="st0" width="1" height="13.63"/>
	<rect x="592.3" y="32.14" class="st0" width="1" height="13.63"/>
	<rect x="679.55" y="32.14" class="st0" width="1" height="13.63"/>
	<rect x="766.81" y="32.14" class="st0" width="1" height="13.63"/>
	<rect x="854.07" y="32.14" class="st0" width="1" height="13.63"/>
	<rect x="941.33" y="32.14" class="st0" width="1" height="13.63"/>
	<path class="st0" d="M44.34,45.78c0,1.7,1.39,3.09,3.09,3.09s3.09-1.39,3.09-3.09s-1.39-3.09-3.09-3.09S44.34,44.07,44.34,45.78z
		 M49.52,45.78c0,1.15-0.94,2.09-2.09,2.09s-2.09-0.94-2.09-2.09s0.94-2.09,2.09-2.09S49.52,44.63,49.52,45.78z"/>
	<path class="st0" d="M87.97,45.78c0,1.7,1.39,3.09,3.09,3.09s3.09-1.39,3.09-3.09s-1.39-3.09-3.09-3.09S87.97,44.07,87.97,45.78z
		 M93.15,45.78c0,1.15-0.94,2.09-2.09,2.09s-2.09-0.94-2.09-2.09s0.94-2.09,2.09-2.09S93.15,44.63,93.15,45.78z"/>
	<path class="st0" d="M131.6,45.78c0,1.7,1.39,3.09,3.09,3.09s3.09-1.39,3.09-3.09s-1.39-3.09-3.09-3.09S131.6,44.07,131.6,45.78z
		 M136.78,45.78c0,1.15-0.94,2.09-2.09,2.09s-2.09-0.94-2.09-2.09s0.94-2.09,2.09-2.09S136.78,44.63,136.78,45.78z"/>
	<path class="st0" d="M175.23,45.78c0,1.7,1.39,3.09,3.09,3.09s3.09-1.39,3.09-3.09s-1.39-3.09-3.09-3.09S175.23,44.07,175.23,45.78
		z M180.41,45.78c0,1.15-0.94,2.09-2.09,2.09s-2.09-0.94-2.09-2.09s0.94-2.09,2.09-2.09S180.41,44.63,180.41,45.78z"/>
	<path class="st0" d="M218.86,45.78c0,1.7,1.39,3.09,3.09,3.09s3.09-1.39,3.09-3.09s-1.39-3.09-3.09-3.09S218.86,44.07,218.86,45.78
		z M224.04,45.78c0,1.15-0.94,2.09-2.09,2.09s-2.09-0.94-2.09-2.09s0.94-2.09,2.09-2.09S224.04,44.63,224.04,45.78z"/>
	<path class="st0" d="M262.48,45.78c0,1.7,1.39,3.09,3.09,3.09s3.09-1.39,3.09-3.09s-1.39-3.09-3.09-3.09S262.48,44.07,262.48,45.78
		z M267.67,45.78c0,1.15-0.94,2.09-2.09,2.09s-2.09-0.94-2.09-2.09s0.94-2.09,2.09-2.09S267.67,44.63,267.67,45.78z"/>
	<path class="st0" d="M306.11,45.78c0,1.7,1.39,3.09,3.09,3.09s3.09-1.39,3.09-3.09s-1.39-3.09-3.09-3.09S306.11,44.07,306.11,45.78
		z M311.29,45.78c0,1.15-0.94,2.09-2.09,2.09s-2.09-0.94-2.09-2.09s0.94-2.09,2.09-2.09S311.29,44.63,311.29,45.78z"/>
	<path class="st0" d="M349.74,45.78c0,1.7,1.39,3.09,3.09,3.09s3.09-1.39,3.09-3.09s-1.39-3.09-3.09-3.09S349.74,44.07,349.74,45.78
		z M354.92,45.78c0,1.15-0.94,2.09-2.09,2.09s-2.09-0.94-2.09-2.09s0.94-2.09,2.09-2.09S354.92,44.63,354.92,45.78z"/>
	<path class="st0" d="M393.37,45.78c0,1.7,1.39,3.09,3.09,3.09s3.09-1.39,3.09-3.09s-1.39-3.09-3.09-3.09S393.37,44.07,393.37,45.78
		z M398.55,45.78c0,1.15-0.94,2.09-2.09,2.09s-2.09-0.94-2.09-2.09s0.94-2.09,2.09-2.09S398.55,44.63,398.55,45.78z"/>
	<path class="st0" d="M437,45.78c0,1.7,1.39,3.09,3.09,3.09s3.09-1.39,3.09-3.09s-1.39-3.09-3.09-3.09S437,44.07,437,45.78z
		 M442.18,45.78c0,1.15-0.94,2.09-2.09,2.09S438,46.93,438,45.78s0.94-2.09,2.09-2.09S442.18,44.63,442.18,45.78z"/>
	<path class="st0" d="M480.63,45.78c0,1.7,1.39,3.09,3.09,3.09s3.09-1.39,3.09-3.09s-1.39-3.09-3.09-3.09S480.63,44.07,480.63,45.78
		z M485.81,45.78c0,1.15-0.94,2.09-2.09,2.09s-2.09-0.94-2.09-2.09s0.94-2.09,2.09-2.09S485.81,44.63,485.81,45.78z"/>
	<path class="st0" d="M524.26,45.78c0,1.7,1.39,3.09,3.09,3.09s3.09-1.39,3.09-3.09s-1.39-3.09-3.09-3.09S524.26,44.07,524.26,45.78
		z M529.44,45.78c0,1.15-0.94,2.09-2.09,2.09s-2.09-0.94-2.09-2.09s0.94-2.09,2.09-2.09S529.44,44.63,529.44,45.78z"/>
	<path class="st0" d="M567.89,45.78c0,1.7,1.39,3.09,3.09,3.09s3.09-1.39,3.09-3.09s-1.39-3.09-3.09-3.09S567.89,44.07,567.89,45.78
		z M573.07,45.78c0,1.15-0.94,2.09-2.09,2.09s-2.09-0.94-2.09-2.09s0.94-2.09,2.09-2.09S573.07,44.63,573.07,45.78z"/>
	<path class="st0" d="M611.52,45.78c0,1.7,1.39,3.09,3.09,3.09s3.09-1.39,3.09-3.09s-1.39-3.09-3.09-3.09S611.52,44.07,611.52,45.78
		z M616.7,45.78c0,1.15-0.94,2.09-2.09,2.09s-2.09-0.94-2.09-2.09s0.94-2.09,2.09-2.09S616.7,44.63,616.7,45.78z"/>
	<path class="st0" d="M655.15,45.78c0,1.7,1.39,3.09,3.09,3.09s3.09-1.39,3.09-3.09s-1.39-3.09-3.09-3.09S655.15,44.07,655.15,45.78
		z M660.33,45.78c0,1.15-0.94,2.09-2.09,2.09s-2.09-0.94-2.09-2.09s0.94-2.09,2.09-2.09S660.33,44.63,660.33,45.78z"/>
	<path class="st0" d="M698.78,45.78c0,1.7,1.39,3.09,3.09,3.09s3.09-1.39,3.09-3.09s-1.39-3.09-3.09-3.09S698.78,44.07,698.78,45.78
		z M703.96,45.78c0,1.15-0.94,2.09-2.09,2.09s-2.09-0.94-2.09-2.09s0.94-2.09,2.09-2.09S703.96,44.63,703.96,45.78z"/>
	<path class="st0" d="M742.41,45.78c0,1.7,1.39,3.09,3.09,3.09s3.09-1.39,3.09-3.09s-1.39-3.09-3.09-3.09S742.41,44.07,742.41,45.78
		z M747.59,45.78c0,1.15-0.94,2.09-2.09,2.09s-2.09-0.94-2.09-2.09s0.94-2.09,2.09-2.09S747.59,44.63,747.59,45.78z"/>
	<path class="st0" d="M786.04,45.78c0,1.7,1.39,3.09,3.09,3.09s3.09-1.39,3.09-3.09s-1.39-3.09-3.09-3.09S786.04,44.07,786.04,45.78
		z M791.22,45.78c0,1.15-0.94,2.09-2.09,2.09s-2.09-0.94-2.09-2.09s0.94-2.09,2.09-2.09S791.22,44.63,791.22,45.78z"/>
	<path class="st0" d="M829.67,45.78c0,1.7,1.39,3.09,3.09,3.09s3.09-1.39,3.09-3.09s-1.39-3.09-3.09-3.09S829.67,44.07,829.67,45.78
		z M834.85,45.78c0,1.15-0.94,2.09-2.09,2.09s-2.09-0.94-2.09-2.09s0.94-2.09,2.09-2.09S834.85,44.63,834.85,45.78z"/>
	<path class="st0" d="M873.3,45.78c0,1.7,1.39,3.09,3.09,3.09s3.09-1.39,3.09-3.09s-1.39-3.09-3.09-3.09S873.3,44.07,873.3,45.78z
		 M878.48,45.78c0,1.15-0.94,2.09-2.09,2.09s-2.09-0.94-2.09-2.09s0.94-2.09,2.09-2.09S878.48,44.63,878.48,45.78z"/>
	<path class="st0" d="M916.93,45.78c0,1.7,1.39,3.09,3.09,3.09s3.09-1.39,3.09-3.09s-1.39-3.09-3.09-3.09S916.93,44.07,916.93,45.78
		z M922.11,45.78c0,1.15-0.94,2.09-2.09,2.09s-2.09-0.94-2.09-2.09s0.94-2.09,2.09-2.09S922.11,44.63,922.11,45.78z"/>
	<path class="st0" d="M960.56,45.78c0,1.7,1.39,3.09,3.09,3.09s3.09-1.39,3.09-3.09s-1.39-3.09-3.09-3.09S960.56,44.07,960.56,45.78
		z M965.74,45.78c0,1.15-0.94,2.09-2.09,2.09s-2.09-0.94-2.09-2.09s0.94-2.09,2.09-2.09S965.74,44.63,965.74,45.78z"/>
	<polygon class="st0" points="1933.21,26.28 1933.21,57.41 1912.39,57.41 1912.39,26.28 1912.39,25.78 1889.58,25.78 1889.58,26.28 
		1889.58,57.41 1868.76,57.41 1868.76,26.28 1868.76,25.78 1845.95,25.78 1845.95,26.28 1845.95,57.41 1825.13,57.41 1825.13,26.28 
		1825.13,25.78 1802.32,25.78 1802.32,26.28 1802.32,57.41 1781.5,57.41 1781.5,26.28 1781.5,25.78 1758.69,25.78 1758.69,26.28 
		1758.69,57.41 1737.87,57.41 1737.87,26.28 1737.87,25.78 1715.06,25.78 1715.06,26.28 1715.06,57.41 1694.24,57.41 1694.24,26.28 
		1694.24,25.78 1671.43,25.78 1671.43,26.28 1671.43,57.41 1650.62,57.41 1650.62,26.28 1650.62,25.78 1627.8,25.78 1627.8,26.28 
		1627.8,57.41 1606.99,57.41 1606.99,26.28 1606.99,25.78 1584.17,25.78 1584.17,26.28 1584.17,57.41 1563.36,57.41 1563.36,26.28 
		1563.36,25.78 1540.54,25.78 1540.54,26.28 1540.54,57.41 1519.73,57.41 1519.73,26.28 1519.73,25.78 1496.91,25.78 1496.91,26.28 
		1496.91,57.41 1476.1,57.41 1476.1,26.28 1476.1,25.78 1453.28,25.78 1453.28,26.28 1453.28,57.41 1432.47,57.41 1432.47,26.28 
		1432.47,25.78 1409.65,25.78 1409.65,26.28 1409.65,57.41 1388.84,57.41 1388.84,26.28 1388.84,25.78 1366.02,25.78 1366.02,26.28 
		1366.02,57.41 1345.21,57.41 1345.21,26.28 1345.21,25.78 1322.39,25.78 1322.39,26.28 1322.39,57.41 1301.58,57.41 1301.58,26.28 
		1301.58,25.78 1278.76,25.78 1278.76,26.28 1278.76,57.41 1257.95,57.41 1257.95,26.28 1257.95,25.78 1235.14,25.78 1235.14,26.28 
		1235.14,57.41 1214.32,57.41 1214.32,26.28 1214.32,25.78 1191.51,25.78 1191.51,26.28 1191.51,57.41 1170.69,57.41 1170.69,26.28 
		1170.69,25.78 1147.88,25.78 1147.88,26.28 1147.88,57.41 1127.06,57.41 1127.06,26.28 1127.06,25.78 1104.25,25.78 1104.25,26.28 
		1104.25,57.41 1083.43,57.41 1083.43,26.28 1083.43,25.78 1060.62,25.78 1060.62,26.28 1060.62,57.41 1039.8,57.41 1039.8,26.28 
		1039.8,25.78 1016.99,25.78 1016.99,26.28 1016.99,57.41 996.17,57.41 996.17,26.28 996.17,25.78 973.36,25.78 973.36,57.41 
		953.24,57.41 953.24,26.28 953.24,25.78 930.42,25.78 930.42,26.28 930.42,57.41 909.61,57.41 909.61,26.28 909.61,25.78 
		886.79,25.78 886.79,26.28 886.79,57.41 865.98,57.41 865.98,26.28 865.98,25.78 843.17,25.78 843.17,26.28 843.17,57.41 
		822.35,57.41 822.35,26.28 822.35,25.78 799.54,25.78 799.54,26.28 799.54,57.41 778.72,57.41 778.72,26.28 778.72,25.78 
		755.91,25.78 755.91,26.28 755.91,57.41 735.09,57.41 735.09,26.28 735.09,25.78 712.28,25.78 712.28,26.28 712.28,57.41 
		691.46,57.41 691.46,26.28 691.46,25.78 668.65,25.78 668.65,26.28 668.65,57.41 647.83,57.41 647.83,26.28 647.83,25.78 
		625.02,25.78 625.02,26.28 625.02,57.41 604.2,57.41 604.2,26.28 604.2,25.78 581.39,25.78 581.39,26.28 581.39,57.41 
		560.57,57.41 560.57,26.28 560.57,25.78 537.76,25.78 537.76,26.28 537.76,57.41 516.94,57.41 516.94,26.28 516.94,25.78 
		494.13,25.78 494.13,26.28 494.13,57.41 473.31,57.41 473.31,26.28 473.31,25.78 450.5,25.78 450.5,26.28 450.5,57.41 
		429.69,57.41 429.69,26.28 429.69,25.78 406.87,25.78 406.87,26.28 406.87,57.41 386.06,57.41 386.06,26.28 386.06,25.78 
		363.24,25.78 363.24,26.28 363.24,57.41 342.43,57.41 342.43,26.28 342.43,25.78 319.61,25.78 319.61,26.28 319.61,57.41 
		298.8,57.41 298.8,26.28 298.8,25.78 275.98,25.78 275.98,26.28 275.98,57.41 255.17,57.41 255.17,26.28 255.17,25.78 
		232.35,25.78 232.35,26.28 232.35,57.41 211.54,57.41 211.54,26.28 211.54,25.78 188.72,25.78 188.72,26.28 188.72,57.41 
		167.91,57.41 167.91,26.28 167.91,25.78 145.09,25.78 145.09,26.28 145.09,57.41 124.28,57.41 124.28,26.28 124.28,25.78 
		101.46,25.78 101.46,26.28 101.46,57.41 80.65,57.41 80.65,26.28 80.65,25.78 57.84,25.78 57.84,26.28 57.84,57.41 37.02,57.41 
		37.02,26.28 37.02,25.78 14.21,25.78 14.21,57.91 15.21,57.91 15.21,26.78 36.02,26.78 36.02,57.91 36.02,58.41 58.84,58.41 
		58.84,57.91 58.84,26.78 79.65,26.78 79.65,57.91 79.65,58.41 102.46,58.41 102.46,57.91 102.46,26.78 123.28,26.78 123.28,57.91 
		123.28,58.41 146.09,58.41 146.09,57.91 146.09,26.78 166.91,26.78 166.91,57.91 166.91,58.41 189.72,58.41 189.72,57.91 
		189.72,26.78 210.54,26.78 210.54,57.91 210.54,58.41 233.35,58.41 233.35,57.91 233.35,26.78 254.17,26.78 254.17,57.91 
		254.17,58.41 276.98,58.41 276.98,57.91 276.98,26.78 297.8,26.78 297.8,57.91 297.8,58.41 320.61,58.41 320.61,57.91 
		320.61,26.78 341.43,26.78 341.43,57.91 341.43,58.41 364.24,58.41 364.24,57.91 364.24,26.78 385.06,26.78 385.06,57.91 
		385.06,58.41 407.87,58.41 407.87,57.91 407.87,26.78 428.69,26.78 428.69,57.91 428.69,58.41 451.5,58.41 451.5,57.91 
		451.5,26.78 472.31,26.78 472.31,57.91 472.31,58.41 495.13,58.41 495.13,57.91 495.13,26.78 515.94,26.78 515.94,57.91 
		515.94,58.41 538.76,58.41 538.76,57.91 538.76,26.78 559.57,26.78 559.57,57.91 559.57,58.41 582.39,58.41 582.39,57.91 
		582.39,26.78 603.2,26.78 603.2,57.91 603.2,58.41 626.02,58.41 626.02,57.91 626.02,26.78 646.83,26.78 646.83,57.91 
		646.83,58.41 669.65,58.41 669.65,57.91 669.65,26.78 690.46,26.78 690.46,57.91 690.46,58.41 713.28,58.41 713.28,57.91 
		713.28,26.78 734.09,26.78 734.09,57.91 734.09,58.41 756.91,58.41 756.91,57.91 756.91,26.78 777.72,26.78 777.72,57.91 
		777.72,58.41 800.54,58.41 800.54,57.91 800.54,26.78 821.35,26.78 821.35,57.91 821.35,58.41 844.17,58.41 844.17,57.91 
		844.17,26.78 864.98,26.78 864.98,57.91 864.98,58.41 887.79,58.41 887.79,57.91 887.79,26.78 908.61,26.78 908.61,57.91 
		908.61,58.41 931.42,58.41 931.42,57.91 931.42,26.78 952.24,26.78 952.24,57.91 952.24,58.41 975.05,58.41 975.05,26.78 
		995.17,26.78 995.17,57.91 995.17,58.41 1017.99,58.41 1017.99,57.91 1017.99,26.78 1038.8,26.78 1038.8,57.91 1038.8,58.41 
		1061.62,58.41 1061.62,57.91 1061.62,26.78 1082.43,26.78 1082.43,57.91 1082.43,58.41 1105.25,58.41 1105.25,57.91 1105.25,26.78 
		1126.06,26.78 1126.06,57.91 1126.06,58.41 1148.88,58.41 1148.88,57.91 1148.88,26.78 1169.69,26.78 1169.69,57.91 1169.69,58.41 
		1192.51,58.41 1192.51,57.91 1192.51,26.78 1213.32,26.78 1213.32,57.91 1213.32,58.41 1236.14,58.41 1236.14,57.91 1236.14,26.78 
		1256.95,26.78 1256.95,57.91 1256.95,58.41 1279.76,58.41 1279.76,57.91 1279.76,26.78 1300.58,26.78 1300.58,57.91 1300.58,58.41 
		1323.39,58.41 1323.39,57.91 1323.39,26.78 1344.21,26.78 1344.21,57.91 1344.21,58.41 1367.02,58.41 1367.02,57.91 1367.02,26.78 
		1387.84,26.78 1387.84,57.91 1387.84,58.41 1410.65,58.41 1410.65,57.91 1410.65,26.78 1431.47,26.78 1431.47,57.91 1431.47,58.41 
		1454.28,58.41 1454.28,57.91 1454.28,26.78 1475.1,26.78 1475.1,57.91 1475.1,58.41 1497.91,58.41 1497.91,57.91 1497.91,26.78 
		1518.73,26.78 1518.73,57.91 1518.73,58.41 1541.54,58.41 1541.54,57.91 1541.54,26.78 1562.36,26.78 1562.36,57.91 1562.36,58.41 
		1585.17,58.41 1585.17,57.91 1585.17,26.78 1605.99,26.78 1605.99,57.91 1605.99,58.41 1628.8,58.41 1628.8,57.91 1628.8,26.78 
		1649.62,26.78 1649.62,57.91 1649.62,58.41 1672.43,58.41 1672.43,57.91 1672.43,26.78 1693.24,26.78 1693.24,57.91 1693.24,58.41 
		1716.06,58.41 1716.06,57.91 1716.06,26.78 1736.87,26.78 1736.87,57.91 1736.87,58.41 1759.69,58.41 1759.69,57.91 1759.69,26.78 
		1780.5,26.78 1780.5,57.91 1780.5,58.41 1803.32,58.41 1803.32,57.91 1803.32,26.78 1824.13,26.78 1824.13,57.91 1824.13,58.41 
		1846.95,58.41 1846.95,57.91 1846.95,26.78 1867.76,26.78 1867.76,57.91 1867.76,58.41 1890.58,58.41 1890.58,57.91 1890.58,26.78 
		1911.39,26.78 1911.39,57.91 1911.39,58.41 1934.21,58.41 1934.21,26.28 	"/>
	<polygon class="st0" points="974.55,12.33 1933.71,12.33 1933.71,11.33 974.55,11.33 973.86,11.33 14.71,11.33 14.71,12.33 
		973.86,12.33 	"/>
	<polygon class="st0" points="974.55,6.6 1933.71,6.6 1933.71,5.6 974.55,5.6 973.86,5.6 14.71,5.6 14.71,6.6 973.86,6.6 	"/>
	<polygon class="st0" points="973.86,77.59 14.71,77.59 14.71,78.59 973.86,78.59 974.55,78.59 1933.71,78.59 1933.71,77.59 
		974.55,77.59 	"/>
	<polygon class="st0" points="973.86,71.86 14.71,71.86 14.71,72.86 973.86,72.86 974.55,72.86 1933.71,72.86 1933.71,71.86 
		974.55,71.86 	"/>
	<rect x="984.27" y="42.1" class="st0" width="1" height="13.63"/>
	<rect x="1071.53" y="42.1" class="st0" width="1" height="13.63"/>
	<rect x="1158.78" y="42.1" class="st0" width="1" height="13.63"/>
	<rect x="1246.04" y="42.1" class="st0" width="1" height="13.63"/>
	<rect x="1333.3" y="42.1" class="st0" width="1" height="13.63"/>
	<rect x="1420.56" y="42.1" class="st0" width="1" height="13.63"/>
	<rect x="1507.82" y="42.1" class="st0" width="1" height="13.63"/>
	<rect x="1595.08" y="42.1" class="st0" width="1" height="13.63"/>
	<rect x="1682.34" y="42.1" class="st0" width="1" height="13.63"/>
	<rect x="1769.6" y="42.1" class="st0" width="1" height="13.63"/>
	<rect x="1856.85" y="42.1" class="st0" width="1" height="13.63"/>
	<rect x="1027.9" y="32.14" class="st0" width="1" height="13.63"/>
	<rect x="1115.15" y="32.14" class="st0" width="1" height="13.63"/>
	<rect x="1202.41" y="32.14" class="st0" width="1" height="13.63"/>
	<rect x="1289.67" y="32.14" class="st0" width="1" height="13.63"/>
	<rect x="1376.93" y="32.14" class="st0" width="1" height="13.63"/>
	<rect x="1464.19" y="32.14" class="st0" width="1" height="13.63"/>
	<rect x="1551.45" y="32.14" class="st0" width="1" height="13.63"/>
	<rect x="1638.71" y="32.14" class="st0" width="1" height="13.63"/>
	<rect x="1725.97" y="32.14" class="st0" width="1" height="13.63"/>
	<rect x="1813.23" y="32.14" class="st0" width="1" height="13.63"/>
	<rect x="1900.48" y="32.14" class="st0" width="1" height="13.63"/>
	<path class="st0" d="M1003.49,45.78c0,1.7,1.39,3.09,3.09,3.09s3.09-1.39,3.09-3.09s-1.39-3.09-3.09-3.09
		S1003.49,44.07,1003.49,45.78z M1008.67,45.78c0,1.15-0.94,2.09-2.09,2.09s-2.09-0.94-2.09-2.09s0.94-2.09,2.09-2.09
		S1008.67,44.63,1008.67,45.78z"/>
	<path class="st0" d="M1047.12,45.78c0,1.7,1.39,3.09,3.09,3.09s3.09-1.39,3.09-3.09s-1.39-3.09-3.09-3.09
		S1047.12,44.07,1047.12,45.78z M1052.3,45.78c0,1.15-0.94,2.09-2.09,2.09c-1.15,0-2.09-0.94-2.09-2.09s0.94-2.09,2.09-2.09
		C1051.36,43.69,1052.3,44.63,1052.3,45.78z"/>
	<path class="st0" d="M1090.75,45.78c0,1.7,1.39,3.09,3.09,3.09s3.09-1.39,3.09-3.09s-1.39-3.09-3.09-3.09
		S1090.75,44.07,1090.75,45.78z M1095.93,45.78c0,1.15-0.94,2.09-2.09,2.09s-2.09-0.94-2.09-2.09s0.94-2.09,2.09-2.09
		S1095.93,44.63,1095.93,45.78z"/>
	<path class="st0" d="M1134.38,45.78c0,1.7,1.39,3.09,3.09,3.09s3.09-1.39,3.09-3.09s-1.39-3.09-3.09-3.09
		S1134.38,44.07,1134.38,45.78z M1139.56,45.78c0,1.15-0.94,2.09-2.09,2.09c-1.15,0-2.09-0.94-2.09-2.09s0.94-2.09,2.09-2.09
		C1138.62,43.69,1139.56,44.63,1139.56,45.78z"/>
	<path class="st0" d="M1178.01,45.78c0,1.7,1.39,3.09,3.09,3.09s3.09-1.39,3.09-3.09s-1.39-3.09-3.09-3.09
		S1178.01,44.07,1178.01,45.78z M1183.19,45.78c0,1.15-0.94,2.09-2.09,2.09s-2.09-0.94-2.09-2.09s0.94-2.09,2.09-2.09
		S1183.19,44.63,1183.19,45.78z"/>
	<path class="st0" d="M1221.64,45.78c0,1.7,1.39,3.09,3.09,3.09s3.09-1.39,3.09-3.09s-1.39-3.09-3.09-3.09
		S1221.64,44.07,1221.64,45.78z M1226.82,45.78c0,1.15-0.94,2.09-2.09,2.09c-1.15,0-2.09-0.94-2.09-2.09s0.94-2.09,2.09-2.09
		C1225.88,43.69,1226.82,44.63,1226.82,45.78z"/>
	<path class="st0" d="M1265.27,45.78c0,1.7,1.39,3.09,3.09,3.09s3.09-1.39,3.09-3.09s-1.39-3.09-3.09-3.09
		S1265.27,44.07,1265.27,45.78z M1270.45,45.78c0,1.15-0.94,2.09-2.09,2.09c-1.15,0-2.09-0.94-2.09-2.09s0.94-2.09,2.09-2.09
		C1269.51,43.69,1270.45,44.63,1270.45,45.78z"/>
	<path class="st0" d="M1308.9,45.78c0,1.7,1.39,3.09,3.09,3.09s3.09-1.39,3.09-3.09s-1.39-3.09-3.09-3.09S1308.9,44.07,1308.9,45.78
		z M1314.08,45.78c0,1.15-0.94,2.09-2.09,2.09c-1.15,0-2.09-0.94-2.09-2.09s0.94-2.09,2.09-2.09
		C1313.14,43.69,1314.08,44.63,1314.08,45.78z"/>
	<path class="st0" d="M1352.53,45.78c0,1.7,1.39,3.09,3.09,3.09s3.09-1.39,3.09-3.09s-1.39-3.09-3.09-3.09
		S1352.53,44.07,1352.53,45.78z M1357.71,45.78c0,1.15-0.94,2.09-2.09,2.09c-1.15,0-2.09-0.94-2.09-2.09s0.94-2.09,2.09-2.09
		C1356.77,43.69,1357.71,44.63,1357.71,45.78z"/>
	<path class="st0" d="M1396.16,45.78c0,1.7,1.39,3.09,3.09,3.09s3.09-1.39,3.09-3.09s-1.39-3.09-3.09-3.09
		S1396.16,44.07,1396.16,45.78z M1401.34,45.78c0,1.15-0.94,2.09-2.09,2.09c-1.15,0-2.09-0.94-2.09-2.09s0.94-2.09,2.09-2.09
		C1400.4,43.69,1401.34,44.63,1401.34,45.78z"/>
	<path class="st0" d="M1439.79,45.78c0,1.7,1.39,3.09,3.09,3.09s3.09-1.39,3.09-3.09s-1.39-3.09-3.09-3.09
		S1439.79,44.07,1439.79,45.78z M1444.97,45.78c0,1.15-0.94,2.09-2.09,2.09c-1.15,0-2.09-0.94-2.09-2.09s0.94-2.09,2.09-2.09
		C1444.03,43.69,1444.97,44.63,1444.97,45.78z"/>
	<path class="st0" d="M1483.41,45.78c0,1.7,1.39,3.09,3.09,3.09s3.09-1.39,3.09-3.09s-1.39-3.09-3.09-3.09
		S1483.41,44.07,1483.41,45.78z M1488.59,45.78c0,1.15-0.94,2.09-2.09,2.09c-1.15,0-2.09-0.94-2.09-2.09s0.94-2.09,2.09-2.09
		C1487.66,43.69,1488.59,44.63,1488.59,45.78z"/>
	<path class="st0" d="M1527.04,45.78c0,1.7,1.39,3.09,3.09,3.09s3.09-1.39,3.09-3.09s-1.39-3.09-3.09-3.09
		S1527.04,44.07,1527.04,45.78z M1532.22,45.78c0,1.15-0.94,2.09-2.09,2.09c-1.15,0-2.09-0.94-2.09-2.09s0.94-2.09,2.09-2.09
		C1531.29,43.69,1532.22,44.63,1532.22,45.78z"/>
	<path class="st0" d="M1570.67,45.78c0,1.7,1.39,3.09,3.09,3.09s3.09-1.39,3.09-3.09s-1.39-3.09-3.09-3.09
		S1570.67,44.07,1570.67,45.78z M1575.85,45.78c0,1.15-0.94,2.09-2.09,2.09c-1.15,0-2.09-0.94-2.09-2.09s0.94-2.09,2.09-2.09
		C1574.92,43.69,1575.85,44.63,1575.85,45.78z"/>
	<path class="st0" d="M1614.3,45.78c0,1.7,1.39,3.09,3.09,3.09s3.09-1.39,3.09-3.09s-1.39-3.09-3.09-3.09S1614.3,44.07,1614.3,45.78
		z M1619.48,45.78c0,1.15-0.94,2.09-2.09,2.09c-1.15,0-2.09-0.94-2.09-2.09s0.94-2.09,2.09-2.09
		C1618.55,43.69,1619.48,44.63,1619.48,45.78z"/>
	<path class="st0" d="M1657.93,45.78c0,1.7,1.39,3.09,3.09,3.09s3.09-1.39,3.09-3.09s-1.39-3.09-3.09-3.09
		S1657.93,44.07,1657.93,45.78z M1663.11,45.78c0,1.15-0.94,2.09-2.09,2.09c-1.15,0-2.09-0.94-2.09-2.09s0.94-2.09,2.09-2.09
		C1662.17,43.69,1663.11,44.63,1663.11,45.78z"/>
	<path class="st0" d="M1701.56,45.78c0,1.7,1.39,3.09,3.09,3.09s3.09-1.39,3.09-3.09s-1.39-3.09-3.09-3.09
		S1701.56,44.07,1701.56,45.78z M1706.74,45.78c0,1.15-0.94,2.09-2.09,2.09c-1.15,0-2.09-0.94-2.09-2.09s0.94-2.09,2.09-2.09
		C1705.8,43.69,1706.74,44.63,1706.74,45.78z"/>
	<path class="st0" d="M1745.19,45.78c0,1.7,1.39,3.09,3.09,3.09s3.09-1.39,3.09-3.09s-1.39-3.09-3.09-3.09
		S1745.19,44.07,1745.19,45.78z M1750.37,45.78c0,1.15-0.94,2.09-2.09,2.09c-1.15,0-2.09-0.94-2.09-2.09s0.94-2.09,2.09-2.09
		C1749.43,43.69,1750.37,44.63,1750.37,45.78z"/>
	<path class="st0" d="M1788.82,45.78c0,1.7,1.39,3.09,3.09,3.09s3.09-1.39,3.09-3.09s-1.39-3.09-3.09-3.09
		S1788.82,44.07,1788.82,45.78z M1794,45.78c0,1.15-0.94,2.09-2.09,2.09c-1.15,0-2.09-0.94-2.09-2.09s0.94-2.09,2.09-2.09
		C1793.06,43.69,1794,44.63,1794,45.78z"/>
	<path class="st0" d="M1832.45,45.78c0,1.7,1.39,3.09,3.09,3.09s3.09-1.39,3.09-3.09s-1.39-3.09-3.09-3.09
		S1832.45,44.07,1832.45,45.78z M1837.63,45.78c0,1.15-0.94,2.09-2.09,2.09s-2.09-0.94-2.09-2.09s0.94-2.09,2.09-2.09
		S1837.63,44.63,1837.63,45.78z"/>
	<path class="st0" d="M1876.08,45.78c0,1.7,1.39,3.09,3.09,3.09s3.09-1.39,3.09-3.09s-1.39-3.09-3.09-3.09
		S1876.08,44.07,1876.08,45.78z M1881.26,45.78c0,1.15-0.94,2.09-2.09,2.09c-1.15,0-2.09-0.94-2.09-2.09s0.94-2.09,2.09-2.09
		C1880.32,43.69,1881.26,44.63,1881.26,45.78z"/>
	<path class="st0" d="M1919.71,45.78c0,1.7,1.39,3.09,3.09,3.09s3.09-1.39,3.09-3.09s-1.39-3.09-3.09-3.09
		S1919.71,44.07,1919.71,45.78z M1924.89,45.78c0,1.15-0.94,2.09-2.09,2.09s-2.09-0.94-2.09-2.09s0.94-2.09,2.09-2.09
		S1924.89,44.63,1924.89,45.78z"/>
</g>
</svg>
