<?xml version="1.0" encoding="utf-8"?>
<!-- Generator: Adobe Illustrator 24.0.0, SVG Export Plug-In . SVG Version: 6.00 Build 0)  -->
<svg version="1.1" id="Layer_1" xmlns="http://www.w3.org/2000/svg" xmlns:xlink="http://www.w3.org/1999/xlink" x="0px" y="0px"
	 viewBox="0 0 1925.16 72.99" style="enable-background:new 0 0 1925.16 72.99;" xml:space="preserve">
<style type="text/css">
	.st0{fill:#C46449;}
</style>
<g>
	<rect x="10.91" y="37.49" class="st0" width="1" height="13.63"/>
	<rect x="98.17" y="37.49" class="st0" width="1" height="13.63"/>
	<rect x="185.42" y="37.49" class="st0" width="1" height="13.63"/>
	<rect x="272.68" y="37.49" class="st0" width="1" height="13.63"/>
	<rect x="359.94" y="37.49" class="st0" width="1" height="13.63"/>
	<rect x="447.2" y="37.49" class="st0" width="1" height="13.63"/>
	<rect x="534.46" y="37.49" class="st0" width="1" height="13.63"/>
	<rect x="621.72" y="37.49" class="st0" width="1" height="13.63"/>
	<rect x="708.98" y="37.49" class="st0" width="1" height="13.63"/>
	<rect x="796.24" y="37.49" class="st0" width="1" height="13.63"/>
	<rect x="883.5" y="37.49" class="st0" width="1" height="13.63"/>
	<rect x="54.54" y="27.54" class="st0" width="1" height="13.63"/>
	<rect x="141.8" y="27.54" class="st0" width="1" height="13.63"/>
	<rect x="229.05" y="27.54" class="st0" width="1" height="13.63"/>
	<rect x="316.31" y="27.54" class="st0" width="1" height="13.63"/>
	<rect x="403.57" y="27.54" class="st0" width="1" height="13.63"/>
	<rect x="490.83" y="27.54" class="st0" width="1" height="13.63"/>
	<rect x="578.09" y="27.54" class="st0" width="1" height="13.63"/>
	<rect x="665.35" y="27.54" class="st0" width="1" height="13.63"/>
	<rect x="752.61" y="27.54" class="st0" width="1" height="13.63"/>
	<rect x="839.87" y="27.54" class="st0" width="1" height="13.63"/>
	<rect x="927.13" y="27.54" class="st0" width="1" height="13.63"/>
	<path class="st0" d="M30.13,41.17c0,1.7,1.39,3.09,3.09,3.09s3.09-1.39,3.09-3.09s-1.39-3.09-3.09-3.09S30.13,39.47,30.13,41.17z
		 M35.31,41.17c0,1.15-0.94,2.09-2.09,2.09s-2.09-0.94-2.09-2.09s0.94-2.09,2.09-2.09S35.31,40.02,35.31,41.17z"/>
	<path class="st0" d="M73.76,41.17c0,1.7,1.39,3.09,3.09,3.09s3.09-1.39,3.09-3.09s-1.39-3.09-3.09-3.09S73.76,39.47,73.76,41.17z
		 M78.94,41.17c0,1.15-0.94,2.09-2.09,2.09s-2.09-0.94-2.09-2.09s0.94-2.09,2.09-2.09S78.94,40.02,78.94,41.17z"/>
	<path class="st0" d="M117.39,41.17c0,1.7,1.39,3.09,3.09,3.09s3.09-1.39,3.09-3.09s-1.39-3.09-3.09-3.09S117.39,39.47,117.39,41.17
		z M122.57,41.17c0,1.15-0.94,2.09-2.09,2.09s-2.09-0.94-2.09-2.09s0.94-2.09,2.09-2.09S122.57,40.02,122.57,41.17z"/>
	<path class="st0" d="M161.02,41.17c0,1.7,1.39,3.09,3.09,3.09s3.09-1.39,3.09-3.09s-1.39-3.09-3.09-3.09S161.02,39.47,161.02,41.17
		z M166.2,41.17c0,1.15-0.94,2.09-2.09,2.09s-2.09-0.94-2.09-2.09s0.94-2.09,2.09-2.09S166.2,40.02,166.2,41.17z"/>
	<path class="st0" d="M204.65,41.17c0,1.7,1.39,3.09,3.09,3.09s3.09-1.39,3.09-3.09s-1.39-3.09-3.09-3.09S204.65,39.47,204.65,41.17
		z M209.83,41.17c0,1.15-0.94,2.09-2.09,2.09s-2.09-0.94-2.09-2.09s0.94-2.09,2.09-2.09S209.83,40.02,209.83,41.17z"/>
	<path class="st0" d="M248.28,41.17c0,1.7,1.39,3.09,3.09,3.09s3.09-1.39,3.09-3.09s-1.39-3.09-3.09-3.09S248.28,39.47,248.28,41.17
		z M253.46,41.17c0,1.15-0.94,2.09-2.09,2.09s-2.09-0.94-2.09-2.09s0.94-2.09,2.09-2.09S253.46,40.02,253.46,41.17z"/>
	<path class="st0" d="M291.91,41.17c0,1.7,1.39,3.09,3.09,3.09s3.09-1.39,3.09-3.09s-1.39-3.09-3.09-3.09S291.91,39.47,291.91,41.17
		z M297.09,41.17c0,1.15-0.94,2.09-2.09,2.09s-2.09-0.94-2.09-2.09s0.94-2.09,2.09-2.09S297.09,40.02,297.09,41.17z"/>
	<path class="st0" d="M335.54,41.17c0,1.7,1.39,3.09,3.09,3.09s3.09-1.39,3.09-3.09s-1.39-3.09-3.09-3.09S335.54,39.47,335.54,41.17
		z M340.72,41.17c0,1.15-0.94,2.09-2.09,2.09s-2.09-0.94-2.09-2.09s0.94-2.09,2.09-2.09S340.72,40.02,340.72,41.17z"/>
	<path class="st0" d="M379.17,41.17c0,1.7,1.39,3.09,3.09,3.09s3.09-1.39,3.09-3.09s-1.39-3.09-3.09-3.09S379.17,39.47,379.17,41.17
		z M384.35,41.17c0,1.15-0.94,2.09-2.09,2.09s-2.09-0.94-2.09-2.09s0.94-2.09,2.09-2.09S384.35,40.02,384.35,41.17z"/>
	<path class="st0" d="M422.8,41.17c0,1.7,1.39,3.09,3.09,3.09s3.09-1.39,3.09-3.09s-1.39-3.09-3.09-3.09S422.8,39.47,422.8,41.17z
		 M427.98,41.17c0,1.15-0.94,2.09-2.09,2.09s-2.09-0.94-2.09-2.09s0.94-2.09,2.09-2.09S427.98,40.02,427.98,41.17z"/>
	<path class="st0" d="M466.43,41.17c0,1.7,1.39,3.09,3.09,3.09s3.09-1.39,3.09-3.09s-1.39-3.09-3.09-3.09S466.43,39.47,466.43,41.17
		z M471.61,41.17c0,1.15-0.94,2.09-2.09,2.09s-2.09-0.94-2.09-2.09s0.94-2.09,2.09-2.09S471.61,40.02,471.61,41.17z"/>
	<path class="st0" d="M510.06,41.17c0,1.7,1.39,3.09,3.09,3.09s3.09-1.39,3.09-3.09s-1.39-3.09-3.09-3.09S510.06,39.47,510.06,41.17
		z M515.24,41.17c0,1.15-0.94,2.09-2.09,2.09s-2.09-0.94-2.09-2.09s0.94-2.09,2.09-2.09S515.24,40.02,515.24,41.17z"/>
	<path class="st0" d="M553.68,41.17c0,1.7,1.39,3.09,3.09,3.09s3.09-1.39,3.09-3.09s-1.39-3.09-3.09-3.09S553.68,39.47,553.68,41.17
		z M558.87,41.17c0,1.15-0.94,2.09-2.09,2.09s-2.09-0.94-2.09-2.09s0.94-2.09,2.09-2.09S558.87,40.02,558.87,41.17z"/>
	<path class="st0" d="M597.31,41.17c0,1.7,1.39,3.09,3.09,3.09s3.09-1.39,3.09-3.09s-1.39-3.09-3.09-3.09S597.31,39.47,597.31,41.17
		z M602.49,41.17c0,1.15-0.94,2.09-2.09,2.09s-2.09-0.94-2.09-2.09s0.94-2.09,2.09-2.09S602.49,40.02,602.49,41.17z"/>
	<path class="st0" d="M640.94,41.17c0,1.7,1.39,3.09,3.09,3.09s3.09-1.39,3.09-3.09s-1.39-3.09-3.09-3.09S640.94,39.47,640.94,41.17
		z M646.12,41.17c0,1.15-0.94,2.09-2.09,2.09s-2.09-0.94-2.09-2.09s0.94-2.09,2.09-2.09S646.12,40.02,646.12,41.17z"/>
	<path class="st0" d="M684.57,41.17c0,1.7,1.39,3.09,3.09,3.09s3.09-1.39,3.09-3.09s-1.39-3.09-3.09-3.09S684.57,39.47,684.57,41.17
		z M689.75,41.17c0,1.15-0.94,2.09-2.09,2.09s-2.09-0.94-2.09-2.09s0.94-2.09,2.09-2.09S689.75,40.02,689.75,41.17z"/>
	<path class="st0" d="M728.2,41.17c0,1.7,1.39,3.09,3.09,3.09s3.09-1.39,3.09-3.09s-1.39-3.09-3.09-3.09S728.2,39.47,728.2,41.17z
		 M733.38,41.17c0,1.15-0.94,2.09-2.09,2.09s-2.09-0.94-2.09-2.09s0.94-2.09,2.09-2.09S733.38,40.02,733.38,41.17z"/>
	<path class="st0" d="M771.83,41.17c0,1.7,1.39,3.09,3.09,3.09s3.09-1.39,3.09-3.09s-1.39-3.09-3.09-3.09S771.83,39.47,771.83,41.17
		z M777.01,41.17c0,1.15-0.94,2.09-2.09,2.09s-2.09-0.94-2.09-2.09s0.94-2.09,2.09-2.09S777.01,40.02,777.01,41.17z"/>
	<path class="st0" d="M815.46,41.17c0,1.7,1.39,3.09,3.09,3.09s3.09-1.39,3.09-3.09s-1.39-3.09-3.09-3.09S815.46,39.47,815.46,41.17
		z M820.64,41.17c0,1.15-0.94,2.09-2.09,2.09s-2.09-0.94-2.09-2.09s0.94-2.09,2.09-2.09S820.64,40.02,820.64,41.17z"/>
	<path class="st0" d="M859.09,41.17c0,1.7,1.39,3.09,3.09,3.09s3.09-1.39,3.09-3.09s-1.39-3.09-3.09-3.09S859.09,39.47,859.09,41.17
		z M864.27,41.17c0,1.15-0.94,2.09-2.09,2.09s-2.09-0.94-2.09-2.09s0.94-2.09,2.09-2.09S864.27,40.02,864.27,41.17z"/>
	<path class="st0" d="M902.72,41.17c0,1.7,1.39,3.09,3.09,3.09s3.09-1.39,3.09-3.09s-1.39-3.09-3.09-3.09S902.72,39.47,902.72,41.17
		z M907.9,41.17c0,1.15-0.94,2.09-2.09,2.09s-2.09-0.94-2.09-2.09s0.94-2.09,2.09-2.09S907.9,40.02,907.9,41.17z"/>
	<path class="st0" d="M946.35,41.17c0,1.7,1.39,3.09,3.09,3.09s3.09-1.39,3.09-3.09s-1.39-3.09-3.09-3.09S946.35,39.47,946.35,41.17
		z M951.53,41.17c0,1.15-0.94,2.09-2.09,2.09s-2.09-0.94-2.09-2.09s0.94-2.09,2.09-2.09S951.53,40.02,951.53,41.17z"/>
	<polygon class="st0" points="1919,21.68 1919,52.81 1898.19,52.81 1898.19,21.68 1898.19,21.18 1875.37,21.18 1875.37,21.68 
		1875.37,52.81 1854.56,52.81 1854.56,21.68 1854.56,21.18 1831.74,21.18 1831.74,21.68 1831.74,52.81 1810.93,52.81 1810.93,21.68 
		1810.93,21.18 1788.11,21.18 1788.11,21.68 1788.11,52.81 1767.3,52.81 1767.3,21.68 1767.3,21.18 1744.48,21.18 1744.48,21.68 
		1744.48,52.81 1723.67,52.81 1723.67,21.68 1723.67,21.18 1700.85,21.18 1700.85,21.68 1700.85,52.81 1680.04,52.81 1680.04,21.68 
		1680.04,21.18 1657.22,21.18 1657.22,21.68 1657.22,52.81 1636.41,52.81 1636.41,21.68 1636.41,21.18 1613.59,21.18 1613.59,21.68 
		1613.59,52.81 1592.78,52.81 1592.78,21.68 1592.78,21.18 1569.96,21.18 1569.96,21.68 1569.96,52.81 1549.15,52.81 1549.15,21.68 
		1549.15,21.18 1526.33,21.18 1526.33,21.68 1526.33,52.81 1505.52,52.81 1505.52,21.68 1505.52,21.18 1482.71,21.18 1482.71,21.68 
		1482.71,52.81 1461.89,52.81 1461.89,21.68 1461.89,21.18 1439.08,21.18 1439.08,21.68 1439.08,52.81 1418.26,52.81 1418.26,21.68 
		1418.26,21.18 1395.45,21.18 1395.45,21.68 1395.45,52.81 1374.63,52.81 1374.63,21.68 1374.63,21.18 1351.82,21.18 1351.82,21.68 
		1351.82,52.81 1331,52.81 1331,21.68 1331,21.18 1308.19,21.18 1308.19,21.68 1308.19,52.81 1287.37,52.81 1287.37,21.68 
		1287.37,21.18 1264.56,21.18 1264.56,21.68 1264.56,52.81 1243.74,52.81 1243.74,21.68 1243.74,21.18 1220.93,21.18 1220.93,21.68 
		1220.93,52.81 1200.12,52.81 1200.12,21.68 1200.12,21.18 1177.3,21.18 1177.3,21.68 1177.3,52.81 1156.49,52.81 1156.49,21.68 
		1156.49,21.18 1133.67,21.18 1133.67,21.68 1133.67,52.81 1112.86,52.81 1112.86,21.68 1112.86,21.18 1090.04,21.18 1090.04,21.68 
		1090.04,52.81 1069.23,52.81 1069.23,21.68 1069.23,21.18 1046.41,21.18 1046.41,21.68 1046.41,52.81 1025.6,52.81 1025.6,21.68 
		1025.6,21.18 1002.78,21.18 1002.78,21.68 1002.78,52.81 981.97,52.81 981.97,21.68 981.97,21.18 959.15,21.18 959.15,52.81 
		939.03,52.81 939.03,21.68 939.03,21.18 916.22,21.18 916.22,21.68 916.22,52.81 895.4,52.81 895.4,21.68 895.4,21.18 
		872.59,21.18 872.59,21.68 872.59,52.81 851.77,52.81 851.77,21.68 851.77,21.18 828.96,21.18 828.96,21.68 828.96,52.81 
		808.14,52.81 808.14,21.68 808.14,21.18 785.33,21.18 785.33,21.68 785.33,52.81 764.51,52.81 764.51,21.68 764.51,21.18 
		741.7,21.18 741.7,21.68 741.7,52.81 720.89,52.81 720.89,21.68 720.89,21.18 698.07,21.18 698.07,21.68 698.07,52.81 
		677.26,52.81 677.26,21.68 677.26,21.18 654.44,21.18 654.44,21.68 654.44,52.81 633.63,52.81 633.63,21.68 633.63,21.18 
		610.81,21.18 610.81,21.68 610.81,52.81 590,52.81 590,21.68 590,21.18 567.18,21.18 567.18,21.68 567.18,52.81 546.37,52.81 
		546.37,21.68 546.37,21.18 523.55,21.18 523.55,21.68 523.55,52.81 502.74,52.81 502.74,21.68 502.74,21.18 479.92,21.18 
		479.92,21.68 479.92,52.81 459.11,52.81 459.11,21.68 459.11,21.18 436.29,21.18 436.29,21.68 436.29,52.81 415.48,52.81 
		415.48,21.68 415.48,21.18 392.66,21.18 392.66,21.68 392.66,52.81 371.85,52.81 371.85,21.68 371.85,21.18 349.04,21.18 
		349.04,21.68 349.04,52.81 328.22,52.81 328.22,21.68 328.22,21.18 305.41,21.18 305.41,21.68 305.41,52.81 284.59,52.81 
		284.59,21.68 284.59,21.18 261.78,21.18 261.78,21.68 261.78,52.81 240.96,52.81 240.96,21.68 240.96,21.18 218.15,21.18 
		218.15,21.68 218.15,52.81 197.33,52.81 197.33,21.68 197.33,21.18 174.52,21.18 174.52,21.68 174.52,52.81 153.7,52.81 
		153.7,21.68 153.7,21.18 130.89,21.18 130.89,21.68 130.89,52.81 110.07,52.81 110.07,21.68 110.07,21.18 87.26,21.18 87.26,21.68 
		87.26,52.81 66.44,52.81 66.44,21.68 66.44,21.18 43.63,21.18 43.63,21.68 43.63,52.81 22.81,52.81 22.81,21.68 22.81,21.18 
		0,21.18 0,53.31 1,53.31 1,22.18 21.81,22.18 21.81,53.31 21.81,53.81 44.63,53.81 44.63,53.31 44.63,22.18 65.44,22.18 
		65.44,53.31 65.44,53.81 88.26,53.81 88.26,53.31 88.26,22.18 109.07,22.18 109.07,53.31 109.07,53.81 131.89,53.81 131.89,53.31 
		131.89,22.18 152.7,22.18 152.7,53.31 152.7,53.81 175.52,53.81 175.52,53.31 175.52,22.18 196.33,22.18 196.33,53.31 
		196.33,53.81 219.15,53.81 219.15,53.31 219.15,22.18 239.96,22.18 239.96,53.31 239.96,53.81 262.78,53.81 262.78,53.31 
		262.78,22.18 283.59,22.18 283.59,53.31 283.59,53.81 306.41,53.81 306.41,53.31 306.41,22.18 327.22,22.18 327.22,53.31 
		327.22,53.81 350.04,53.81 350.04,53.31 350.04,22.18 370.85,22.18 370.85,53.31 370.85,53.81 393.66,53.81 393.66,53.31 
		393.66,22.18 414.48,22.18 414.48,53.31 414.48,53.81 437.29,53.81 437.29,53.31 437.29,22.18 458.11,22.18 458.11,53.31 
		458.11,53.81 480.92,53.81 480.92,53.31 480.92,22.18 501.74,22.18 501.74,53.31 501.74,53.81 524.55,53.81 524.55,53.31 
		524.55,22.18 545.37,22.18 545.37,53.31 545.37,53.81 568.18,53.81 568.18,53.31 568.18,22.18 589,22.18 589,53.31 589,53.81 
		611.81,53.81 611.81,53.31 611.81,22.18 632.63,22.18 632.63,53.31 632.63,53.81 655.44,53.81 655.44,53.31 655.44,22.18 
		676.26,22.18 676.26,53.31 676.26,53.81 699.07,53.81 699.07,53.31 699.07,22.18 719.89,22.18 719.89,53.31 719.89,53.81 
		742.7,53.81 742.7,53.31 742.7,22.18 763.51,22.18 763.51,53.31 763.51,53.81 786.33,53.81 786.33,53.31 786.33,22.18 
		807.14,22.18 807.14,53.31 807.14,53.81 829.96,53.81 829.96,53.31 829.96,22.18 850.77,22.18 850.77,53.31 850.77,53.81 
		873.59,53.81 873.59,53.31 873.59,22.18 894.4,22.18 894.4,53.31 894.4,53.81 917.22,53.81 917.22,53.31 917.22,22.18 
		938.03,22.18 938.03,53.31 938.03,53.81 960.85,53.81 960.85,22.18 980.97,22.18 980.97,53.31 980.97,53.81 1003.78,53.81 
		1003.78,53.31 1003.78,22.18 1024.6,22.18 1024.6,53.31 1024.6,53.81 1047.41,53.81 1047.41,53.31 1047.41,22.18 1068.23,22.18 
		1068.23,53.31 1068.23,53.81 1091.04,53.81 1091.04,53.31 1091.04,22.18 1111.86,22.18 1111.86,53.31 1111.86,53.81 1134.67,53.81 
		1134.67,53.31 1134.67,22.18 1155.49,22.18 1155.49,53.31 1155.49,53.81 1178.3,53.81 1178.3,53.31 1178.3,22.18 1199.12,22.18 
		1199.12,53.31 1199.12,53.81 1221.93,53.81 1221.93,53.31 1221.93,22.18 1242.74,22.18 1242.74,53.31 1242.74,53.81 1265.56,53.81 
		1265.56,53.31 1265.56,22.18 1286.37,22.18 1286.37,53.31 1286.37,53.81 1309.19,53.81 1309.19,53.31 1309.19,22.18 1330,22.18 
		1330,53.31 1330,53.81 1352.82,53.81 1352.82,53.31 1352.82,22.18 1373.63,22.18 1373.63,53.31 1373.63,53.81 1396.45,53.81 
		1396.45,53.31 1396.45,22.18 1417.26,22.18 1417.26,53.31 1417.26,53.81 1440.08,53.81 1440.08,53.31 1440.08,22.18 1460.89,22.18 
		1460.89,53.31 1460.89,53.81 1483.71,53.81 1483.71,53.31 1483.71,22.18 1504.52,22.18 1504.52,53.31 1504.52,53.81 1527.33,53.81 
		1527.33,53.31 1527.33,22.18 1548.15,22.18 1548.15,53.31 1548.15,53.81 1570.96,53.81 1570.96,53.31 1570.96,22.18 1591.78,22.18 
		1591.78,53.31 1591.78,53.81 1614.59,53.81 1614.59,53.31 1614.59,22.18 1635.41,22.18 1635.41,53.31 1635.41,53.81 1658.22,53.81 
		1658.22,53.31 1658.22,22.18 1679.04,22.18 1679.04,53.31 1679.04,53.81 1701.85,53.81 1701.85,53.31 1701.85,22.18 1722.67,22.18 
		1722.67,53.31 1722.67,53.81 1745.48,53.81 1745.48,53.31 1745.48,22.18 1766.3,22.18 1766.3,53.31 1766.3,53.81 1789.11,53.81 
		1789.11,53.31 1789.11,22.18 1809.93,22.18 1809.93,53.31 1809.93,53.81 1832.74,53.81 1832.74,53.31 1832.74,22.18 1853.56,22.18 
		1853.56,53.31 1853.56,53.81 1876.37,53.81 1876.37,53.31 1876.37,22.18 1897.19,22.18 1897.19,53.31 1897.19,53.81 1920,53.81 
		1920,21.68 	"/>
	<polygon class="st0" points="960.35,7.73 1919.5,7.73 1919.5,6.73 960.35,6.73 959.65,6.73 0.5,6.73 0.5,7.73 959.65,7.73 	"/>
	<polygon class="st0" points="960.35,2 1919.5,2 1919.5,1 960.35,1 959.65,1 0.5,1 0.5,2 959.65,2 	"/>
	<polygon class="st0" points="959.65,72.99 0.5,72.99 0.5,73.99 959.65,73.99 960.35,73.99 1919.5,73.99 1919.5,72.99 960.35,72.99 
			"/>
	<polygon class="st0" points="959.65,67.26 0.5,67.26 0.5,68.26 959.65,68.26 960.35,68.26 1919.5,68.26 1919.5,67.26 960.35,67.26 
			"/>
	<rect x="970.06" y="37.49" class="st0" width="1" height="13.63"/>
	<rect x="1057.32" y="37.49" class="st0" width="1" height="13.63"/>
	<rect x="1144.58" y="37.49" class="st0" width="1" height="13.63"/>
	<rect x="1231.84" y="37.49" class="st0" width="1" height="13.63"/>
	<rect x="1319.1" y="37.49" class="st0" width="1" height="13.63"/>
	<rect x="1406.35" y="37.49" class="st0" width="1" height="13.63"/>
	<rect x="1493.61" y="37.49" class="st0" width="1" height="13.63"/>
	<rect x="1580.87" y="37.49" class="st0" width="1" height="13.63"/>
	<rect x="1668.13" y="37.49" class="st0" width="1" height="13.63"/>
	<rect x="1755.39" y="37.49" class="st0" width="1" height="13.63"/>
	<rect x="1842.65" y="37.49" class="st0" width="1" height="13.63"/>
	<rect x="1013.69" y="27.54" class="st0" width="1" height="13.63"/>
	<rect x="1100.95" y="27.54" class="st0" width="1" height="13.63"/>
	<rect x="1188.21" y="27.54" class="st0" width="1" height="13.63"/>
	<rect x="1275.47" y="27.54" class="st0" width="1" height="13.63"/>
	<rect x="1362.72" y="27.54" class="st0" width="1" height="13.63"/>
	<rect x="1449.98" y="27.54" class="st0" width="1" height="13.63"/>
	<rect x="1537.24" y="27.54" class="st0" width="1" height="13.63"/>
	<rect x="1624.5" y="27.54" class="st0" width="1" height="13.63"/>
	<rect x="1711.76" y="27.54" class="st0" width="1" height="13.63"/>
	<rect x="1799.02" y="27.54" class="st0" width="1" height="13.63"/>
	<rect x="1886.28" y="27.54" class="st0" width="1" height="13.63"/>
	<path class="st0" d="M989.28,41.17c0,1.7,1.39,3.09,3.09,3.09s3.09-1.39,3.09-3.09s-1.39-3.09-3.09-3.09S989.28,39.47,989.28,41.17
		z M994.47,41.17c0,1.15-0.94,2.09-2.09,2.09s-2.09-0.94-2.09-2.09s0.94-2.09,2.09-2.09S994.47,40.02,994.47,41.17z"/>
	<path class="st0" d="M1032.91,41.17c0,1.7,1.39,3.09,3.09,3.09s3.09-1.39,3.09-3.09s-1.39-3.09-3.09-3.09
		S1032.91,39.47,1032.91,41.17z M1038.09,41.17c0,1.15-0.94,2.09-2.09,2.09c-1.15,0-2.09-0.94-2.09-2.09s0.94-2.09,2.09-2.09
		C1037.16,39.08,1038.09,40.02,1038.09,41.17z"/>
	<path class="st0" d="M1076.54,41.17c0,1.7,1.39,3.09,3.09,3.09s3.09-1.39,3.09-3.09s-1.39-3.09-3.09-3.09
		S1076.54,39.47,1076.54,41.17z M1081.72,41.17c0,1.15-0.94,2.09-2.09,2.09s-2.09-0.94-2.09-2.09s0.94-2.09,2.09-2.09
		S1081.72,40.02,1081.72,41.17z"/>
	<path class="st0" d="M1120.17,41.17c0,1.7,1.39,3.09,3.09,3.09s3.09-1.39,3.09-3.09s-1.39-3.09-3.09-3.09
		S1120.17,39.47,1120.17,41.17z M1125.35,41.17c0,1.15-0.94,2.09-2.09,2.09c-1.15,0-2.09-0.94-2.09-2.09s0.94-2.09,2.09-2.09
		C1124.42,39.08,1125.35,40.02,1125.35,41.17z"/>
	<path class="st0" d="M1163.8,41.17c0,1.7,1.39,3.09,3.09,3.09s3.09-1.39,3.09-3.09s-1.39-3.09-3.09-3.09S1163.8,39.47,1163.8,41.17
		z M1168.98,41.17c0,1.15-0.94,2.09-2.09,2.09s-2.09-0.94-2.09-2.09s0.94-2.09,2.09-2.09S1168.98,40.02,1168.98,41.17z"/>
	<path class="st0" d="M1207.43,41.17c0,1.7,1.39,3.09,3.09,3.09s3.09-1.39,3.09-3.09s-1.39-3.09-3.09-3.09
		S1207.43,39.47,1207.43,41.17z M1212.61,41.17c0,1.15-0.94,2.09-2.09,2.09c-1.15,0-2.09-0.94-2.09-2.09s0.94-2.09,2.09-2.09
		C1211.67,39.08,1212.61,40.02,1212.61,41.17z"/>
	<path class="st0" d="M1251.06,41.17c0,1.7,1.39,3.09,3.09,3.09s3.09-1.39,3.09-3.09s-1.39-3.09-3.09-3.09
		S1251.06,39.47,1251.06,41.17z M1256.24,41.17c0,1.15-0.94,2.09-2.09,2.09c-1.15,0-2.09-0.94-2.09-2.09s0.94-2.09,2.09-2.09
		C1255.3,39.08,1256.24,40.02,1256.24,41.17z"/>
	<path class="st0" d="M1294.69,41.17c0,1.7,1.39,3.09,3.09,3.09s3.09-1.39,3.09-3.09s-1.39-3.09-3.09-3.09
		S1294.69,39.47,1294.69,41.17z M1299.87,41.17c0,1.15-0.94,2.09-2.09,2.09c-1.15,0-2.09-0.94-2.09-2.09s0.94-2.09,2.09-2.09
		C1298.93,39.08,1299.87,40.02,1299.87,41.17z"/>
	<path class="st0" d="M1338.32,41.17c0,1.7,1.39,3.09,3.09,3.09s3.09-1.39,3.09-3.09s-1.39-3.09-3.09-3.09
		S1338.32,39.47,1338.32,41.17z M1343.5,41.17c0,1.15-0.94,2.09-2.09,2.09c-1.15,0-2.09-0.94-2.09-2.09s0.94-2.09,2.09-2.09
		C1342.56,39.08,1343.5,40.02,1343.5,41.17z"/>
	<path class="st0" d="M1381.95,41.17c0,1.7,1.39,3.09,3.09,3.09s3.09-1.39,3.09-3.09s-1.39-3.09-3.09-3.09
		S1381.95,39.47,1381.95,41.17z M1387.13,41.17c0,1.15-0.94,2.09-2.09,2.09c-1.15,0-2.09-0.94-2.09-2.09s0.94-2.09,2.09-2.09
		C1386.19,39.08,1387.13,40.02,1387.13,41.17z"/>
	<path class="st0" d="M1425.58,41.17c0,1.7,1.39,3.09,3.09,3.09s3.09-1.39,3.09-3.09s-1.39-3.09-3.09-3.09
		S1425.58,39.47,1425.58,41.17z M1430.76,41.17c0,1.15-0.94,2.09-2.09,2.09c-1.15,0-2.09-0.94-2.09-2.09s0.94-2.09,2.09-2.09
		C1429.82,39.08,1430.76,40.02,1430.76,41.17z"/>
	<path class="st0" d="M1469.21,41.17c0,1.7,1.39,3.09,3.09,3.09s3.09-1.39,3.09-3.09s-1.39-3.09-3.09-3.09
		S1469.21,39.47,1469.21,41.17z M1474.39,41.17c0,1.15-0.94,2.09-2.09,2.09c-1.15,0-2.09-0.94-2.09-2.09s0.94-2.09,2.09-2.09
		C1473.45,39.08,1474.39,40.02,1474.39,41.17z"/>
	<path class="st0" d="M1512.84,41.17c0,1.7,1.39,3.09,3.09,3.09s3.09-1.39,3.09-3.09s-1.39-3.09-3.09-3.09
		S1512.84,39.47,1512.84,41.17z M1518.02,41.17c0,1.15-0.94,2.09-2.09,2.09c-1.15,0-2.09-0.94-2.09-2.09s0.94-2.09,2.09-2.09
		C1517.08,39.08,1518.02,40.02,1518.02,41.17z"/>
	<path class="st0" d="M1556.47,41.17c0,1.7,1.39,3.09,3.09,3.09s3.09-1.39,3.09-3.09s-1.39-3.09-3.09-3.09
		S1556.47,39.47,1556.47,41.17z M1561.65,41.17c0,1.15-0.94,2.09-2.09,2.09c-1.15,0-2.09-0.94-2.09-2.09s0.94-2.09,2.09-2.09
		C1560.71,39.08,1561.65,40.02,1561.65,41.17z"/>
	<path class="st0" d="M1600.1,41.17c0,1.7,1.39,3.09,3.09,3.09s3.09-1.39,3.09-3.09s-1.39-3.09-3.09-3.09S1600.1,39.47,1600.1,41.17
		z M1605.28,41.17c0,1.15-0.94,2.09-2.09,2.09c-1.15,0-2.09-0.94-2.09-2.09s0.94-2.09,2.09-2.09
		C1604.34,39.08,1605.28,40.02,1605.28,41.17z"/>
	<path class="st0" d="M1643.73,41.17c0,1.7,1.39,3.09,3.09,3.09s3.09-1.39,3.09-3.09s-1.39-3.09-3.09-3.09
		S1643.73,39.47,1643.73,41.17z M1648.91,41.17c0,1.15-0.94,2.09-2.09,2.09c-1.15,0-2.09-0.94-2.09-2.09s0.94-2.09,2.09-2.09
		C1647.97,39.08,1648.91,40.02,1648.91,41.17z"/>
	<path class="st0" d="M1687.36,41.17c0,1.7,1.39,3.09,3.09,3.09s3.09-1.39,3.09-3.09s-1.39-3.09-3.09-3.09
		S1687.36,39.47,1687.36,41.17z M1692.54,41.17c0,1.15-0.94,2.09-2.09,2.09c-1.15,0-2.09-0.94-2.09-2.09s0.94-2.09,2.09-2.09
		C1691.6,39.08,1692.54,40.02,1692.54,41.17z"/>
	<path class="st0" d="M1730.98,41.17c0,1.7,1.39,3.09,3.09,3.09s3.09-1.39,3.09-3.09s-1.39-3.09-3.09-3.09
		S1730.98,39.47,1730.98,41.17z M1736.17,41.17c0,1.15-0.94,2.09-2.09,2.09c-1.15,0-2.09-0.94-2.09-2.09s0.94-2.09,2.09-2.09
		C1735.23,39.08,1736.17,40.02,1736.17,41.17z"/>
	<path class="st0" d="M1774.61,41.17c0,1.7,1.39,3.09,3.09,3.09s3.09-1.39,3.09-3.09s-1.39-3.09-3.09-3.09
		S1774.61,39.47,1774.61,41.17z M1779.79,41.17c0,1.15-0.94,2.09-2.09,2.09c-1.15,0-2.09-0.94-2.09-2.09s0.94-2.09,2.09-2.09
		C1778.86,39.08,1779.79,40.02,1779.79,41.17z"/>
	<path class="st0" d="M1818.24,41.17c0,1.7,1.39,3.09,3.09,3.09s3.09-1.39,3.09-3.09s-1.39-3.09-3.09-3.09
		S1818.24,39.47,1818.24,41.17z M1823.42,41.17c0,1.15-0.94,2.09-2.09,2.09s-2.09-0.94-2.09-2.09s0.94-2.09,2.09-2.09
		S1823.42,40.02,1823.42,41.17z"/>
	<path class="st0" d="M1861.87,41.17c0,1.7,1.39,3.09,3.09,3.09s3.09-1.39,3.09-3.09s-1.39-3.09-3.09-3.09
		S1861.87,39.47,1861.87,41.17z M1867.05,41.17c0,1.15-0.94,2.09-2.09,2.09c-1.15,0-2.09-0.94-2.09-2.09s0.94-2.09,2.09-2.09
		C1866.12,39.08,1867.05,40.02,1867.05,41.17z"/>
	<path class="st0" d="M1905.5,41.17c0,1.7,1.39,3.09,3.09,3.09s3.09-1.39,3.09-3.09s-1.39-3.09-3.09-3.09S1905.5,39.47,1905.5,41.17
		z M1910.68,41.17c0,1.15-0.94,2.09-2.09,2.09s-2.09-0.94-2.09-2.09s0.94-2.09,2.09-2.09S1910.68,40.02,1910.68,41.17z"/>
</g>
</svg>
