<svg xmlns="http://www.w3.org/2000/svg" width="28" height="35" viewBox="0 0 28 35"><g><g><path fill="#fff" d="M18.479 14.335c-.033 2.527-2.043 4.526-4.53 4.508-2.444-.018-4.439-2.069-4.432-4.555.012-2.524 2.014-4.537 4.505-4.527 2.486.012 4.49 2.07 4.456 4.574z"/></g><g><path fill="#fff" d="M26.911 11.262c1.015 4.769-.228 8.917-3.51 12.522-3.049 3.345-6.03 6.749-9.023 10.146-.297.337-.426.322-.712 0-3.165-3.562-6.357-7.102-9.526-10.66C1.951 20.818.744 17.594.744 14.3.752 7.619 5.594 1.932 12.085.97c6.8-1.006 13.384 3.539 14.826 10.29zm-5.759 9.566c1.694-1.856 2.461-4.05 2.523-6.514-.037-.616-.069-1.221-.169-1.823-.875-5.27-6.176-8.913-11.38-7.816-4.578.965-7.842 4.992-7.798 9.653.021 2.099.553 4.083 1.918 5.689 2.406 2.832 4.926 5.564 7.386 8.352.284.319.426.356.731.015a771.23 771.23 0 0 1 6.79-7.556z"/></g><g><path fill="#fff" d="M18.479 14.335c-.033 2.527-2.043 4.526-4.53 4.508-2.444-.018-4.439-2.069-4.432-4.555.012-2.524 2.014-4.537 4.505-4.527 2.486.012 4.49 2.07 4.456 4.574z"/></g><g><path fill="#fff" d="M18.479 14.335c-.033 2.527-2.043 4.526-4.53 4.508-2.444-.018-4.439-2.069-4.432-4.555.012-2.524 2.014-4.537 4.505-4.527 2.486.012 4.49 2.07 4.456 4.574z"/></g></g></svg>