<svg xmlns="http://www.w3.org/2000/svg" width="25" height="32" viewBox="0 0 25 32"><g><g><path fill="#a3a3a3" d="M16.628 13.375c-.03 2.341-1.893 4.193-4.196 4.176-2.264-.017-4.113-1.916-4.106-4.22.01-2.338 1.866-4.204 4.173-4.193 2.305.01 4.159 1.916 4.129 4.237z"/></g><g><path fill="#a3a3a3" d="M24.44 10.528c.941 4.417-.21 8.26-3.252 11.6-2.823 3.1-5.586 6.254-8.358 9.4-.276.313-.395.299-.66 0-2.932-3.3-5.888-6.578-8.825-9.875C1.317 19.38.199 16.393.199 13.342.206 7.152 4.69 1.882 10.706.992c6.299-.931 12.399 3.28 13.735 9.536zm-5.335 8.862c1.57-1.72 2.28-3.751 2.338-6.035-.034-.571-.065-1.132-.156-1.69-.812-4.882-5.722-8.256-10.544-7.24-4.241.893-7.265 4.625-7.224 8.944.02 1.943.513 3.782 1.776 5.27 2.23 2.624 4.565 5.155 6.844 7.737.262.296.395.33.677.014a706.716 706.716 0 0 1 6.29-7z"/></g><g><path fill="#a3a3a3" d="M16.628 13.375c-.03 2.341-1.893 4.193-4.196 4.176-2.264-.017-4.113-1.916-4.106-4.22.01-2.338 1.866-4.204 4.173-4.193 2.305.01 4.159 1.916 4.129 4.237z"/></g><g><path fill="#a3a3a3" d="M16.628 13.375c-.03 2.341-1.893 4.193-4.196 4.176-2.264-.017-4.113-1.916-4.106-4.22.01-2.338 1.866-4.204 4.173-4.193 2.305.01 4.159 1.916 4.129 4.237z"/></g></g></svg>