<svg xmlns="http://www.w3.org/2000/svg" width="220" height="204" viewBox="0 0 220 204"><defs><clipPath id="c00za"><path d="M106.927-7.09c-.94.439-1.897.919-2.873 1.444C93.504.023 84.774 5.297 79.046 10.983v45.624c0 7.947 5.103 14.703 12.212 17.165.199-.022.398-.044.595-.068 3.148-.371 6.183-1.013 9.06-1.596 1.441-.293 2.857-.565 4.239-.742a24.899 24.899 0 0 1 3.997-.222c1.275.053 2.442.204 3.526.399a26.66 26.66 0 0 1 2.626.624 25.798 25.798 0 0 1 6.152-1.023c1.273-.04 2.618.041 3.999.222 1.38.177 2.796.449 4.238.742 2.877.583 5.912 1.225 9.059 1.596.198.024.397.046.595.068 7.11-2.462 12.213-9.218 12.213-17.165V11.071c0-10.031-8.13-18.161-18.16-18.161z"/></clipPath><clipPath id="c00zb"><path d="M106.927-7.09c-.94.439-1.897.919-2.873 1.444C93.504.023 84.774 5.297 79.046 10.983v45.624c0 7.947 5.103 14.703 12.212 17.165.199-.022.398-.044.595-.068 3.148-.371 6.183-1.013 9.06-1.596 1.441-.293 2.857-.565 4.239-.742a24.899 24.899 0 0 1 3.997-.222c1.275.053 2.442.204 3.526.399a26.66 26.66 0 0 1 2.626.624 25.798 25.798 0 0 1 6.152-1.023c1.273-.04 2.618.041 3.999.222 1.38.177 2.796.449 4.238.742 2.877.583 5.912 1.225 9.059 1.596.198.024.397.046.595.068 7.11-2.462 12.213-9.218 12.213-17.165V11.071c0-10.031-8.13-18.161-18.16-18.161z"/></clipPath><clipPath id="c00zc"><path d="M106.927-7.09c-.94.439-1.897.919-2.873 1.444C93.504.023 84.774 5.297 79.046 10.983v45.624c0 7.947 5.103 14.703 12.212 17.165.199-.022.398-.044.595-.068 3.148-.371 6.183-1.013 9.06-1.596 1.441-.293 2.857-.565 4.239-.742a24.899 24.899 0 0 1 3.997-.222c1.275.053 2.442.204 3.526.399a26.66 26.66 0 0 1 2.626.624 25.798 25.798 0 0 1 6.152-1.023c1.273-.04 2.618.041 3.999.222 1.38.177 2.796.449 4.238.742 2.877.583 5.912 1.225 9.059 1.596.198.024.397.046.595.068 7.11-2.462 12.213-9.218 12.213-17.165V11.071c0-10.031-8.13-18.161-18.16-18.161z"/></clipPath><clipPath id="c00zd"><path d="M106.927-7.09c-.94.439-1.897.919-2.873 1.444C93.504.023 84.774 5.297 79.046 10.983v45.624c0 7.947 5.103 14.703 12.212 17.165.199-.022.398-.044.595-.068 3.148-.371 6.183-1.013 9.06-1.596 1.441-.293 2.857-.565 4.239-.742a24.899 24.899 0 0 1 3.997-.222c1.275.053 2.442.204 3.526.399a26.66 26.66 0 0 1 2.626.624 25.798 25.798 0 0 1 6.152-1.023c1.273-.04 2.618.041 3.999.222 1.38.177 2.796.449 4.238.742 2.877.583 5.912 1.225 9.059 1.596.198.024.397.046.595.068 7.11-2.462 12.213-9.218 12.213-17.165V11.071c0-10.031-8.13-18.161-18.16-18.161z"/></clipPath><clipPath id="c00ze"><path d="M106.927-7.09c-.94.439-1.897.919-2.873 1.444C93.504.023 84.774 5.297 79.046 10.983v45.624c0 7.947 5.103 14.703 12.212 17.165.199-.022.398-.044.595-.068 3.148-.371 6.183-1.013 9.06-1.596 1.441-.293 2.857-.565 4.239-.742a24.899 24.899 0 0 1 3.997-.222c1.275.053 2.442.204 3.526.399a26.66 26.66 0 0 1 2.626.624 25.798 25.798 0 0 1 6.152-1.023c1.273-.04 2.618.041 3.999.222 1.38.177 2.796.449 4.238.742 2.877.583 5.912 1.225 9.059 1.596.198.024.397.046.595.068 7.11-2.462 12.213-9.218 12.213-17.165V11.071c0-10.031-8.13-18.161-18.16-18.161z"/></clipPath><clipPath id="c00zf"><path d="M106.927-7.09c-.94.439-1.897.919-2.873 1.444C93.504.023 84.774 5.297 79.046 10.983v45.624c0 7.947 5.103 14.703 12.212 17.165.199-.022.398-.044.595-.068 3.148-.371 6.183-1.013 9.06-1.596 1.441-.293 2.857-.565 4.239-.742a24.899 24.899 0 0 1 3.997-.222c1.275.053 2.442.204 3.526.399a26.66 26.66 0 0 1 2.626.624 25.798 25.798 0 0 1 6.152-1.023c1.273-.04 2.618.041 3.999.222 1.38.177 2.796.449 4.238.742 2.877.583 5.912 1.225 9.059 1.596.198.024.397.046.595.068 7.11-2.462 12.213-9.218 12.213-17.165V11.071c0-10.031-8.13-18.161-18.16-18.161z"/></clipPath><clipPath id="c00zg"><path d="M106.927-7.09c-.94.439-1.897.919-2.873 1.444C93.504.023 84.774 5.297 79.046 10.983v45.624c0 7.947 5.103 14.703 12.212 17.165.199-.022.398-.044.595-.068 3.148-.371 6.183-1.013 9.06-1.596 1.441-.293 2.857-.565 4.239-.742a24.899 24.899 0 0 1 3.997-.222c1.275.053 2.442.204 3.526.399a26.66 26.66 0 0 1 2.626.624 25.798 25.798 0 0 1 6.152-1.023c1.273-.04 2.618.041 3.999.222 1.38.177 2.796.449 4.238.742 2.877.583 5.912 1.225 9.059 1.596.198.024.397.046.595.068 7.11-2.462 12.213-9.218 12.213-17.165V11.071c0-10.031-8.13-18.161-18.16-18.161z"/></clipPath><clipPath id="c00zh"><path d="M106.927-7.09c-.94.439-1.897.919-2.873 1.444C93.504.023 84.774 5.297 79.046 10.983v45.624c0 7.947 5.103 14.703 12.212 17.165.199-.022.398-.044.595-.068 3.148-.371 6.183-1.013 9.06-1.596 1.441-.293 2.857-.565 4.239-.742a24.899 24.899 0 0 1 3.997-.222c1.275.053 2.442.204 3.526.399a26.66 26.66 0 0 1 2.626.624 25.798 25.798 0 0 1 6.152-1.023c1.273-.04 2.618.041 3.999.222 1.38.177 2.796.449 4.238.742 2.877.583 5.912 1.225 9.059 1.596.198.024.397.046.595.068 7.11-2.462 12.213-9.218 12.213-17.165V11.071c0-10.031-8.13-18.161-18.16-18.161z"/></clipPath><clipPath id="c00zi"><path d="M106.927-7.09c-.94.439-1.897.919-2.873 1.444C93.504.023 84.774 5.297 79.046 10.983v45.624c0 7.947 5.103 14.703 12.212 17.165.199-.022.398-.044.595-.068 3.148-.371 6.183-1.013 9.06-1.596 1.441-.293 2.857-.565 4.239-.742a24.899 24.899 0 0 1 3.997-.222c1.275.053 2.442.204 3.526.399a26.66 26.66 0 0 1 2.626.624 25.798 25.798 0 0 1 6.152-1.023c1.273-.04 2.618.041 3.999.222 1.38.177 2.796.449 4.238.742 2.877.583 5.912 1.225 9.059 1.596.198.024.397.046.595.068 7.11-2.462 12.213-9.218 12.213-17.165V11.071c0-10.031-8.13-18.161-18.16-18.161z"/></clipPath><clipPath id="c00zj"><path d="M106.927-7.09c-.94.439-1.897.919-2.873 1.444C93.504.023 84.774 5.297 79.046 10.983v45.624c0 7.947 5.103 14.703 12.212 17.165.199-.022.398-.044.595-.068 3.148-.371 6.183-1.013 9.06-1.596 1.441-.293 2.857-.565 4.239-.742a24.899 24.899 0 0 1 3.997-.222c1.275.053 2.442.204 3.526.399a26.66 26.66 0 0 1 2.626.624 25.798 25.798 0 0 1 6.152-1.023c1.273-.04 2.618.041 3.999.222 1.38.177 2.796.449 4.238.742 2.877.583 5.912 1.225 9.059 1.596.198.024.397.046.595.068 7.11-2.462 12.213-9.218 12.213-17.165V11.071c0-10.031-8.13-18.161-18.16-18.161z"/></clipPath><clipPath id="c00zk"><path d="M106.927-7.09c-.94.439-1.897.919-2.873 1.444C93.504.023 84.774 5.297 79.046 10.983v45.624c0 7.947 5.103 14.703 12.212 17.165.199-.022.398-.044.595-.068 3.148-.371 6.183-1.013 9.06-1.596 1.441-.293 2.857-.565 4.239-.742a24.899 24.899 0 0 1 3.997-.222c1.275.053 2.442.204 3.526.399a26.66 26.66 0 0 1 2.626.624 25.798 25.798 0 0 1 6.152-1.023c1.273-.04 2.618.041 3.999.222 1.38.177 2.796.449 4.238.742 2.877.583 5.912 1.225 9.059 1.596.198.024.397.046.595.068 7.11-2.462 12.213-9.218 12.213-17.165V11.071c0-10.031-8.13-18.161-18.16-18.161z"/></clipPath><clipPath id="c00zl"><path d="M106.927-7.09c-.94.439-1.897.919-2.873 1.444C93.504.023 84.774 5.297 79.046 10.983v45.624c0 7.947 5.103 14.703 12.212 17.165.199-.022.398-.044.595-.068 3.148-.371 6.183-1.013 9.06-1.596 1.441-.293 2.857-.565 4.239-.742a24.899 24.899 0 0 1 3.997-.222c1.275.053 2.442.204 3.526.399a26.66 26.66 0 0 1 2.626.624 25.798 25.798 0 0 1 6.152-1.023c1.273-.04 2.618.041 3.999.222 1.38.177 2.796.449 4.238.742 2.877.583 5.912 1.225 9.059 1.596.198.024.397.046.595.068 7.11-2.462 12.213-9.218 12.213-17.165V11.071c0-10.031-8.13-18.161-18.16-18.161z"/></clipPath><clipPath id="c00zm"><path d="M106.927-7.09c-.94.439-1.897.919-2.873 1.444C93.504.023 84.774 5.297 79.046 10.983v45.624c0 7.947 5.103 14.703 12.212 17.165.199-.022.398-.044.595-.068 3.148-.371 6.183-1.013 9.06-1.596 1.441-.293 2.857-.565 4.239-.742a24.899 24.899 0 0 1 3.997-.222c1.275.053 2.442.204 3.526.399a26.66 26.66 0 0 1 2.626.624 25.798 25.798 0 0 1 6.152-1.023c1.273-.04 2.618.041 3.999.222 1.38.177 2.796.449 4.238.742 2.877.583 5.912 1.225 9.059 1.596.198.024.397.046.595.068 7.11-2.462 12.213-9.218 12.213-17.165V11.071c0-10.031-8.13-18.161-18.16-18.161z"/></clipPath><clipPath id="c00zn"><path d="M106.927-7.09c-.94.439-1.897.919-2.873 1.444C93.504.023 84.774 5.297 79.046 10.983v45.624c0 7.947 5.103 14.703 12.212 17.165.199-.022.398-.044.595-.068 3.148-.371 6.183-1.013 9.06-1.596 1.441-.293 2.857-.565 4.239-.742a24.899 24.899 0 0 1 3.997-.222c1.275.053 2.442.204 3.526.399a26.66 26.66 0 0 1 2.626.624 25.798 25.798 0 0 1 6.152-1.023c1.273-.04 2.618.041 3.999.222 1.38.177 2.796.449 4.238.742 2.877.583 5.912 1.225 9.059 1.596.198.024.397.046.595.068 7.11-2.462 12.213-9.218 12.213-17.165V11.071c0-10.031-8.13-18.161-18.16-18.161z"/></clipPath><clipPath id="c00zo"><path d="M106.927-7.09c-.94.439-1.897.919-2.873 1.444C93.504.023 84.774 5.297 79.046 10.983v45.624c0 7.947 5.103 14.703 12.212 17.165.199-.022.398-.044.595-.068 3.148-.371 6.183-1.013 9.06-1.596 1.441-.293 2.857-.565 4.239-.742a24.899 24.899 0 0 1 3.997-.222c1.275.053 2.442.204 3.526.399a26.66 26.66 0 0 1 2.626.624 25.798 25.798 0 0 1 6.152-1.023c1.273-.04 2.618.041 3.999.222 1.38.177 2.796.449 4.238.742 2.877.583 5.912 1.225 9.059 1.596.198.024.397.046.595.068 7.11-2.462 12.213-9.218 12.213-17.165V11.071c0-10.031-8.13-18.161-18.16-18.161z"/></clipPath><clipPath id="c00zp"><path d="M106.927-7.09c-.94.439-1.897.919-2.873 1.444C93.504.023 84.774 5.297 79.046 10.983v45.624c0 7.947 5.103 14.703 12.212 17.165.199-.022.398-.044.595-.068 3.148-.371 6.183-1.013 9.06-1.596 1.441-.293 2.857-.565 4.239-.742a24.899 24.899 0 0 1 3.997-.222c1.275.053 2.442.204 3.526.399a26.66 26.66 0 0 1 2.626.624 25.798 25.798 0 0 1 6.152-1.023c1.273-.04 2.618.041 3.999.222 1.38.177 2.796.449 4.238.742 2.877.583 5.912 1.225 9.059 1.596.198.024.397.046.595.068 7.11-2.462 12.213-9.218 12.213-17.165V11.071c0-10.031-8.13-18.161-18.16-18.161z"/></clipPath><clipPath id="c00zq"><path d="M106.927-7.09c-.94.439-1.897.919-2.873 1.444C93.504.023 84.774 5.297 79.046 10.983v45.624c0 7.947 5.103 14.703 12.212 17.165.199-.022.398-.044.595-.068 3.148-.371 6.183-1.013 9.06-1.596 1.441-.293 2.857-.565 4.239-.742a24.899 24.899 0 0 1 3.997-.222c1.275.053 2.442.204 3.526.399a26.66 26.66 0 0 1 2.626.624 25.798 25.798 0 0 1 6.152-1.023c1.273-.04 2.618.041 3.999.222 1.38.177 2.796.449 4.238.742 2.877.583 5.912 1.225 9.059 1.596.198.024.397.046.595.068 7.11-2.462 12.213-9.218 12.213-17.165V11.071c0-10.031-8.13-18.161-18.16-18.161z"/></clipPath><clipPath id="c00zr"><path d="M106.927-7.09c-.94.439-1.897.919-2.873 1.444C93.504.023 84.774 5.297 79.046 10.983v45.624c0 7.947 5.103 14.703 12.212 17.165.199-.022.398-.044.595-.068 3.148-.371 6.183-1.013 9.06-1.596 1.441-.293 2.857-.565 4.239-.742a24.899 24.899 0 0 1 3.997-.222c1.275.053 2.442.204 3.526.399a26.66 26.66 0 0 1 2.626.624 25.798 25.798 0 0 1 6.152-1.023c1.273-.04 2.618.041 3.999.222 1.38.177 2.796.449 4.238.742 2.877.583 5.912 1.225 9.059 1.596.198.024.397.046.595.068 7.11-2.462 12.213-9.218 12.213-17.165V11.071c0-10.031-8.13-18.161-18.16-18.161z"/></clipPath><clipPath id="c00zs"><path d="M106.927-7.09c-.94.439-1.897.919-2.873 1.444C93.504.023 84.774 5.297 79.046 10.983v45.624c0 7.947 5.103 14.703 12.212 17.165.199-.022.398-.044.595-.068 3.148-.371 6.183-1.013 9.06-1.596 1.441-.293 2.857-.565 4.239-.742a24.899 24.899 0 0 1 3.997-.222c1.275.053 2.442.204 3.526.399a26.66 26.66 0 0 1 2.626.624 25.798 25.798 0 0 1 6.152-1.023c1.273-.04 2.618.041 3.999.222 1.38.177 2.796.449 4.238.742 2.877.583 5.912 1.225 9.059 1.596.198.024.397.046.595.068 7.11-2.462 12.213-9.218 12.213-17.165V11.071c0-10.031-8.13-18.161-18.16-18.161z"/></clipPath><clipPath id="c00zt"><path d="M106.927-7.09c-.94.439-1.897.919-2.873 1.444C93.504.023 84.774 5.297 79.046 10.983v45.624c0 7.947 5.103 14.703 12.212 17.165.199-.022.398-.044.595-.068 3.148-.371 6.183-1.013 9.06-1.596 1.441-.293 2.857-.565 4.239-.742a24.899 24.899 0 0 1 3.997-.222c1.275.053 2.442.204 3.526.399a26.66 26.66 0 0 1 2.626.624 25.798 25.798 0 0 1 6.152-1.023c1.273-.04 2.618.041 3.999.222 1.38.177 2.796.449 4.238.742 2.877.583 5.912 1.225 9.059 1.596.198.024.397.046.595.068 7.11-2.462 12.213-9.218 12.213-17.165V11.071c0-10.031-8.13-18.161-18.16-18.161z"/></clipPath><clipPath id="c00zu"><path d="M106.927-7.09c-.94.439-1.897.919-2.873 1.444C93.504.023 84.774 5.297 79.046 10.983v45.624c0 7.947 5.103 14.703 12.212 17.165.199-.022.398-.044.595-.068 3.148-.371 6.183-1.013 9.06-1.596 1.441-.293 2.857-.565 4.239-.742a24.899 24.899 0 0 1 3.997-.222c1.275.053 2.442.204 3.526.399a26.66 26.66 0 0 1 2.626.624 25.798 25.798 0 0 1 6.152-1.023c1.273-.04 2.618.041 3.999.222 1.38.177 2.796.449 4.238.742 2.877.583 5.912 1.225 9.059 1.596.198.024.397.046.595.068 7.11-2.462 12.213-9.218 12.213-17.165V11.071c0-10.031-8.13-18.161-18.16-18.161z"/></clipPath><clipPath id="c00zv"><path d="M106.927-7.09c-.94.439-1.897.919-2.873 1.444C93.504.023 84.774 5.297 79.046 10.983v45.624c0 7.947 5.103 14.703 12.212 17.165.199-.022.398-.044.595-.068 3.148-.371 6.183-1.013 9.06-1.596 1.441-.293 2.857-.565 4.239-.742a24.899 24.899 0 0 1 3.997-.222c1.275.053 2.442.204 3.526.399a26.66 26.66 0 0 1 2.626.624 25.798 25.798 0 0 1 6.152-1.023c1.273-.04 2.618.041 3.999.222 1.38.177 2.796.449 4.238.742 2.877.583 5.912 1.225 9.059 1.596.198.024.397.046.595.068 7.11-2.462 12.213-9.218 12.213-17.165V11.071c0-10.031-8.13-18.161-18.16-18.161z"/></clipPath><clipPath id="c00zw"><path d="M106.927-7.09c-.94.439-1.897.919-2.873 1.444C93.504.023 84.774 5.297 79.046 10.983v45.624c0 7.947 5.103 14.703 12.212 17.165.199-.022.398-.044.595-.068 3.148-.371 6.183-1.013 9.06-1.596 1.441-.293 2.857-.565 4.239-.742a24.899 24.899 0 0 1 3.997-.222c1.275.053 2.442.204 3.526.399a26.66 26.66 0 0 1 2.626.624 25.798 25.798 0 0 1 6.152-1.023c1.273-.04 2.618.041 3.999.222 1.38.177 2.796.449 4.238.742 2.877.583 5.912 1.225 9.059 1.596.198.024.397.046.595.068 7.11-2.462 12.213-9.218 12.213-17.165V11.071c0-10.031-8.13-18.161-18.16-18.161z"/></clipPath><clipPath id="c00zx"><path d="M106.927-7.09c-.94.439-1.897.919-2.873 1.444C93.504.023 84.774 5.297 79.046 10.983v45.624c0 7.947 5.103 14.703 12.212 17.165.199-.022.398-.044.595-.068 3.148-.371 6.183-1.013 9.06-1.596 1.441-.293 2.857-.565 4.239-.742a24.899 24.899 0 0 1 3.997-.222c1.275.053 2.442.204 3.526.399a26.66 26.66 0 0 1 2.626.624 25.798 25.798 0 0 1 6.152-1.023c1.273-.04 2.618.041 3.999.222 1.38.177 2.796.449 4.238.742 2.877.583 5.912 1.225 9.059 1.596.198.024.397.046.595.068 7.11-2.462 12.213-9.218 12.213-17.165V11.071c0-10.031-8.13-18.161-18.16-18.161z"/></clipPath><clipPath id="c00zy"><path d="M106.927-7.09c-.94.439-1.897.919-2.873 1.444C93.504.023 84.774 5.297 79.046 10.983v45.624c0 7.947 5.103 14.703 12.212 17.165.199-.022.398-.044.595-.068 3.148-.371 6.183-1.013 9.06-1.596 1.441-.293 2.857-.565 4.239-.742a24.899 24.899 0 0 1 3.997-.222c1.275.053 2.442.204 3.526.399a26.66 26.66 0 0 1 2.626.624 25.798 25.798 0 0 1 6.152-1.023c1.273-.04 2.618.041 3.999.222 1.38.177 2.796.449 4.238.742 2.877.583 5.912 1.225 9.059 1.596.198.024.397.046.595.068 7.11-2.462 12.213-9.218 12.213-17.165V11.071c0-10.031-8.13-18.161-18.16-18.161z"/></clipPath><clipPath id="c00zz"><path d="M106.927-7.09c-.94.439-1.897.919-2.873 1.444C93.504.023 84.774 5.297 79.046 10.983v45.624c0 7.947 5.103 14.703 12.212 17.165.199-.022.398-.044.595-.068 3.148-.371 6.183-1.013 9.06-1.596 1.441-.293 2.857-.565 4.239-.742a24.899 24.899 0 0 1 3.997-.222c1.275.053 2.442.204 3.526.399a26.66 26.66 0 0 1 2.626.624 25.798 25.798 0 0 1 6.152-1.023c1.273-.04 2.618.041 3.999.222 1.38.177 2.796.449 4.238.742 2.877.583 5.912 1.225 9.059 1.596.198.024.397.046.595.068 7.11-2.462 12.213-9.218 12.213-17.165V11.071c0-10.031-8.13-18.161-18.16-18.161z"/></clipPath><clipPath id="c00zA"><path d="M106.927-7.09c-.94.439-1.897.919-2.873 1.444C93.504.023 84.774 5.297 79.046 10.983v45.624c0 7.947 5.103 14.703 12.212 17.165.199-.022.398-.044.595-.068 3.148-.371 6.183-1.013 9.06-1.596 1.441-.293 2.857-.565 4.239-.742a24.899 24.899 0 0 1 3.997-.222c1.275.053 2.442.204 3.526.399a26.66 26.66 0 0 1 2.626.624 25.798 25.798 0 0 1 6.152-1.023c1.273-.04 2.618.041 3.999.222 1.38.177 2.796.449 4.238.742 2.877.583 5.912 1.225 9.059 1.596.198.024.397.046.595.068 7.11-2.462 12.213-9.218 12.213-17.165V11.071c0-10.031-8.13-18.161-18.16-18.161z"/></clipPath><clipPath id="c00zB"><path d="M106.927-7.09c-.94.439-1.897.919-2.873 1.444C93.504.023 84.774 5.297 79.046 10.983v45.624c0 7.947 5.103 14.703 12.212 17.165.199-.022.398-.044.595-.068 3.148-.371 6.183-1.013 9.06-1.596 1.441-.293 2.857-.565 4.239-.742a24.899 24.899 0 0 1 3.997-.222c1.275.053 2.442.204 3.526.399a26.66 26.66 0 0 1 2.626.624 25.798 25.798 0 0 1 6.152-1.023c1.273-.04 2.618.041 3.999.222 1.38.177 2.796.449 4.238.742 2.877.583 5.912 1.225 9.059 1.596.198.024.397.046.595.068 7.11-2.462 12.213-9.218 12.213-17.165V11.071c0-10.031-8.13-18.161-18.16-18.161z"/></clipPath><clipPath id="c00zC"><path d="M106.927-7.09c-.94.439-1.897.919-2.873 1.444C93.504.023 84.774 5.297 79.046 10.983v45.624c0 7.947 5.103 14.703 12.212 17.165.199-.022.398-.044.595-.068 3.148-.371 6.183-1.013 9.06-1.596 1.441-.293 2.857-.565 4.239-.742a24.899 24.899 0 0 1 3.997-.222c1.275.053 2.442.204 3.526.399a26.66 26.66 0 0 1 2.626.624 25.798 25.798 0 0 1 6.152-1.023c1.273-.04 2.618.041 3.999.222 1.38.177 2.796.449 4.238.742 2.877.583 5.912 1.225 9.059 1.596.198.024.397.046.595.068 7.11-2.462 12.213-9.218 12.213-17.165V11.071c0-10.031-8.13-18.161-18.16-18.161z"/></clipPath><clipPath id="c00zD"><path d="M106.927-7.09c-.94.439-1.897.919-2.873 1.444C93.504.023 84.774 5.297 79.046 10.983v45.624c0 7.947 5.103 14.703 12.212 17.165.199-.022.398-.044.595-.068 3.148-.371 6.183-1.013 9.06-1.596 1.441-.293 2.857-.565 4.239-.742a24.899 24.899 0 0 1 3.997-.222c1.275.053 2.442.204 3.526.399a26.66 26.66 0 0 1 2.626.624 25.798 25.798 0 0 1 6.152-1.023c1.273-.04 2.618.041 3.999.222 1.38.177 2.796.449 4.238.742 2.877.583 5.912 1.225 9.059 1.596.198.024.397.046.595.068 7.11-2.462 12.213-9.218 12.213-17.165V11.071c0-10.031-8.13-18.161-18.16-18.161z"/></clipPath><clipPath id="c00zE"><path d="M106.927-7.09c-.94.439-1.897.919-2.873 1.444C93.504.023 84.774 5.297 79.046 10.983v45.624c0 7.947 5.103 14.703 12.212 17.165.199-.022.398-.044.595-.068 3.148-.371 6.183-1.013 9.06-1.596 1.441-.293 2.857-.565 4.239-.742a24.899 24.899 0 0 1 3.997-.222c1.275.053 2.442.204 3.526.399a26.66 26.66 0 0 1 2.626.624 25.798 25.798 0 0 1 6.152-1.023c1.273-.04 2.618.041 3.999.222 1.38.177 2.796.449 4.238.742 2.877.583 5.912 1.225 9.059 1.596.198.024.397.046.595.068 7.11-2.462 12.213-9.218 12.213-17.165V11.071c0-10.031-8.13-18.161-18.16-18.161z"/></clipPath><clipPath id="c00zF"><path d="M106.927-7.09c-.94.439-1.897.919-2.873 1.444C93.504.023 84.774 5.297 79.046 10.983v45.624c0 7.947 5.103 14.703 12.212 17.165.199-.022.398-.044.595-.068 3.148-.371 6.183-1.013 9.06-1.596 1.441-.293 2.857-.565 4.239-.742a24.899 24.899 0 0 1 3.997-.222c1.275.053 2.442.204 3.526.399a26.66 26.66 0 0 1 2.626.624 25.798 25.798 0 0 1 6.152-1.023c1.273-.04 2.618.041 3.999.222 1.38.177 2.796.449 4.238.742 2.877.583 5.912 1.225 9.059 1.596.198.024.397.046.595.068 7.11-2.462 12.213-9.218 12.213-17.165V11.071c0-10.031-8.13-18.161-18.16-18.161z"/></clipPath><clipPath id="c00zG"><path d="M106.927-7.09c-.94.439-1.897.919-2.873 1.444C93.504.023 84.774 5.297 79.046 10.983v45.624c0 7.947 5.103 14.703 12.212 17.165.199-.022.398-.044.595-.068 3.148-.371 6.183-1.013 9.06-1.596 1.441-.293 2.857-.565 4.239-.742a24.899 24.899 0 0 1 3.997-.222c1.275.053 2.442.204 3.526.399a26.66 26.66 0 0 1 2.626.624 25.798 25.798 0 0 1 6.152-1.023c1.273-.04 2.618.041 3.999.222 1.38.177 2.796.449 4.238.742 2.877.583 5.912 1.225 9.059 1.596.198.024.397.046.595.068 7.11-2.462 12.213-9.218 12.213-17.165V11.071c0-10.031-8.13-18.161-18.16-18.161z"/></clipPath><clipPath id="c00zH"><path d="M106.927-7.09c-.94.439-1.897.919-2.873 1.444C93.504.023 84.774 5.297 79.046 10.983v45.624c0 7.947 5.103 14.703 12.212 17.165.199-.022.398-.044.595-.068 3.148-.371 6.183-1.013 9.06-1.596 1.441-.293 2.857-.565 4.239-.742a24.899 24.899 0 0 1 3.997-.222c1.275.053 2.442.204 3.526.399a26.66 26.66 0 0 1 2.626.624 25.798 25.798 0 0 1 6.152-1.023c1.273-.04 2.618.041 3.999.222 1.38.177 2.796.449 4.238.742 2.877.583 5.912 1.225 9.059 1.596.198.024.397.046.595.068 7.11-2.462 12.213-9.218 12.213-17.165V11.071c0-10.031-8.13-18.161-18.16-18.161z"/></clipPath><clipPath id="c00zI"><path d="M106.927-7.09c-.94.439-1.897.919-2.873 1.444C93.504.023 84.774 5.297 79.046 10.983v45.624c0 7.947 5.103 14.703 12.212 17.165.199-.022.398-.044.595-.068 3.148-.371 6.183-1.013 9.06-1.596 1.441-.293 2.857-.565 4.239-.742a24.899 24.899 0 0 1 3.997-.222c1.275.053 2.442.204 3.526.399a26.66 26.66 0 0 1 2.626.624 25.798 25.798 0 0 1 6.152-1.023c1.273-.04 2.618.041 3.999.222 1.38.177 2.796.449 4.238.742 2.877.583 5.912 1.225 9.059 1.596.198.024.397.046.595.068 7.11-2.462 12.213-9.218 12.213-17.165V11.071c0-10.031-8.13-18.161-18.16-18.161z"/></clipPath><clipPath id="c00zJ"><path d="M106.927-7.09c-.94.439-1.897.919-2.873 1.444C93.504.023 84.774 5.297 79.046 10.983v45.624c0 7.947 5.103 14.703 12.212 17.165.199-.022.398-.044.595-.068 3.148-.371 6.183-1.013 9.06-1.596 1.441-.293 2.857-.565 4.239-.742a24.899 24.899 0 0 1 3.997-.222c1.275.053 2.442.204 3.526.399a26.66 26.66 0 0 1 2.626.624 25.798 25.798 0 0 1 6.152-1.023c1.273-.04 2.618.041 3.999.222 1.38.177 2.796.449 4.238.742 2.877.583 5.912 1.225 9.059 1.596.198.024.397.046.595.068 7.11-2.462 12.213-9.218 12.213-17.165V11.071c0-10.031-8.13-18.161-18.16-18.161z"/></clipPath><clipPath id="c00zK"><path d="M106.927-7.09c-.94.439-1.897.919-2.873 1.444C93.504.023 84.774 5.297 79.046 10.983v45.624c0 7.947 5.103 14.703 12.212 17.165.199-.022.398-.044.595-.068 3.148-.371 6.183-1.013 9.06-1.596 1.441-.293 2.857-.565 4.239-.742a24.899 24.899 0 0 1 3.997-.222c1.275.053 2.442.204 3.526.399a26.66 26.66 0 0 1 2.626.624 25.798 25.798 0 0 1 6.152-1.023c1.273-.04 2.618.041 3.999.222 1.38.177 2.796.449 4.238.742 2.877.583 5.912 1.225 9.059 1.596.198.024.397.046.595.068 7.11-2.462 12.213-9.218 12.213-17.165V11.071c0-10.031-8.13-18.161-18.16-18.161z"/></clipPath><clipPath id="c00zL"><path d="M106.927-7.09c-.94.439-1.897.919-2.873 1.444C93.504.023 84.774 5.297 79.046 10.983v45.624c0 7.947 5.103 14.703 12.212 17.165.199-.022.398-.044.595-.068 3.148-.371 6.183-1.013 9.06-1.596 1.441-.293 2.857-.565 4.239-.742a24.899 24.899 0 0 1 3.997-.222c1.275.053 2.442.204 3.526.399a26.66 26.66 0 0 1 2.626.624 25.798 25.798 0 0 1 6.152-1.023c1.273-.04 2.618.041 3.999.222 1.38.177 2.796.449 4.238.742 2.877.583 5.912 1.225 9.059 1.596.198.024.397.046.595.068 7.11-2.462 12.213-9.218 12.213-17.165V11.071c0-10.031-8.13-18.161-18.16-18.161z"/></clipPath><clipPath id="c00zM"><path d="M106.927-7.09c-.94.439-1.897.919-2.873 1.444C93.504.023 84.774 5.297 79.046 10.983v45.624c0 7.947 5.103 14.703 12.212 17.165.199-.022.398-.044.595-.068 3.148-.371 6.183-1.013 9.06-1.596 1.441-.293 2.857-.565 4.239-.742a24.899 24.899 0 0 1 3.997-.222c1.275.053 2.442.204 3.526.399a26.66 26.66 0 0 1 2.626.624 25.798 25.798 0 0 1 6.152-1.023c1.273-.04 2.618.041 3.999.222 1.38.177 2.796.449 4.238.742 2.877.583 5.912 1.225 9.059 1.596.198.024.397.046.595.068 7.11-2.462 12.213-9.218 12.213-17.165V11.071c0-10.031-8.13-18.161-18.16-18.161z"/></clipPath><clipPath id="c00zN"><path d="M106.927-7.09c-.94.439-1.897.919-2.873 1.444C93.504.023 84.774 5.297 79.046 10.983v45.624c0 7.947 5.103 14.703 12.212 17.165.199-.022.398-.044.595-.068 3.148-.371 6.183-1.013 9.06-1.596 1.441-.293 2.857-.565 4.239-.742a24.899 24.899 0 0 1 3.997-.222c1.275.053 2.442.204 3.526.399a26.66 26.66 0 0 1 2.626.624 25.798 25.798 0 0 1 6.152-1.023c1.273-.04 2.618.041 3.999.222 1.38.177 2.796.449 4.238.742 2.877.583 5.912 1.225 9.059 1.596.198.024.397.046.595.068 7.11-2.462 12.213-9.218 12.213-17.165V11.071c0-10.031-8.13-18.161-18.16-18.161z"/></clipPath><clipPath id="c00zO"><path d="M106.927-7.09c-.94.439-1.897.919-2.873 1.444C93.504.023 84.774 5.297 79.046 10.983v45.624c0 7.947 5.103 14.703 12.212 17.165.199-.022.398-.044.595-.068 3.148-.371 6.183-1.013 9.06-1.596 1.441-.293 2.857-.565 4.239-.742a24.899 24.899 0 0 1 3.997-.222c1.275.053 2.442.204 3.526.399a26.66 26.66 0 0 1 2.626.624 25.798 25.798 0 0 1 6.152-1.023c1.273-.04 2.618.041 3.999.222 1.38.177 2.796.449 4.238.742 2.877.583 5.912 1.225 9.059 1.596.198.024.397.046.595.068 7.11-2.462 12.213-9.218 12.213-17.165V11.071c0-10.031-8.13-18.161-18.16-18.161z"/></clipPath><clipPath id="c00zP"><path d="M106.927-7.09c-.94.439-1.897.919-2.873 1.444C93.504.023 84.774 5.297 79.046 10.983v45.624c0 7.947 5.103 14.703 12.212 17.165.199-.022.398-.044.595-.068 3.148-.371 6.183-1.013 9.06-1.596 1.441-.293 2.857-.565 4.239-.742a24.899 24.899 0 0 1 3.997-.222c1.275.053 2.442.204 3.526.399a26.66 26.66 0 0 1 2.626.624 25.798 25.798 0 0 1 6.152-1.023c1.273-.04 2.618.041 3.999.222 1.38.177 2.796.449 4.238.742 2.877.583 5.912 1.225 9.059 1.596.198.024.397.046.595.068 7.11-2.462 12.213-9.218 12.213-17.165V11.071c0-10.031-8.13-18.161-18.16-18.161z"/></clipPath><clipPath id="c00zQ"><path d="M106.927-7.09c-.94.439-1.897.919-2.873 1.444C93.504.023 84.774 5.297 79.046 10.983v45.624c0 7.947 5.103 14.703 12.212 17.165.199-.022.398-.044.595-.068 3.148-.371 6.183-1.013 9.06-1.596 1.441-.293 2.857-.565 4.239-.742a24.899 24.899 0 0 1 3.997-.222c1.275.053 2.442.204 3.526.399a26.66 26.66 0 0 1 2.626.624 25.798 25.798 0 0 1 6.152-1.023c1.273-.04 2.618.041 3.999.222 1.38.177 2.796.449 4.238.742 2.877.583 5.912 1.225 9.059 1.596.198.024.397.046.595.068 7.11-2.462 12.213-9.218 12.213-17.165V11.071c0-10.031-8.13-18.161-18.16-18.161z"/></clipPath><clipPath id="c00zR"><path d="M106.927-7.09c-.94.439-1.897.919-2.873 1.444C93.504.023 84.774 5.297 79.046 10.983v45.624c0 7.947 5.103 14.703 12.212 17.165.199-.022.398-.044.595-.068 3.148-.371 6.183-1.013 9.06-1.596 1.441-.293 2.857-.565 4.239-.742a24.899 24.899 0 0 1 3.997-.222c1.275.053 2.442.204 3.526.399a26.66 26.66 0 0 1 2.626.624 25.798 25.798 0 0 1 6.152-1.023c1.273-.04 2.618.041 3.999.222 1.38.177 2.796.449 4.238.742 2.877.583 5.912 1.225 9.059 1.596.198.024.397.046.595.068 7.11-2.462 12.213-9.218 12.213-17.165V11.071c0-10.031-8.13-18.161-18.16-18.161z"/></clipPath><clipPath id="c00zS"><path d="M106.927-7.09c-.94.439-1.897.919-2.873 1.444C93.504.023 84.774 5.297 79.046 10.983v45.624c0 7.947 5.103 14.703 12.212 17.165.199-.022.398-.044.595-.068 3.148-.371 6.183-1.013 9.06-1.596 1.441-.293 2.857-.565 4.239-.742a24.899 24.899 0 0 1 3.997-.222c1.275.053 2.442.204 3.526.399a26.66 26.66 0 0 1 2.626.624 25.798 25.798 0 0 1 6.152-1.023c1.273-.04 2.618.041 3.999.222 1.38.177 2.796.449 4.238.742 2.877.583 5.912 1.225 9.059 1.596.198.024.397.046.595.068 7.11-2.462 12.213-9.218 12.213-17.165V11.071c0-10.031-8.13-18.161-18.16-18.161z"/></clipPath><clipPath id="c00zT"><path d="M106.927-7.09c-.94.439-1.897.919-2.873 1.444C93.504.023 84.774 5.297 79.046 10.983v45.624c0 7.947 5.103 14.703 12.212 17.165.199-.022.398-.044.595-.068 3.148-.371 6.183-1.013 9.06-1.596 1.441-.293 2.857-.565 4.239-.742a24.899 24.899 0 0 1 3.997-.222c1.275.053 2.442.204 3.526.399a26.66 26.66 0 0 1 2.626.624 25.798 25.798 0 0 1 6.152-1.023c1.273-.04 2.618.041 3.999.222 1.38.177 2.796.449 4.238.742 2.877.583 5.912 1.225 9.059 1.596.198.024.397.046.595.068 7.11-2.462 12.213-9.218 12.213-17.165V11.071c0-10.031-8.13-18.161-18.16-18.161z"/></clipPath><clipPath id="c00zU"><path d="M106.927-7.09c-.94.439-1.897.919-2.873 1.444C93.504.023 84.774 5.297 79.046 10.983v45.624c0 7.947 5.103 14.703 12.212 17.165.199-.022.398-.044.595-.068 3.148-.371 6.183-1.013 9.06-1.596 1.441-.293 2.857-.565 4.239-.742a24.899 24.899 0 0 1 3.997-.222c1.275.053 2.442.204 3.526.399a26.66 26.66 0 0 1 2.626.624 25.798 25.798 0 0 1 6.152-1.023c1.273-.04 2.618.041 3.999.222 1.38.177 2.796.449 4.238.742 2.877.583 5.912 1.225 9.059 1.596.198.024.397.046.595.068 7.11-2.462 12.213-9.218 12.213-17.165V11.071c0-10.031-8.13-18.161-18.16-18.161z"/></clipPath><clipPath id="c00zV"><path d="M106.927-7.09c-.94.439-1.897.919-2.873 1.444C93.504.023 84.774 5.297 79.046 10.983v45.624c0 7.947 5.103 14.703 12.212 17.165.199-.022.398-.044.595-.068 3.148-.371 6.183-1.013 9.06-1.596 1.441-.293 2.857-.565 4.239-.742a24.899 24.899 0 0 1 3.997-.222c1.275.053 2.442.204 3.526.399a26.66 26.66 0 0 1 2.626.624 25.798 25.798 0 0 1 6.152-1.023c1.273-.04 2.618.041 3.999.222 1.38.177 2.796.449 4.238.742 2.877.583 5.912 1.225 9.059 1.596.198.024.397.046.595.068 7.11-2.462 12.213-9.218 12.213-17.165V11.071c0-10.031-8.13-18.161-18.16-18.161z"/></clipPath><clipPath id="c00zW"><path d="M106.927-7.09c-.94.439-1.897.919-2.873 1.444C93.504.023 84.774 5.297 79.046 10.983v45.624c0 7.947 5.103 14.703 12.212 17.165.199-.022.398-.044.595-.068 3.148-.371 6.183-1.013 9.06-1.596 1.441-.293 2.857-.565 4.239-.742a24.899 24.899 0 0 1 3.997-.222c1.275.053 2.442.204 3.526.399a26.66 26.66 0 0 1 2.626.624 25.798 25.798 0 0 1 6.152-1.023c1.273-.04 2.618.041 3.999.222 1.38.177 2.796.449 4.238.742 2.877.583 5.912 1.225 9.059 1.596.198.024.397.046.595.068 7.11-2.462 12.213-9.218 12.213-17.165V11.071c0-10.031-8.13-18.161-18.16-18.161z"/></clipPath><clipPath id="c00zX"><path d="M106.927-7.09c-.94.439-1.897.919-2.873 1.444C93.504.023 84.774 5.297 79.046 10.983v45.624c0 7.947 5.103 14.703 12.212 17.165.199-.022.398-.044.595-.068 3.148-.371 6.183-1.013 9.06-1.596 1.441-.293 2.857-.565 4.239-.742a24.899 24.899 0 0 1 3.997-.222c1.275.053 2.442.204 3.526.399a26.66 26.66 0 0 1 2.626.624 25.798 25.798 0 0 1 6.152-1.023c1.273-.04 2.618.041 3.999.222 1.38.177 2.796.449 4.238.742 2.877.583 5.912 1.225 9.059 1.596.198.024.397.046.595.068 7.11-2.462 12.213-9.218 12.213-17.165V11.071c0-10.031-8.13-18.161-18.16-18.161z"/></clipPath><clipPath id="c00zY"><path d="M106.927-7.09c-.94.439-1.897.919-2.873 1.444C93.504.023 84.774 5.297 79.046 10.983v45.624c0 7.947 5.103 14.703 12.212 17.165.199-.022.398-.044.595-.068 3.148-.371 6.183-1.013 9.06-1.596 1.441-.293 2.857-.565 4.239-.742a24.899 24.899 0 0 1 3.997-.222c1.275.053 2.442.204 3.526.399a26.66 26.66 0 0 1 2.626.624 25.798 25.798 0 0 1 6.152-1.023c1.273-.04 2.618.041 3.999.222 1.38.177 2.796.449 4.238.742 2.877.583 5.912 1.225 9.059 1.596.198.024.397.046.595.068 7.11-2.462 12.213-9.218 12.213-17.165V11.071c0-10.031-8.13-18.161-18.16-18.161z"/></clipPath><clipPath id="c00zZ"><path d="M106.927-7.09c-.94.439-1.897.919-2.873 1.444C93.504.023 84.774 5.297 79.046 10.983v45.624c0 7.947 5.103 14.703 12.212 17.165.199-.022.398-.044.595-.068 3.148-.371 6.183-1.013 9.06-1.596 1.441-.293 2.857-.565 4.239-.742a24.899 24.899 0 0 1 3.997-.222c1.275.053 2.442.204 3.526.399a26.66 26.66 0 0 1 2.626.624 25.798 25.798 0 0 1 6.152-1.023c1.273-.04 2.618.041 3.999.222 1.38.177 2.796.449 4.238.742 2.877.583 5.912 1.225 9.059 1.596.198.024.397.046.595.068 7.11-2.462 12.213-9.218 12.213-17.165V11.071c0-10.031-8.13-18.161-18.16-18.161z"/></clipPath><clipPath id="c00zaa"><path d="M106.927-7.09c-.94.439-1.897.919-2.873 1.444C93.504.023 84.774 5.297 79.046 10.983v45.624c0 7.947 5.103 14.703 12.212 17.165.199-.022.398-.044.595-.068 3.148-.371 6.183-1.013 9.06-1.596 1.441-.293 2.857-.565 4.239-.742a24.899 24.899 0 0 1 3.997-.222c1.275.053 2.442.204 3.526.399a26.66 26.66 0 0 1 2.626.624 25.798 25.798 0 0 1 6.152-1.023c1.273-.04 2.618.041 3.999.222 1.38.177 2.796.449 4.238.742 2.877.583 5.912 1.225 9.059 1.596.198.024.397.046.595.068 7.11-2.462 12.213-9.218 12.213-17.165V11.071c0-10.031-8.13-18.161-18.16-18.161z"/></clipPath><clipPath id="c00zab"><path d="M106.927-7.09c-.94.439-1.897.919-2.873 1.444C93.504.023 84.774 5.297 79.046 10.983v45.624c0 7.947 5.103 14.703 12.212 17.165.199-.022.398-.044.595-.068 3.148-.371 6.183-1.013 9.06-1.596 1.441-.293 2.857-.565 4.239-.742a24.899 24.899 0 0 1 3.997-.222c1.275.053 2.442.204 3.526.399a26.66 26.66 0 0 1 2.626.624 25.798 25.798 0 0 1 6.152-1.023c1.273-.04 2.618.041 3.999.222 1.38.177 2.796.449 4.238.742 2.877.583 5.912 1.225 9.059 1.596.198.024.397.046.595.068 7.11-2.462 12.213-9.218 12.213-17.165V11.071c0-10.031-8.13-18.161-18.16-18.161z"/></clipPath><clipPath id="c00zac"><path d="M106.927-7.09c-.94.439-1.897.919-2.873 1.444C93.504.023 84.774 5.297 79.046 10.983v45.624c0 7.947 5.103 14.703 12.212 17.165.199-.022.398-.044.595-.068 3.148-.371 6.183-1.013 9.06-1.596 1.441-.293 2.857-.565 4.239-.742a24.899 24.899 0 0 1 3.997-.222c1.275.053 2.442.204 3.526.399a26.66 26.66 0 0 1 2.626.624 25.798 25.798 0 0 1 6.152-1.023c1.273-.04 2.618.041 3.999.222 1.38.177 2.796.449 4.238.742 2.877.583 5.912 1.225 9.059 1.596.198.024.397.046.595.068 7.11-2.462 12.213-9.218 12.213-17.165V11.071c0-10.031-8.13-18.161-18.16-18.161z"/></clipPath><clipPath id="c00zad"><path d="M106.927-7.09c-.94.439-1.897.919-2.873 1.444C93.504.023 84.774 5.297 79.046 10.983v45.624c0 7.947 5.103 14.703 12.212 17.165.199-.022.398-.044.595-.068 3.148-.371 6.183-1.013 9.06-1.596 1.441-.293 2.857-.565 4.239-.742a24.899 24.899 0 0 1 3.997-.222c1.275.053 2.442.204 3.526.399a26.66 26.66 0 0 1 2.626.624 25.798 25.798 0 0 1 6.152-1.023c1.273-.04 2.618.041 3.999.222 1.38.177 2.796.449 4.238.742 2.877.583 5.912 1.225 9.059 1.596.198.024.397.046.595.068 7.11-2.462 12.213-9.218 12.213-17.165V11.071c0-10.031-8.13-18.161-18.16-18.161z"/></clipPath><clipPath id="c00zae"><path d="M106.927-7.09c-.94.439-1.897.919-2.873 1.444C93.504.023 84.774 5.297 79.046 10.983v45.624c0 7.947 5.103 14.703 12.212 17.165.199-.022.398-.044.595-.068 3.148-.371 6.183-1.013 9.06-1.596 1.441-.293 2.857-.565 4.239-.742a24.899 24.899 0 0 1 3.997-.222c1.275.053 2.442.204 3.526.399a26.66 26.66 0 0 1 2.626.624 25.798 25.798 0 0 1 6.152-1.023c1.273-.04 2.618.041 3.999.222 1.38.177 2.796.449 4.238.742 2.877.583 5.912 1.225 9.059 1.596.198.024.397.046.595.068 7.11-2.462 12.213-9.218 12.213-17.165V11.071c0-10.031-8.13-18.161-18.16-18.161z"/></clipPath><clipPath id="c00zaf"><path d="M106.927-7.09c-.94.439-1.897.919-2.873 1.444C93.504.023 84.774 5.297 79.046 10.983v45.624c0 7.947 5.103 14.703 12.212 17.165.199-.022.398-.044.595-.068 3.148-.371 6.183-1.013 9.06-1.596 1.441-.293 2.857-.565 4.239-.742a24.899 24.899 0 0 1 3.997-.222c1.275.053 2.442.204 3.526.399a26.66 26.66 0 0 1 2.626.624 25.798 25.798 0 0 1 6.152-1.023c1.273-.04 2.618.041 3.999.222 1.38.177 2.796.449 4.238.742 2.877.583 5.912 1.225 9.059 1.596.198.024.397.046.595.068 7.11-2.462 12.213-9.218 12.213-17.165V11.071c0-10.031-8.13-18.161-18.16-18.161z"/></clipPath><clipPath id="c00zag"><path d="M106.927-7.09c-.94.439-1.897.919-2.873 1.444C93.504.023 84.774 5.297 79.046 10.983v45.624c0 7.947 5.103 14.703 12.212 17.165.199-.022.398-.044.595-.068 3.148-.371 6.183-1.013 9.06-1.596 1.441-.293 2.857-.565 4.239-.742a24.899 24.899 0 0 1 3.997-.222c1.275.053 2.442.204 3.526.399a26.66 26.66 0 0 1 2.626.624 25.798 25.798 0 0 1 6.152-1.023c1.273-.04 2.618.041 3.999.222 1.38.177 2.796.449 4.238.742 2.877.583 5.912 1.225 9.059 1.596.198.024.397.046.595.068 7.11-2.462 12.213-9.218 12.213-17.165V11.071c0-10.031-8.13-18.161-18.16-18.161z"/></clipPath><clipPath id="c00zah"><path d="M106.927-7.09c-.94.439-1.897.919-2.873 1.444C93.504.023 84.774 5.297 79.046 10.983v45.624c0 7.947 5.103 14.703 12.212 17.165.199-.022.398-.044.595-.068 3.148-.371 6.183-1.013 9.06-1.596 1.441-.293 2.857-.565 4.239-.742a24.899 24.899 0 0 1 3.997-.222c1.275.053 2.442.204 3.526.399a26.66 26.66 0 0 1 2.626.624 25.798 25.798 0 0 1 6.152-1.023c1.273-.04 2.618.041 3.999.222 1.38.177 2.796.449 4.238.742 2.877.583 5.912 1.225 9.059 1.596.198.024.397.046.595.068 7.11-2.462 12.213-9.218 12.213-17.165V11.071c0-10.031-8.13-18.161-18.16-18.161z"/></clipPath><clipPath id="c00zai"><path d="M106.927-7.09c-.94.439-1.897.919-2.873 1.444C93.504.023 84.774 5.297 79.046 10.983v45.624c0 7.947 5.103 14.703 12.212 17.165.199-.022.398-.044.595-.068 3.148-.371 6.183-1.013 9.06-1.596 1.441-.293 2.857-.565 4.239-.742a24.899 24.899 0 0 1 3.997-.222c1.275.053 2.442.204 3.526.399a26.66 26.66 0 0 1 2.626.624 25.798 25.798 0 0 1 6.152-1.023c1.273-.04 2.618.041 3.999.222 1.38.177 2.796.449 4.238.742 2.877.583 5.912 1.225 9.059 1.596.198.024.397.046.595.068 7.11-2.462 12.213-9.218 12.213-17.165V11.071c0-10.031-8.13-18.161-18.16-18.161z"/></clipPath><clipPath id="c00zaj"><path d="M106.927-7.09c-.94.439-1.897.919-2.873 1.444C93.504.023 84.774 5.297 79.046 10.983v45.624c0 7.947 5.103 14.703 12.212 17.165.199-.022.398-.044.595-.068 3.148-.371 6.183-1.013 9.06-1.596 1.441-.293 2.857-.565 4.239-.742a24.899 24.899 0 0 1 3.997-.222c1.275.053 2.442.204 3.526.399a26.66 26.66 0 0 1 2.626.624 25.798 25.798 0 0 1 6.152-1.023c1.273-.04 2.618.041 3.999.222 1.38.177 2.796.449 4.238.742 2.877.583 5.912 1.225 9.059 1.596.198.024.397.046.595.068 7.11-2.462 12.213-9.218 12.213-17.165V11.071c0-10.031-8.13-18.161-18.16-18.161z"/></clipPath><clipPath id="c00zak"><path d="M106.927-7.09c-.94.439-1.897.919-2.873 1.444C93.504.023 84.774 5.297 79.046 10.983v45.624c0 7.947 5.103 14.703 12.212 17.165.199-.022.398-.044.595-.068 3.148-.371 6.183-1.013 9.06-1.596 1.441-.293 2.857-.565 4.239-.742a24.899 24.899 0 0 1 3.997-.222c1.275.053 2.442.204 3.526.399a26.66 26.66 0 0 1 2.626.624 25.798 25.798 0 0 1 6.152-1.023c1.273-.04 2.618.041 3.999.222 1.38.177 2.796.449 4.238.742 2.877.583 5.912 1.225 9.059 1.596.198.024.397.046.595.068 7.11-2.462 12.213-9.218 12.213-17.165V11.071c0-10.031-8.13-18.161-18.16-18.161z"/></clipPath><clipPath id="c00zal"><path d="M106.927-7.09c-.94.439-1.897.919-2.873 1.444C93.504.023 84.774 5.297 79.046 10.983v45.624c0 7.947 5.103 14.703 12.212 17.165.199-.022.398-.044.595-.068 3.148-.371 6.183-1.013 9.06-1.596 1.441-.293 2.857-.565 4.239-.742a24.899 24.899 0 0 1 3.997-.222c1.275.053 2.442.204 3.526.399a26.66 26.66 0 0 1 2.626.624 25.798 25.798 0 0 1 6.152-1.023c1.273-.04 2.618.041 3.999.222 1.38.177 2.796.449 4.238.742 2.877.583 5.912 1.225 9.059 1.596.198.024.397.046.595.068 7.11-2.462 12.213-9.218 12.213-17.165V11.071c0-10.031-8.13-18.161-18.16-18.161z"/></clipPath><clipPath id="c00zam"><path d="M106.927-7.09c-.94.439-1.897.919-2.873 1.444C93.504.023 84.774 5.297 79.046 10.983v45.624c0 7.947 5.103 14.703 12.212 17.165.199-.022.398-.044.595-.068 3.148-.371 6.183-1.013 9.06-1.596 1.441-.293 2.857-.565 4.239-.742a24.899 24.899 0 0 1 3.997-.222c1.275.053 2.442.204 3.526.399a26.66 26.66 0 0 1 2.626.624 25.798 25.798 0 0 1 6.152-1.023c1.273-.04 2.618.041 3.999.222 1.38.177 2.796.449 4.238.742 2.877.583 5.912 1.225 9.059 1.596.198.024.397.046.595.068 7.11-2.462 12.213-9.218 12.213-17.165V11.071c0-10.031-8.13-18.161-18.16-18.161z"/></clipPath><clipPath id="c00zan"><path d="M106.927-7.09c-.94.439-1.897.919-2.873 1.444C93.504.023 84.774 5.297 79.046 10.983v45.624c0 7.947 5.103 14.703 12.212 17.165.199-.022.398-.044.595-.068 3.148-.371 6.183-1.013 9.06-1.596 1.441-.293 2.857-.565 4.239-.742a24.899 24.899 0 0 1 3.997-.222c1.275.053 2.442.204 3.526.399a26.66 26.66 0 0 1 2.626.624 25.798 25.798 0 0 1 6.152-1.023c1.273-.04 2.618.041 3.999.222 1.38.177 2.796.449 4.238.742 2.877.583 5.912 1.225 9.059 1.596.198.024.397.046.595.068 7.11-2.462 12.213-9.218 12.213-17.165V11.071c0-10.031-8.13-18.161-18.16-18.161z"/></clipPath><clipPath id="c00zao"><path d="M106.927-7.09c-.94.439-1.897.919-2.873 1.444C93.504.023 84.774 5.297 79.046 10.983v45.624c0 7.947 5.103 14.703 12.212 17.165.199-.022.398-.044.595-.068 3.148-.371 6.183-1.013 9.06-1.596 1.441-.293 2.857-.565 4.239-.742a24.899 24.899 0 0 1 3.997-.222c1.275.053 2.442.204 3.526.399a26.66 26.66 0 0 1 2.626.624 25.798 25.798 0 0 1 6.152-1.023c1.273-.04 2.618.041 3.999.222 1.38.177 2.796.449 4.238.742 2.877.583 5.912 1.225 9.059 1.596.198.024.397.046.595.068 7.11-2.462 12.213-9.218 12.213-17.165V11.071c0-10.031-8.13-18.161-18.16-18.161z"/></clipPath><clipPath id="c00zap"><path d="M106.927-7.09c-.94.439-1.897.919-2.873 1.444C93.504.023 84.774 5.297 79.046 10.983v45.624c0 7.947 5.103 14.703 12.212 17.165.199-.022.398-.044.595-.068 3.148-.371 6.183-1.013 9.06-1.596 1.441-.293 2.857-.565 4.239-.742a24.899 24.899 0 0 1 3.997-.222c1.275.053 2.442.204 3.526.399a26.66 26.66 0 0 1 2.626.624 25.798 25.798 0 0 1 6.152-1.023c1.273-.04 2.618.041 3.999.222 1.38.177 2.796.449 4.238.742 2.877.583 5.912 1.225 9.059 1.596.198.024.397.046.595.068 7.11-2.462 12.213-9.218 12.213-17.165V11.071c0-10.031-8.13-18.161-18.16-18.161z"/></clipPath><clipPath id="c00zaq"><path d="M106.927-7.09c-.94.439-1.897.919-2.873 1.444C93.504.023 84.774 5.297 79.046 10.983v45.624c0 7.947 5.103 14.703 12.212 17.165.199-.022.398-.044.595-.068 3.148-.371 6.183-1.013 9.06-1.596 1.441-.293 2.857-.565 4.239-.742a24.899 24.899 0 0 1 3.997-.222c1.275.053 2.442.204 3.526.399a26.66 26.66 0 0 1 2.626.624 25.798 25.798 0 0 1 6.152-1.023c1.273-.04 2.618.041 3.999.222 1.38.177 2.796.449 4.238.742 2.877.583 5.912 1.225 9.059 1.596.198.024.397.046.595.068 7.11-2.462 12.213-9.218 12.213-17.165V11.071c0-10.031-8.13-18.161-18.16-18.161z"/></clipPath><clipPath id="c00zar"><path d="M106.927-7.09c-.94.439-1.897.919-2.873 1.444C93.504.023 84.774 5.297 79.046 10.983v45.624c0 7.947 5.103 14.703 12.212 17.165.199-.022.398-.044.595-.068 3.148-.371 6.183-1.013 9.06-1.596 1.441-.293 2.857-.565 4.239-.742a24.899 24.899 0 0 1 3.997-.222c1.275.053 2.442.204 3.526.399a26.66 26.66 0 0 1 2.626.624 25.798 25.798 0 0 1 6.152-1.023c1.273-.04 2.618.041 3.999.222 1.38.177 2.796.449 4.238.742 2.877.583 5.912 1.225 9.059 1.596.198.024.397.046.595.068 7.11-2.462 12.213-9.218 12.213-17.165V11.071c0-10.031-8.13-18.161-18.16-18.161z"/></clipPath><clipPath id="c00zas"><path d="M106.927-7.09c-.94.439-1.897.919-2.873 1.444C93.504.023 84.774 5.297 79.046 10.983v45.624c0 7.947 5.103 14.703 12.212 17.165.199-.022.398-.044.595-.068 3.148-.371 6.183-1.013 9.06-1.596 1.441-.293 2.857-.565 4.239-.742a24.899 24.899 0 0 1 3.997-.222c1.275.053 2.442.204 3.526.399a26.66 26.66 0 0 1 2.626.624 25.798 25.798 0 0 1 6.152-1.023c1.273-.04 2.618.041 3.999.222 1.38.177 2.796.449 4.238.742 2.877.583 5.912 1.225 9.059 1.596.198.024.397.046.595.068 7.11-2.462 12.213-9.218 12.213-17.165V11.071c0-10.031-8.13-18.161-18.16-18.161z"/></clipPath><clipPath id="c00zat"><path d="M106.927-7.09c-.94.439-1.897.919-2.873 1.444C93.504.023 84.774 5.297 79.046 10.983v45.624c0 7.947 5.103 14.703 12.212 17.165.199-.022.398-.044.595-.068 3.148-.371 6.183-1.013 9.06-1.596 1.441-.293 2.857-.565 4.239-.742a24.899 24.899 0 0 1 3.997-.222c1.275.053 2.442.204 3.526.399a26.66 26.66 0 0 1 2.626.624 25.798 25.798 0 0 1 6.152-1.023c1.273-.04 2.618.041 3.999.222 1.38.177 2.796.449 4.238.742 2.877.583 5.912 1.225 9.059 1.596.198.024.397.046.595.068 7.11-2.462 12.213-9.218 12.213-17.165V11.071c0-10.031-8.13-18.161-18.16-18.161z"/></clipPath><clipPath id="c00zau"><path d="M106.927-7.09c-.94.439-1.897.919-2.873 1.444C93.504.023 84.774 5.297 79.046 10.983v45.624c0 7.947 5.103 14.703 12.212 17.165.199-.022.398-.044.595-.068 3.148-.371 6.183-1.013 9.06-1.596 1.441-.293 2.857-.565 4.239-.742a24.899 24.899 0 0 1 3.997-.222c1.275.053 2.442.204 3.526.399a26.66 26.66 0 0 1 2.626.624 25.798 25.798 0 0 1 6.152-1.023c1.273-.04 2.618.041 3.999.222 1.38.177 2.796.449 4.238.742 2.877.583 5.912 1.225 9.059 1.596.198.024.397.046.595.068 7.11-2.462 12.213-9.218 12.213-17.165V11.071c0-10.031-8.13-18.161-18.16-18.161z"/></clipPath><clipPath id="c00zav"><path d="M106.927-7.09c-.94.439-1.897.919-2.873 1.444C93.504.023 84.774 5.297 79.046 10.983v45.624c0 7.947 5.103 14.703 12.212 17.165.199-.022.398-.044.595-.068 3.148-.371 6.183-1.013 9.06-1.596 1.441-.293 2.857-.565 4.239-.742a24.899 24.899 0 0 1 3.997-.222c1.275.053 2.442.204 3.526.399a26.66 26.66 0 0 1 2.626.624 25.798 25.798 0 0 1 6.152-1.023c1.273-.04 2.618.041 3.999.222 1.38.177 2.796.449 4.238.742 2.877.583 5.912 1.225 9.059 1.596.198.024.397.046.595.068 7.11-2.462 12.213-9.218 12.213-17.165V11.071c0-10.031-8.13-18.161-18.16-18.161z"/></clipPath><clipPath id="c00zaw"><path d="M106.927-7.09c-.94.439-1.897.919-2.873 1.444C93.504.023 84.774 5.297 79.046 10.983v45.624c0 7.947 5.103 14.703 12.212 17.165.199-.022.398-.044.595-.068 3.148-.371 6.183-1.013 9.06-1.596 1.441-.293 2.857-.565 4.239-.742a24.899 24.899 0 0 1 3.997-.222c1.275.053 2.442.204 3.526.399a26.66 26.66 0 0 1 2.626.624 25.798 25.798 0 0 1 6.152-1.023c1.273-.04 2.618.041 3.999.222 1.38.177 2.796.449 4.238.742 2.877.583 5.912 1.225 9.059 1.596.198.024.397.046.595.068 7.11-2.462 12.213-9.218 12.213-17.165V11.071c0-10.031-8.13-18.161-18.16-18.161z"/></clipPath><clipPath id="c00zax"><path d="M106.927-7.09c-.94.439-1.897.919-2.873 1.444C93.504.023 84.774 5.297 79.046 10.983v45.624c0 7.947 5.103 14.703 12.212 17.165.199-.022.398-.044.595-.068 3.148-.371 6.183-1.013 9.06-1.596 1.441-.293 2.857-.565 4.239-.742a24.899 24.899 0 0 1 3.997-.222c1.275.053 2.442.204 3.526.399a26.66 26.66 0 0 1 2.626.624 25.798 25.798 0 0 1 6.152-1.023c1.273-.04 2.618.041 3.999.222 1.38.177 2.796.449 4.238.742 2.877.583 5.912 1.225 9.059 1.596.198.024.397.046.595.068 7.11-2.462 12.213-9.218 12.213-17.165V11.071c0-10.031-8.13-18.161-18.16-18.161z"/></clipPath><clipPath id="c00zay"><path d="M106.927-7.09c-.94.439-1.897.919-2.873 1.444C93.504.023 84.774 5.297 79.046 10.983v45.624c0 7.947 5.103 14.703 12.212 17.165.199-.022.398-.044.595-.068 3.148-.371 6.183-1.013 9.06-1.596 1.441-.293 2.857-.565 4.239-.742a24.899 24.899 0 0 1 3.997-.222c1.275.053 2.442.204 3.526.399a26.66 26.66 0 0 1 2.626.624 25.798 25.798 0 0 1 6.152-1.023c1.273-.04 2.618.041 3.999.222 1.38.177 2.796.449 4.238.742 2.877.583 5.912 1.225 9.059 1.596.198.024.397.046.595.068 7.11-2.462 12.213-9.218 12.213-17.165V11.071c0-10.031-8.13-18.161-18.16-18.161z"/></clipPath><clipPath id="c00zaz"><path d="M106.927-7.09c-.94.439-1.897.919-2.873 1.444C93.504.023 84.774 5.297 79.046 10.983v45.624c0 7.947 5.103 14.703 12.212 17.165.199-.022.398-.044.595-.068 3.148-.371 6.183-1.013 9.06-1.596 1.441-.293 2.857-.565 4.239-.742a24.899 24.899 0 0 1 3.997-.222c1.275.053 2.442.204 3.526.399a26.66 26.66 0 0 1 2.626.624 25.798 25.798 0 0 1 6.152-1.023c1.273-.04 2.618.041 3.999.222 1.38.177 2.796.449 4.238.742 2.877.583 5.912 1.225 9.059 1.596.198.024.397.046.595.068 7.11-2.462 12.213-9.218 12.213-17.165V11.071c0-10.031-8.13-18.161-18.16-18.161z"/></clipPath><clipPath id="c00zaA"><path d="M106.927-7.09c-.94.439-1.897.919-2.873 1.444C93.504.023 84.774 5.297 79.046 10.983v45.624c0 7.947 5.103 14.703 12.212 17.165.199-.022.398-.044.595-.068 3.148-.371 6.183-1.013 9.06-1.596 1.441-.293 2.857-.565 4.239-.742a24.899 24.899 0 0 1 3.997-.222c1.275.053 2.442.204 3.526.399a26.66 26.66 0 0 1 2.626.624 25.798 25.798 0 0 1 6.152-1.023c1.273-.04 2.618.041 3.999.222 1.38.177 2.796.449 4.238.742 2.877.583 5.912 1.225 9.059 1.596.198.024.397.046.595.068 7.11-2.462 12.213-9.218 12.213-17.165V11.071c0-10.031-8.13-18.161-18.16-18.161z"/></clipPath><clipPath id="c00zaB"><path d="M106.927-7.09c-.94.439-1.897.919-2.873 1.444C93.504.023 84.774 5.297 79.046 10.983v45.624c0 7.947 5.103 14.703 12.212 17.165.199-.022.398-.044.595-.068 3.148-.371 6.183-1.013 9.06-1.596 1.441-.293 2.857-.565 4.239-.742a24.899 24.899 0 0 1 3.997-.222c1.275.053 2.442.204 3.526.399a26.66 26.66 0 0 1 2.626.624 25.798 25.798 0 0 1 6.152-1.023c1.273-.04 2.618.041 3.999.222 1.38.177 2.796.449 4.238.742 2.877.583 5.912 1.225 9.059 1.596.198.024.397.046.595.068 7.11-2.462 12.213-9.218 12.213-17.165V11.071c0-10.031-8.13-18.161-18.16-18.161z"/></clipPath><clipPath id="c00zaC"><path d="M106.927-7.09c-.94.439-1.897.919-2.873 1.444C93.504.023 84.774 5.297 79.046 10.983v45.624c0 7.947 5.103 14.703 12.212 17.165.199-.022.398-.044.595-.068 3.148-.371 6.183-1.013 9.06-1.596 1.441-.293 2.857-.565 4.239-.742a24.899 24.899 0 0 1 3.997-.222c1.275.053 2.442.204 3.526.399a26.66 26.66 0 0 1 2.626.624 25.798 25.798 0 0 1 6.152-1.023c1.273-.04 2.618.041 3.999.222 1.38.177 2.796.449 4.238.742 2.877.583 5.912 1.225 9.059 1.596.198.024.397.046.595.068 7.11-2.462 12.213-9.218 12.213-17.165V11.071c0-10.031-8.13-18.161-18.16-18.161z"/></clipPath><clipPath id="c00zaD"><path d="M106.927-7.09c-.94.439-1.897.919-2.873 1.444C93.504.023 84.774 5.297 79.046 10.983v45.624c0 7.947 5.103 14.703 12.212 17.165.199-.022.398-.044.595-.068 3.148-.371 6.183-1.013 9.06-1.596 1.441-.293 2.857-.565 4.239-.742a24.899 24.899 0 0 1 3.997-.222c1.275.053 2.442.204 3.526.399a26.66 26.66 0 0 1 2.626.624 25.798 25.798 0 0 1 6.152-1.023c1.273-.04 2.618.041 3.999.222 1.38.177 2.796.449 4.238.742 2.877.583 5.912 1.225 9.059 1.596.198.024.397.046.595.068 7.11-2.462 12.213-9.218 12.213-17.165V11.071c0-10.031-8.13-18.161-18.16-18.161z"/></clipPath><clipPath id="c00zaE"><path d="M106.927-7.09c-.94.439-1.897.919-2.873 1.444C93.504.023 84.774 5.297 79.046 10.983v45.624c0 7.947 5.103 14.703 12.212 17.165.199-.022.398-.044.595-.068 3.148-.371 6.183-1.013 9.06-1.596 1.441-.293 2.857-.565 4.239-.742a24.899 24.899 0 0 1 3.997-.222c1.275.053 2.442.204 3.526.399a26.66 26.66 0 0 1 2.626.624 25.798 25.798 0 0 1 6.152-1.023c1.273-.04 2.618.041 3.999.222 1.38.177 2.796.449 4.238.742 2.877.583 5.912 1.225 9.059 1.596.198.024.397.046.595.068 7.11-2.462 12.213-9.218 12.213-17.165V11.071c0-10.031-8.13-18.161-18.16-18.161z"/></clipPath><clipPath id="c00zaF"><path d="M106.927-7.09c-.94.439-1.897.919-2.873 1.444C93.504.023 84.774 5.297 79.046 10.983v45.624c0 7.947 5.103 14.703 12.212 17.165.199-.022.398-.044.595-.068 3.148-.371 6.183-1.013 9.06-1.596 1.441-.293 2.857-.565 4.239-.742a24.899 24.899 0 0 1 3.997-.222c1.275.053 2.442.204 3.526.399a26.66 26.66 0 0 1 2.626.624 25.798 25.798 0 0 1 6.152-1.023c1.273-.04 2.618.041 3.999.222 1.38.177 2.796.449 4.238.742 2.877.583 5.912 1.225 9.059 1.596.198.024.397.046.595.068 7.11-2.462 12.213-9.218 12.213-17.165V11.071c0-10.031-8.13-18.161-18.16-18.161z"/></clipPath><clipPath id="c00zaG"><path d="M106.927-7.09c-.94.439-1.897.919-2.873 1.444C93.504.023 84.774 5.297 79.046 10.983v45.624c0 7.947 5.103 14.703 12.212 17.165.199-.022.398-.044.595-.068 3.148-.371 6.183-1.013 9.06-1.596 1.441-.293 2.857-.565 4.239-.742a24.899 24.899 0 0 1 3.997-.222c1.275.053 2.442.204 3.526.399a26.66 26.66 0 0 1 2.626.624 25.798 25.798 0 0 1 6.152-1.023c1.273-.04 2.618.041 3.999.222 1.38.177 2.796.449 4.238.742 2.877.583 5.912 1.225 9.059 1.596.198.024.397.046.595.068 7.11-2.462 12.213-9.218 12.213-17.165V11.071c0-10.031-8.13-18.161-18.16-18.161z"/></clipPath><clipPath id="c00zaH"><path d="M106.927-7.09c-.94.439-1.897.919-2.873 1.444C93.504.023 84.774 5.297 79.046 10.983v45.624c0 7.947 5.103 14.703 12.212 17.165.199-.022.398-.044.595-.068 3.148-.371 6.183-1.013 9.06-1.596 1.441-.293 2.857-.565 4.239-.742a24.899 24.899 0 0 1 3.997-.222c1.275.053 2.442.204 3.526.399a26.66 26.66 0 0 1 2.626.624 25.798 25.798 0 0 1 6.152-1.023c1.273-.04 2.618.041 3.999.222 1.38.177 2.796.449 4.238.742 2.877.583 5.912 1.225 9.059 1.596.198.024.397.046.595.068 7.11-2.462 12.213-9.218 12.213-17.165V11.071c0-10.031-8.13-18.161-18.16-18.161z"/></clipPath><clipPath id="c00zaI"><path d="M106.927-7.09c-.94.439-1.897.919-2.873 1.444C93.504.023 84.774 5.297 79.046 10.983v45.624c0 7.947 5.103 14.703 12.212 17.165.199-.022.398-.044.595-.068 3.148-.371 6.183-1.013 9.06-1.596 1.441-.293 2.857-.565 4.239-.742a24.899 24.899 0 0 1 3.997-.222c1.275.053 2.442.204 3.526.399a26.66 26.66 0 0 1 2.626.624 25.798 25.798 0 0 1 6.152-1.023c1.273-.04 2.618.041 3.999.222 1.38.177 2.796.449 4.238.742 2.877.583 5.912 1.225 9.059 1.596.198.024.397.046.595.068 7.11-2.462 12.213-9.218 12.213-17.165V11.071c0-10.031-8.13-18.161-18.16-18.161z"/></clipPath><clipPath id="c00zaJ"><path d="M106.927-7.09c-.94.439-1.897.919-2.873 1.444C93.504.023 84.774 5.297 79.046 10.983v45.624c0 7.947 5.103 14.703 12.212 17.165.199-.022.398-.044.595-.068 3.148-.371 6.183-1.013 9.06-1.596 1.441-.293 2.857-.565 4.239-.742a24.899 24.899 0 0 1 3.997-.222c1.275.053 2.442.204 3.526.399a26.66 26.66 0 0 1 2.626.624 25.798 25.798 0 0 1 6.152-1.023c1.273-.04 2.618.041 3.999.222 1.38.177 2.796.449 4.238.742 2.877.583 5.912 1.225 9.059 1.596.198.024.397.046.595.068 7.11-2.462 12.213-9.218 12.213-17.165V11.071c0-10.031-8.13-18.161-18.16-18.161z"/></clipPath><clipPath id="c00zaK"><path d="M106.927-7.09c-.94.439-1.897.919-2.873 1.444C93.504.023 84.774 5.297 79.046 10.983v45.624c0 7.947 5.103 14.703 12.212 17.165.199-.022.398-.044.595-.068 3.148-.371 6.183-1.013 9.06-1.596 1.441-.293 2.857-.565 4.239-.742a24.899 24.899 0 0 1 3.997-.222c1.275.053 2.442.204 3.526.399a26.66 26.66 0 0 1 2.626.624 25.798 25.798 0 0 1 6.152-1.023c1.273-.04 2.618.041 3.999.222 1.38.177 2.796.449 4.238.742 2.877.583 5.912 1.225 9.059 1.596.198.024.397.046.595.068 7.11-2.462 12.213-9.218 12.213-17.165V11.071c0-10.031-8.13-18.161-18.16-18.161z"/></clipPath><clipPath id="c00zaL"><path d="M106.927-7.09c-.94.439-1.897.919-2.873 1.444C93.504.023 84.774 5.297 79.046 10.983v45.624c0 7.947 5.103 14.703 12.212 17.165.199-.022.398-.044.595-.068 3.148-.371 6.183-1.013 9.06-1.596 1.441-.293 2.857-.565 4.239-.742a24.899 24.899 0 0 1 3.997-.222c1.275.053 2.442.204 3.526.399a26.66 26.66 0 0 1 2.626.624 25.798 25.798 0 0 1 6.152-1.023c1.273-.04 2.618.041 3.999.222 1.38.177 2.796.449 4.238.742 2.877.583 5.912 1.225 9.059 1.596.198.024.397.046.595.068 7.11-2.462 12.213-9.218 12.213-17.165V11.071c0-10.031-8.13-18.161-18.16-18.161z"/></clipPath><clipPath id="c00zaM"><path d="M106.927-7.09c-.94.439-1.897.919-2.873 1.444C93.504.023 84.774 5.297 79.046 10.983v45.624c0 7.947 5.103 14.703 12.212 17.165.199-.022.398-.044.595-.068 3.148-.371 6.183-1.013 9.06-1.596 1.441-.293 2.857-.565 4.239-.742a24.899 24.899 0 0 1 3.997-.222c1.275.053 2.442.204 3.526.399a26.66 26.66 0 0 1 2.626.624 25.798 25.798 0 0 1 6.152-1.023c1.273-.04 2.618.041 3.999.222 1.38.177 2.796.449 4.238.742 2.877.583 5.912 1.225 9.059 1.596.198.024.397.046.595.068 7.11-2.462 12.213-9.218 12.213-17.165V11.071c0-10.031-8.13-18.161-18.16-18.161z"/></clipPath><clipPath id="c00zaN"><path d="M106.927-7.09c-.94.439-1.897.919-2.873 1.444C93.504.023 84.774 5.297 79.046 10.983v45.624c0 7.947 5.103 14.703 12.212 17.165.199-.022.398-.044.595-.068 3.148-.371 6.183-1.013 9.06-1.596 1.441-.293 2.857-.565 4.239-.742a24.899 24.899 0 0 1 3.997-.222c1.275.053 2.442.204 3.526.399a26.66 26.66 0 0 1 2.626.624 25.798 25.798 0 0 1 6.152-1.023c1.273-.04 2.618.041 3.999.222 1.38.177 2.796.449 4.238.742 2.877.583 5.912 1.225 9.059 1.596.198.024.397.046.595.068 7.11-2.462 12.213-9.218 12.213-17.165V11.071c0-10.031-8.13-18.161-18.16-18.161z"/></clipPath><clipPath id="c00zaO"><path d="M104.054-5.647C86.457 3.811 73.919 12.169 71.94 23.168c-1.98 10.998-8.424 44.46-8.424 44.46 1.278.966 2.752 1.606 4.285 2.127 1.532.515 3.152.966 4.753 1.465 3.205.979 6.445 1.931 9.685 2.426 1.62.249 3.228.376 4.837.365 1.607 0 3.205-.119 4.778-.307 3.147-.372 6.183-1.013 9.059-1.596 1.441-.294 2.857-.566 4.239-.742a24.78 24.78 0 0 1 3.997-.221c1.275.052 2.443.203 3.526.397.955.177 1.829.392 2.626.625a25.807 25.807 0 0 1 6.153-1.022c1.272-.041 2.617.04 3.997.221 1.382.176 2.797.448 4.239.742 2.876.583 5.912 1.224 9.059 1.596 1.573.188 3.171.307 4.778.307a30.397 30.397 0 0 0 4.837-.365c3.24-.495 6.48-1.447 9.685-2.426 1.601-.499 3.221-.95 4.753-1.465 1.533-.521 3.007-1.161 4.284-2.127-.151-.786-10.185-67.517-21.943-72.615C138.104-8.039 131.222-11 123.17-11c-5.645 0-11.865 1.455-19.116 5.353z"/></clipPath></defs><g><g><path fill="#c46449" d="M162.802 71.284c-1.533.514-3.151.966-4.752 1.464-3.206.978-6.446 1.931-9.686 2.427-1.62.248-3.227.376-4.836.364-1.608 0-3.206-.119-4.78-.307-3.146-.37-6.181-1.013-9.057-1.596-1.442-.293-2.858-.565-4.24-.742a24.889 24.889 0 0 0-3.996-.22 25.627 25.627 0 0 0-6.153 1.022 25.645 25.645 0 0 0-6.153-1.023c-1.273-.04-2.618.04-3.997.221-1.381.177-2.797.45-4.24.742-2.875.583-5.91 1.225-9.058 1.596a40.296 40.296 0 0 1-4.778.307 30.395 30.395 0 0 1-4.837-.364c-3.24-.496-6.48-1.449-9.685-2.427-1.601-.498-3.22-.95-4.752-1.464-1.534-.52-3.007-1.162-4.286-2.127 0 0 .156.176.473.48.316.303.805.725 1.479 1.183.672.461 1.53.95 2.535 1.434 1.006.487 2.14.976 3.364 1.51 2.453 1.06 5.312 2.25 8.467 3.101 1.578.416 3.228.751 4.907.911 1.679.161 3.362.17 4.986.055 3.565-.244 7.28-1.09 10.817-2.03 1.769-.47 3.486-.945 5.152-1.28 1.668-.338 3.27-.518 4.8-.5 1.142.007 2.225.082 3.228.204.55.067 1.078.148 1.578.241.5-.093 1.026-.174 1.578-.24a28.218 28.218 0 0 1 3.226-.205c1.53-.018 3.134.162 4.802.5 1.666.335 3.383.81 5.15 1.28 3.538.94 7.253 1.786 10.818 2.03 1.625.115 3.308.106 4.986-.055 1.68-.16 3.329-.495 4.907-.91 3.155-.852 6.015-2.042 8.467-3.102 1.224-.534 2.358-1.023 3.364-1.51 1.005-.484 1.864-.973 2.535-1.434.675-.458 1.163-.88 1.479-1.184.317-.303.473-.479.473-.479-1.278.965-2.751 1.606-4.285 2.127z"/></g><g/><g clip-path="url(#c00za)"><path fill="#c46449" d="M127.5 15.306l.117-.083"/></g><g/><g clip-path="url(#c00zb)"><path fill="#c46449" d="M119.178 20.72l.177-.105-.177.105z"/></g><g/><g clip-path="url(#c00zc)"><path fill="#c46449" d="M126.477 16.027l.118-.082"/></g><g/><g clip-path="url(#c00zd)"><path fill="#c46449" d="M129.51 13.832z"/></g><g/><g clip-path="url(#c00ze)"><path fill="#c46449" d="M130.49 13.08l.101-.08-.102.08z"/></g><g/><g clip-path="url(#c00zf)"><path fill="#c46449" d="M109.778 25.93z"/></g><g/><g clip-path="url(#c00zg)"><path fill="#c46449" d="M110.598 25.506l.221-.116-.22.116z"/></g><g/><g clip-path="url(#c00zh)"><path fill="#c46449" d="M128.515 14.572l.107-.079-.107.08z"/></g><g/><g clip-path="url(#c00zi)"><path fill="#c46449" d="M111.449 25.061z"/></g><g/><g clip-path="url(#c00zj)"><path fill="#c46449" d="M113.25 24.098l.229-.125-.229.125z"/></g><g/><g clip-path="url(#c00zk)"><path fill="#c46449" d="M122.305 18.794c.05-.03.099-.063.149-.095l-.15.095z"/></g><g/><g clip-path="url(#c00zl)"><path fill="#c46449" d="M120.213 20.095l.172-.106-.172.106z"/></g><g/><g clip-path="url(#c00zm)"><path fill="#c46449" d="M121.256 19.454c.055-.034.109-.07.164-.103l-.164.103z"/></g><g/><g clip-path="url(#c00zn)"><path fill="#c46449" d="M123.353 18.123l.14-.091-.14.09z"/></g><g/><g clip-path="url(#c00zo)"><path fill="#c46449" d="M114.19 23.584l.224-.125-.224.125z"/></g><g/><g clip-path="url(#c00zp)"><path fill="#c46449" d="M112.332 24.592z"/></g><g/><g clip-path="url(#c00zq)"><path fill="#c46449" d="M125.44 16.74z"/></g><g/><g clip-path="url(#c00zr)"><path fill="#c46449" d="M124.4 17.436l.133-.088-.133.088z"/></g><g/><g clip-path="url(#c00zs)"><path fill="#c46449" d="M118.154 21.328z"/></g><g/><g clip-path="url(#c00zt)"><path fill="#c46449" d="M117.14 21.92l.178-.104-.179.104z"/></g><g/><g clip-path="url(#c00zu)"><path fill="#c46449" d="M135.031 9.206l.067-.063-.067.063z"/></g><g/><g clip-path="url(#c00zv)"><path fill="#c46449" d="M108.275 27.154l-.05-.008.05.008z"/></g><g/><g clip-path="url(#c00zw)"><path fill="#c46449" d="M108.244 26.705l.23-.116a49.63 49.63 0 0 0-.23.116z"/></g><g/><g clip-path="url(#c00zx)"><path fill="#c46449" d="M135.91 8.352l-.063.064c.02-.022.043-.043.064-.064z"/></g><g/><g clip-path="url(#c00zy)"><path fill="#c46449" d="M116.138 22.494l.19-.108-.19.108z"/></g><g/><g clip-path="url(#c00zz)"><path fill="#c46449" d="M136.627 7.62l.058-.061-.058.06z"/></g><g/><g clip-path="url(#c00zA)"><path fill="#c46449" d="M108.986 26.332l.257-.13-.257.13z"/></g><g/><g clip-path="url(#c00zB)"><path fill="#c46449" d="M140.682 15.205c-.618-1.916-1.715-4.77-3.356-7.417-7.218 7.992-20.716 15.622-28.391 19.495.635.147 1.263.364 2.034.727 1.956.92 5.64 5.065 5.64 5.065s-6.101 1.84-8.518.575c-2.417-1.266-4.49-2.762-4.49-2.762s3.914-.806 5.986-.346c2.072.46-1.381-2.762-5.64-1.726-2.417 1.036-9.553 5.87-9.553 6.79 2.647-.344 10.129 0 10.129 0s-1.497 8.173-14.043 6.562c1.257-.987 3.493-2.532 5.672-3.493-1.888.069-5.29 1.006-10.391 5.339-1.003 1.133-2.364 3.084-3.634 5.388a227.122 227.122 0 0 0-1.67 8.324c1.604-2.571 4.89-6.15 12.9-7.961-3.683 4.374-4.028 5.41-5.18 8.402-1.15 2.993-3.682 9.784-4.948 9.439-.806-2.187 2.07-10.475 3.798-12.662-1.611 1.152-5.81 4.615-6.1 8.404-.07.887-.136 7.358 4.834 12.024 10.512.895 27.725 2.634 38.723 1.808a2.302 2.302 0 0 0 2.07-2.834c-1.766-7.303-4.421-27.9-5.52-38.812a11.386 11.386 0 0 1 6.073-11.236c4.276-2.23 10.923-4.411 13.702-5.695 1.198-.553.279-2.142-.127-3.398z"/></g><g/><g clip-path="url(#c00zC)"><path fill="#c46449" d="M131.45 12.318c.032-.024.062-.05.093-.074l-.092.074z"/></g><g/><g clip-path="url(#c00zD)"><path fill="#c46449" d="M133.298 10.774z"/></g><g/><g clip-path="url(#c00zE)"><path fill="#c46449" d="M132.388 11.549l.084-.07-.084.07z"/></g><g/><g clip-path="url(#c00zF)"><path fill="#c46449" d="M115.151 23.05z"/></g><g/><g clip-path="url(#c00zG)"><path fill="#c46449" d="M134.179 9.994l.076-.069-.076.07z"/></g><g/><g clip-path="url(#c00zH)"><path fill="#b15741" d="M113.478 23.973l.712-.389-.712.39z"/></g><g/><g clip-path="url(#c00zI)"><path fill="#b15741" d="M115.368 22.928l.77-.435-.77.435z"/></g><g/><g clip-path="url(#c00zJ)"><path fill="#b15741" d="M114.414 23.46z"/></g><g/><g clip-path="url(#c00zK)"><path fill="#b15741" d="M108.935 27.282z"/></g><g/><g clip-path="url(#c00zL)"><path fill="#b15741" d="M112.59 24.454c.219-.118.438-.235.66-.356l-.66.356z"/></g><g/><g clip-path="url(#c00zM)"><path fill="#b15741" d="M107.54 27.053z"/></g><g/><g clip-path="url(#c00zN)"><path fill="#b15741" d="M108.475 26.589z"/></g><g/><g clip-path="url(#c00zO)"><path fill="#b15741" d="M108.225 27.146z"/></g><g/><g clip-path="url(#c00zP)"><path fill="#b15741" d="M109.243 26.202l.535-.272-.535.272z"/></g><g/><g clip-path="url(#c00zQ)"><path fill="#b15741" d="M111.708 24.923z"/></g><g/><g clip-path="url(#c00zR)"><path fill="#b15741" d="M109.969 25.83z"/></g><g/><g clip-path="url(#c00zS)"><path fill="#b15741" d="M110.82 25.39z"/></g><g/><g clip-path="url(#c00zT)"><path fill="#b15741" d="M132.472 11.479z"/></g><g/><g clip-path="url(#c00zU)"><path fill="#b15741" d="M130.592 13z"/></g><g/><g clip-path="url(#c00zV)"><path fill="#b15741" d="M133.378 10.705z"/></g><g/><g clip-path="url(#c00zW)"><path fill="#b15741" d="M131.542 12.244z"/></g><g/><g clip-path="url(#c00zX)"><path fill="#b15741" d="M128.622 14.493z"/></g><g/><g clip-path="url(#c00zY)"><path fill="#b15741" d="M129.618 13.75z"/></g><g/><g clip-path="url(#c00zZ)"><path fill="#b15741" d="M134.255 9.925z"/></g><g/><g clip-path="url(#c00zaa)"><path fill="#b15741" d="M127.617 15.223z"/></g><g/><g clip-path="url(#c00zab)"><path fill="#b15741" d="M136.627 7.62z"/></g><g/><g clip-path="url(#c00zac)"><path fill="#b15741" d="M135.099 9.142z"/></g><g/><g clip-path="url(#c00zad)"><path fill="#b15741" d="M123.493 18.031z"/></g><g/><g clip-path="url(#c00zae)"><path fill="#b15741" d="M119.354 20.615z"/></g><g/><g clip-path="url(#c00zaf)"><path fill="#b15741" d="M120.386 19.99z"/></g><g/><g clip-path="url(#c00zag)"><path fill="#b15741" d="M121.42 19.351z"/></g><g/><g clip-path="url(#c00zah)"><path fill="#b15741" d="M117.319 21.815z"/></g><g/><g clip-path="url(#c00zai)"><path fill="#b15741" d="M118.327 21.226z"/></g><g/><g clip-path="url(#c00zaj)"><path fill="#b15741" d="M116.328 22.385c.27-.154.54-.308.811-.465l-.81.465z"/></g><g/><g clip-path="url(#c00zak)"><path fill="#b15741" d="M122.454 18.7z"/></g><g/><g clip-path="url(#c00zal)"><path fill="#b15741" d="M125.57 16.65z"/></g><g/><g clip-path="url(#c00zam)"><path fill="#b15741" d="M124.532 17.348z"/></g><g/><g clip-path="url(#c00zan)"><path fill="#b15741" d="M126.595 15.945z"/></g><g/><g clip-path="url(#c00zao)"><path fill="#b15741" d="M137.326 7.788c-.113-.182-.22-.365-.338-.545-.1.106-.202.21-.303.316a37.734 37.734 0 0 1-.774.793l-.064.064c-.245.243-.494.485-.748.726-.023.02-.045.043-.068.064-.254.24-.513.48-.776.72l-.076.069c-.263.237-.53.474-.801.71l-.08.07c-.272.236-.547.47-.826.704l-.084.07c-.278.233-.56.465-.845.695l-.092.074c-.284.229-.57.456-.86.682-.034.027-.067.054-.102.08-.288.225-.578.448-.871.67-.036.027-.072.055-.11.082a88.897 88.897 0 0 1-1.891 1.39l-.116.085a97.915 97.915 0 0 1-1.931 1.344l-.13.089c-.302.204-.604.407-.907.609l-.133.088c-.302.2-.604.398-.907.595l-.14.09c-.3.195-.6.387-.9.578-.05.03-.098.064-.148.095-.295.187-.59.372-.885.556l-.164.103a147.704 147.704 0 0 1-1.902 1.16l-.175.107-.852.505-.173.103-.835.487-.18.104c-.272.158-.542.312-.811.466l-.19.108-.77.435c-.072.04-.145.08-.217.122l-.737.409c-.075.04-.15.083-.224.124l-.712.39c-.076.04-.152.083-.227.124l-.661.356-.258.138-.624.332c-.086.045-.174.093-.26.137-.212.113-.421.22-.628.33l-.222.115c-.214.112-.422.219-.63.325l-.19.099-.535.272-.257.13-.511.257a146.838 146.838 0 0 1-.935.465c.239.026.465.058.685.092l.05.008c.224.036.443.079.66.129 7.674-3.873 21.172-11.503 28.39-19.495z"/></g><g/><g clip-path="url(#c00zap)"><path fill="#c46449" d="M106.48 12.24c-.577 1.267-1.728 12.086-3.915 10.36 0 0-2.187-5.526-.575-9.093 1.611-3.569 3.913-6.33 4.144-7.137 1.611 1.726 3.683 5.18 3.222 9.9-.385 3.946-1.302 7.405-2.919 9.51 3.402-1.647 8.505-4.35 13.737-7.61 1.368-1.468 2.53-3.919 2.232-9.01-.358.787-1.075 7.523-2.436 6.448 0 0-1.362-3.44-.359-5.66 1.003-2.222 2.437-3.942 2.58-4.443 1.003 1.074 2.293 3.224 2.006 6.162-.17 1.753-.51 3.352-1.057 4.601a100.5 100.5 0 0 0 6.227-4.44c.906-.95 1.684-2.546 1.488-5.904-.233.513-.699 4.898-1.585 4.198 0 0-.887-2.239-.234-3.685.653-1.446 1.586-2.565 1.68-2.89.652.698 1.492 2.097 1.305 4.01-.092.941-.26 1.811-.515 2.545 1.655-1.39 3.166-2.806 4.463-4.22a2.328 2.328 0 0 0-.26-.206c-13.29-8.842-28.453-3.83-34.8.092a10.276 10.276 0 0 0-2.948 2.756c-6.582 9.174-11.147 22.111-14.218 34.07-.07.417-.148.578-.148.578S95.66 32.614 98.537 30.197c2.877-2.418 8.748-4.144 7.942-17.957z"/></g><g/><g clip-path="url(#c00zaq)"><path fill="#c46449" d="M84.87 44.188z"/></g><g/><g clip-path="url(#c00zar)"><path fill="#c46449" d="M82.473 47.84a.966.966 0 0 0-.01.045 36.176 36.176 0 0 1 2.369-3.647 35.869 35.869 0 0 0-2.36 3.601z"/></g><g/><g clip-path="url(#c00zas)"><path fill="#c46449" d="M85.35 43.576z"/></g><g/><g clip-path="url(#c00zat)"><path fill="#c46449" d="M97.1 38.294l-.05.018.05-.018z"/></g><g/><g clip-path="url(#c00zau)"><path fill="#b15741" d="M97.961 38.024z"/></g><g/><g clip-path="url(#c00zav)"><path fill="#b15741" d="M85.261 43.686l.088-.11a5.294 5.294 0 0 0-.088.11z"/></g><g/><g clip-path="url(#c00zaw)"><path fill="#b15741" d="M84.832 44.238l.038-.05-.038.05z"/></g><g/><g clip-path="url(#c00zax)"><path fill="#b15741" d="M97.05 38.312z"/></g><g/><g clip-path="url(#c00zay)"><path fill="#b15741" d="M96.151 38.675c.302-.133.603-.255.9-.363l.05-.017c.29-.104.58-.198.86-.271 0 0-3.798-2.072-12.2 5.065-.132.148-.27.312-.412.487l-.088.11c-.127.159-.257.325-.39.503l-.039.049a36.308 36.308 0 0 0-2.37 3.648c-.116.51-.225 1.012-.335 1.516 1.27-2.305 2.63-4.255 3.633-5.39 5.102-4.332 8.504-5.268 10.391-5.337z"/></g><g/><g clip-path="url(#c00zaz)"><path fill="#b15741" d="M132.632 53.675c.01-.57-.059-1.141-.056-1.711.002-.294-.105-.444-.404-.517-.458-.11-.912-.235-1.36-.375-1.493-.464-2.98-.944-4.329-1.726-1.052-.61-2.053-1.29-3.058-1.964.211 2.108.431 4.262.656 6.397.807.693 1.71 1.279 2.573 1.905 1.09.79 2.27 1.465 3.377 2.234.951.66 1.964 1.137 3.151 1.254.086.009.16.122.24.187-.014-.101-.025-.202-.043-.301-.329-1.784-.775-3.552-.747-5.383z"/></g><g/><g clip-path="url(#c00zaA)"><path fill="#c46449" d="M134.08 61.6c-.245-.784-.365-1.594-.603-2.378-.045-.244-.221-.29-.456-.337-.698-.139-1.405-.309-1.993-.693-1.577-1.03-3.2-2-4.72-3.112-.768-.562-1.506-1.16-2.271-1.727.7 6.667 2.367 18.401 3.102 22.713.622-.084 13.45 4.165 13.378-2.188-.025-2.167-.83-2.638-5.106-8.899-.686-1.004-.97-2.222-1.331-3.379z"/></g><g/><g clip-path="url(#c00zaB)"><path fill="#c46449" d="M144.626 36.567c-1.422.366-1.308.988-.87 1.688.563.901 1.913 1.437 1.24 2.326-.18.237-.295.434-.464.695-.141.058-.362.262-.503.322a5.697 5.697 0 0 1-.598.228 2.618 2.618 0 0 1-.623.154c-.01.001-.02.01-.021.02a.024.024 0 0 0 .018.026c.444.075.9.008 1.333-.084.157-.034.32-.056.473-.106.31.05.616.183.604.503-.236.655-1.2 1.746-1.145 2.092.054.345.48 2.54-.198 3.62-.678 1.078-1.048 1.911-5.056 2.034-1.864.057-8.62-1.154-15.51-3.898-.353-3.535-.68-6.9-.968-9.766-.467-4.637.637-9.044 4.769-11.199 3.94-2.054 9.884-4.065 12.969-5.373.574 1.31.975 2.578.975 3.642 0 3.156-1.338 4.988-.324 6.115.816.906 4.207 2.923 5.377 5.45.412.89-.528 1.265-1.478 1.511zm-12.977-8.507c.68-.892 3.822-2.888 4.18-3.032.978-.394 3.13-.622 3.527-.694.294-.053.38-.177.37-.457a1.36 1.36 0 0 0-.153-.573c-.132-.257-.328-.428-.651-.409-.7.043-3.298.792-3.686.946-.802.318-2.532 1.931-2.954 2.333a11.195 11.195 0 0 0-1.413 1.683c-.08.113-.207.598-.025.632.22.041.77-.385.805-.429zm8.337-.263c.062-.103.007-.229-.106-.21-.13.021-.59.227-.7.153-.024-.107-.032-.212-.073-.3-.16-.356-.302-.723-.503-1.053-.217-.357-.504-.45-.836-.335-.113.04-.216.114-.317.181-.45.296-.93.557-1.34.901-.587.495-1.132 1.036-1.791 1.444-.211.132-.976.78-1.201.938l.383.163c.18-.124 1.928-1.302 2.58-1.819.47-.372.912-.789 1.494-1.007.407-.153.618-.097.779.301.113.278.208.564.314.858l-1.908 1.373c-.01.008-.023.011-.034.017l-1.093.631c-.882.051-1.81.136-2.433.25a.225.225 0 1 0 .08.444c.72-.132 1.895-.225 2.9-.268.349.082.694.212 1.039.311.84.241 1.683.357 2.49-.122.077-.046.184-.11.198-.18.024-.132-.057-.244-.197-.285-.063-.018-.13-.019-.22-.032a1.45 1.45 0 0 0 .039-.287.643.643 0 0 1-.443-.536.638.638 0 0 1 .24-.566c-.014-.06-.03-.119-.043-.179.4-.292.424-.318.702-.786z"/></g><g/><g clip-path="url(#c00zaC)" opacity=".53"><g opacity=".53"><path fill="#b15741" d="M138.85 37.744c-.48.992-2.981.776-5.588-.482-2.606-1.26-4.331-3.085-3.851-4.077.479-.993 2.98-.777 5.587.482 2.607 1.259 4.33 3.084 3.852 4.077z"/></g></g><g/><g clip-path="url(#c00zaD)"><path fill="#b15741" d="M103.947 28.815c-2.417 1.036-9.553 5.87-9.553 6.791.233-.03.506-.055.807-.076 1.934-1.75 6.827-4.967 8.746-5.79 2.254-.549 4.282.096 5.385.757.086.014.174.026.255.045 2.072.46-1.381-2.763-5.64-1.727z"/></g><g/><g clip-path="url(#c00zaE)"><path fill="#b15741" d="M91.563 42.284c-.409.292-.776.567-1.083.809 12.546 1.61 14.042-6.561 14.042-6.561l-.286-.013c-.796 2.005-3.616 6.563-12.673 5.765z"/></g><g/><g clip-path="url(#c00zaF)"><path fill="#b15741" d="M122.406 10.084c.021.366.033.714.04 1.053.012-.613.002-1.267-.04-1.978-.358.788-1.075 7.524-2.436 6.449 0 0-.603-1.529-.709-3.207-.134 1.994.71 4.132.71 4.132 1.36 1.075 2.077-5.661 2.435-6.449z"/></g><g/><g clip-path="url(#c00zaG)"><path fill="#b15741" d="M86.01 56.65c.356-.718.705-1.312 1.016-1.706-1.61 1.15-5.808 4.614-6.1 8.403-.012.164-.025.52-.005 1.02l.005-.095c.243-3.145 3.172-6.061 5.084-7.621z"/></g><g/><g clip-path="url(#c00zaH)"><path fill="#b15741" d="M131.506 10.102c.11-.09.212-.184.32-.276.085-.425.15-.876.195-1.344a5.31 5.31 0 0 0 .001-.952v.027c-.092.941-.26 1.812-.516 2.545z"/></g><g/><g clip-path="url(#c00zaI)"><path fill="#b15741" d="M130.856 6.85c.01.176.016.346.02.513.014-.441.01-.916-.02-1.438-.233.513-.7 4.897-1.586 4.197 0 0-.354-.895-.45-1.918-.145 1.338.45 2.843.45 2.843.885.7 1.352-3.684 1.585-4.197z"/></g><g/><g clip-path="url(#c00zaJ)"><path fill="#b15741" d="M123.14 16.268c.146-.096.29-.196.435-.292.298-1.009.502-2.157.622-3.384.044-.449.047-.877.024-1.288-.007.12-.012.24-.024.363-.17 1.753-.51 3.352-1.057 4.601z"/></g><g/><g clip-path="url(#c00zaK)"><path fill="#b15741" d="M107.264 25.375c1.107-2.099 1.78-4.972 2.093-8.182.06-.613.075-1.204.056-1.773-.01.279-.028.562-.056.85-.385 3.947-1.303 7.406-2.92 9.51.265-.128.543-.265.827-.405z"/></g><g/><g clip-path="url(#c00zaL)"><path fill="#b15741" d="M108.09 33.65a41.063 41.063 0 0 1-3.411-2.027c-.646.1-1.077.189-1.077.189s2.072 1.497 4.489 2.763c2.417 1.266 8.518-.576 8.518-.576s-.262-.294-.678-.737c-1.654.433-5.914 1.397-7.84.388z"/></g><g/><g clip-path="url(#c00zaM)"><path fill="#b15741" d="M83.228 67.606a2.36 2.36 0 0 1-.119-.594c-.045.635-.013 1.16.12 1.519 1.265.345 3.797-6.446 4.948-9.44 1.152-2.991 1.497-4.027 5.18-8.402-.33.075-.646.155-.96.235-2.788 3.423-3.179 4.537-4.22 7.244-1.15 2.992-3.683 9.783-4.949 9.438z"/></g><g/><g clip-path="url(#c00zaN)"><path fill="#b15741" d="M106.48 13.165c.04.703.06 1.365.067 2.006a41.536 41.536 0 0 0-.068-2.93c-.576 1.266-1.727 12.086-3.914 10.359 0 0-1.044-2.64-1.157-5.448-.127 3.124 1.157 6.372 1.157 6.372 2.187 1.727 3.338-9.093 3.914-10.359z"/></g><g/><g clip-path="url(#c00zaO)"><path fill="#b15741" d="M143.564 42.039c1.029-.128.854-.193 1.077-.174.223.018.641.176.457.399-.184.223-.463.352-.932.413-.389.05-.92-.034-1.143-.202-.223-.167-.246-.238-.302-.312-.055-.075.615-.096.843-.124z"/></g><g><path fill="#c46449" d="M160.11 68.135c-1.115 3.57-2.57 4.787-3.868 5.337.173.015.34.035.502.056.316.043.628.102.933.181 1.106-.47 2.128-1.832 2.972-3.543.89-1.805.585-3.486.203-4.413-.212.285-1.54 1.037-2.714 2.212-1.174 1.175-1.134 3.697-1.134 3.697.609 1.013 2.688-3.11 3.106-3.527z"/></g><g><path fill="#c46449" d="M152.064 69.324c-1.313 4.206-3.028 5.641-4.558 6.29.204.017.402.04.592.065.372.05.74.12 1.1.213 1.303-.554 2.506-2.159 3.501-4.175 1.05-2.127.69-4.108.24-5.2-.25.336-1.815 1.222-3.199 2.607-1.384 1.385-1.336 4.355-1.336 4.355.718 1.195 3.167-3.664 3.66-4.155z"/></g><g><path fill="#c46449" d="M69.13 68.135c1.114 3.57 2.568 4.787 3.867 5.337a11.89 11.89 0 0 0-.503.056 8.074 8.074 0 0 0-.932.181c-1.107-.47-2.128-1.832-2.972-3.543-.89-1.805-.585-3.486-.203-4.413.211.285 1.54 1.037 2.714 2.212 1.174 1.175 1.134 3.697 1.134 3.697-.609 1.013-2.688-3.11-3.106-3.527z"/></g><g><path fill="#c46449" d="M76.246 69.96c1.202 3.851 2.772 5.164 4.173 5.757-.187.016-.368.037-.542.061-.34.046-.677.11-1.006.195-1.194-.507-2.296-1.976-3.206-3.823-.96-1.946-.63-3.76-.22-4.76.23.308 1.661 1.12 2.928 2.386 1.268 1.268 1.224 3.988 1.224 3.988-.658 1.093-2.9-3.355-3.35-3.804z"/></g><g><path fill="#c46449" d="M86.703 88.554c4.513 0 13.328 4.07 13.328-1.54 0-3.142-4.45-3.374-4.45.106-1.075-2.763.802-4.43 2.87-4.43 2.466 0 4.448 1.752 4.448 4.24 0 5.884-7.107 5.23-9.089 4.66v9.237c0 2.616 1.054 2.679 1.054 2.679.022.084.022.422-.379.422h-4.724c-.4 0-.4-.338-.4-.422 0 0 1.054-.063 1.075-2.636v-7.803c0-1.582-.612-3.817-3.944-3.817-4.239 0-3.922 4.724-1.16 4.724 2.236 0 2.025-2.763.738-2.763 1.793-.38 2.742.696 2.742 2.004 0 1.56-1.603 2.868-3.374 2.868-2.53 0-3.712-2.173-3.712-3.522 0-2.172 1.561-4.007 4.977-4.007z"/></g><g><path fill="#c46449" d="M108.088 89.82c1.96 0 6.284.126 6.284 7.127 0 5.588-2.678 7.107-6.284 7.107-3.627 0-6.242-1.582-6.242-7.107 0-6.896 4.259-7.128 6.242-7.128zm0 1.095c-1.75 0-2.826 1.034-2.826 6.074 0 4.808 1.076 5.99 2.826 5.99 1.729 0 2.868-.907 2.868-5.99s-1.14-6.074-2.868-6.074z"/></g><g><path fill="#c46449" d="M120.636 100.954v-3.838l-2.531-4.07c-1.603-2.552-2.7-2.615-2.7-2.615-.041-.085-.062-.443.338-.443h4.724c.4 0 .422.316.443.443 0 0-1.012.063.612 2.657l1.603 3.015 1.687-3.015c1.434-2.742.696-2.657.696-2.657-.022-.169 0-.443.4-.443h2.742c.4 0 .274.358.21.443 0 0-1.18-.02-2.762 2.615l-2.067 3.627v4.26c.02 2.087.717 2.72 1.139 2.931 2.868 1.561 6.79 4.175 12.147 4.07 5.715-.105 6.875-3.627 6.875-3.627l.4.295c-1.117 3.248-5.314 4.323-8.33 4.323-10.84 0-13.095-4.998-16.301-4.998-.401 0-.38-.358-.38-.42 0 0 1.034-.086 1.055-2.553z"/></g><g><path fill="#c46449" d="M130.907 103.927c-.401 0-.295-.358-.274-.443 0 0 1.075-.063 1.813-2.614l2.194-7.824c.717-2.552-.317-2.636-.317-2.636 0-.148.169-.422.464-.422h4.724c.4 0 .506.358.527.422 0 0-1.033.084-.337 2.636l2.214 7.824c.738 2.551 1.814 2.614 1.814 2.614.02.085.126.443-.274.443h-4.724c-.401 0-.485-.358-.506-.443 0 0 1.033-.063.295-2.657l-.612-2.193h-3.585l-.632 2.193c-.717 2.594.316 2.657.316 2.657-.021.085-.105.443-.506.443zm6.706-6.326l-1.265-4.513c-.085-.253-.148-.486-.232-.696-.085.21-.148.443-.232.696l-1.266 4.513z"/></g><g><path fill="#c46449" d="M152.985 147.507c.113-1.02 3.622-3.116 4.35-3.656 3.325-2.473 6.985-4.607 10.932-5.914 7.66-2.535 16.012.048 21.23 6.12 5.86 6.82 5.972 15.503 2.848 23.57-3.544 9.154-11.79 14.943-21.297 16.594-10.662 1.85-21.418-1.38-30.96-5.996-15.478-7.487-29.054-18.21-42.275-29.061-12.91-10.597-25.635-22.384-41.167-29.048-7.027-3.014-14.654-4.768-22.325-4.022-14.222 1.384-26.546 11.712-31.757 24.828-8.555 21.536 5.551 43.334 28.004 46.942 7.745 1.245 16.192.244 22.941-3.952 6.734-4.186 11.528-11.795 11.271-19.72-.256-7.923-6.19-15.62-14.017-16.885.805 2.56 1.618 5.156 1.737 7.837.12 2.68-.533 5.503-2.337 7.49-7.873 8.68-21.752 1.132-27.77-5.95-7.175-8.444-5.14-22.021 3.7-28.475 12.406-9.058 27.45-.095 37.894 7.685 10.964 8.167 19.998 18.504 29.505 28.243 9.873 10.115 20.39 20.314 32.621 27.793 12.852 7.859 27.551 11.827 42.592 12.064 23.48.37 44.794-15.506 49.901-38.62 5.405-24.466-18.423-45.132-41.893-42.412-13.359 1.549-22.259 11.32-23.728 24.545z"/></g></g></svg>