<svg xmlns="http://www.w3.org/2000/svg" width="104" height="109" viewBox="0 0 104 109"><g><g><path fill="#c46449" d="M99.802 71.284c-1.532.514-3.151.966-4.752 1.464-3.206.978-6.446 1.931-9.686 2.427-1.62.248-3.227.376-4.836.364-1.608 0-3.206-.119-4.78-.307-3.146-.37-6.181-1.013-9.057-1.596-1.443-.293-2.86-.565-4.24-.742a24.889 24.889 0 0 0-3.996-.22 25.609 25.609 0 0 0-6.153 1.022 25.645 25.645 0 0 0-6.153-1.023c-1.273-.04-2.618.04-3.997.221-1.381.177-2.797.45-4.24.742-2.875.583-5.91 1.225-9.058 1.596a40.299 40.299 0 0 1-4.78.307 30.391 30.391 0 0 1-4.835-.364c-3.24-.496-6.48-1.449-9.686-2.427-1.6-.498-3.22-.95-4.751-1.464-1.534-.52-3.007-1.162-4.286-2.127 0 0 .156.176.473.48.316.303.805.725 1.479 1.183.672.461 1.53.95 2.535 1.434 1.006.487 2.14.976 3.364 1.51 2.453 1.06 5.312 2.25 8.467 3.101 1.578.416 3.228.751 4.907.911 1.679.161 3.362.17 4.986.055 3.565-.244 7.28-1.09 10.817-2.03 1.769-.47 3.486-.945 5.152-1.28 1.668-.338 3.272-.518 4.8-.5 1.142.007 2.224.082 3.227.204.552.067 1.079.148 1.579.241.5-.093 1.026-.174 1.578-.24a28.218 28.218 0 0 1 3.226-.205c1.53-.018 3.134.162 4.8.5 1.668.335 3.384.81 5.153 1.28 3.537.94 7.253 1.786 10.817 2.03 1.625.115 3.308.106 4.986-.055 1.679-.16 3.329-.495 4.907-.91 3.155-.852 6.015-2.042 8.467-3.102 1.224-.534 2.358-1.023 3.364-1.51 1.005-.484 1.863-.973 2.535-1.434a11.254 11.254 0 0 0 1.952-1.663c-1.278.965-2.752 1.606-4.285 2.127z"/></g><g clip-path="url(#clip-0:131:c)"><path fill="#c46449" d="M64.501 15.306z"/></g><g clip-path="url(#clip-0:130:c)"><path fill="#c46449" d="M56.179 20.72l.175-.105-.175.105z"/></g><g clip-path="url(#clip-0:129:c)"><path fill="#c46449" d="M63.477 16.027l.118-.082"/></g><g clip-path="url(#clip-0:128:c)"><path fill="#c46449" d="M66.509 13.832l.109-.083c-.036.028-.072.056-.11.083z"/></g><g clip-path="url(#clip-0:127:c)"><path fill="#c46449" d="M67.49 13.08l.102-.08-.103.08z"/></g><g clip-path="url(#clip-0:126:c)"><path fill="#c46449" d="M46.778 25.93c.062-.032.128-.066.19-.1-.062.034-.128.068-.19.1z"/></g><g clip-path="url(#clip-0:125:c)"><path fill="#c46449" d="M47.598 25.506l.222-.116-.222.116z"/></g><g clip-path="url(#clip-0:124:c)"><path fill="#c46449" d="M65.515 14.572c.036-.026.07-.053.107-.079l-.107.08z"/></g><g clip-path="url(#clip-0:123:c)"><path fill="#c46449" d="M48.449 25.061l.26-.138-.26.138z"/></g><g clip-path="url(#clip-0:122:c)"><path fill="#c46449" d="M50.25 24.098l.229-.125-.228.125z"/></g><g clip-path="url(#clip-0:121:c)"><path fill="#c46449" d="M59.305 18.794c.05-.03.1-.063.15-.095l-.15.095z"/></g><g clip-path="url(#clip-0:120:c)"><path fill="#c46449" d="M57.213 20.095z"/></g><g clip-path="url(#clip-0:119:c)"><path fill="#c46449" d="M58.256 19.454c.055-.034.109-.07.164-.103l-.164.103z"/></g><g clip-path="url(#clip-0:118:c)"><path fill="#c46449" d="M60.353 18.123l.14-.091-.14.09z"/></g><g clip-path="url(#clip-0:117:c)"><path fill="#c46449" d="M51.19 23.584l.224-.125-.224.125z"/></g><g clip-path="url(#clip-0:116:c)"><path fill="#c46449" d="M49.333 24.592l.257-.138-.258.138z"/></g><g clip-path="url(#clip-0:115:c)"><path fill="#c46449" d="M62.44 16.74z"/></g><g clip-path="url(#clip-0:114:c)"><path fill="#c46449" d="M61.4 17.436l.132-.088c-.044.03-.088.06-.133.088z"/></g><g clip-path="url(#clip-0:113:c)"><path fill="#c46449" d="M55.154 21.328z"/></g><g clip-path="url(#clip-0:112:c)"><path fill="#c46449" d="M54.14 21.92l.18-.104-.18.104z"/></g><g clip-path="url(#clip-0:111:c)"><path fill="#c46449" d="M72.031 9.206l.067-.063-.067.063z"/></g><g clip-path="url(#clip-0:110:c)"><path fill="#c46449" d="M45.275 27.154l-.05-.008.05.008z"/></g><g clip-path="url(#clip-0:109:c)"><path fill="#c46449" d="M45.244 26.705l.23-.116a49.63 49.63 0 0 0-.23.116z"/></g><g clip-path="url(#clip-0:108:c)"><path fill="#c46449" d="M72.911 8.352l-.064.064.064-.064z"/></g><g clip-path="url(#clip-0:107:c)"><path fill="#c46449" d="M53.138 22.494c.063-.036.126-.073.19-.108-.064.035-.127.072-.19.108z"/></g><g clip-path="url(#clip-0:106:c)"><path fill="#c46449" d="M73.627 7.62l.059-.061-.059.06z"/></g><g clip-path="url(#clip-0:105:c)"><path fill="#c46449" d="M45.986 26.332l.256-.13c-.085.042-.173.088-.256.13z"/></g><g clip-path="url(#clip-0:104:c)"><path fill="#c46449" d="M77.682 15.205c-.618-1.916-1.715-4.77-3.355-7.417-7.22 7.992-20.717 15.622-28.392 19.495.635.147 1.263.364 2.034.727 1.956.92 5.64 5.065 5.64 5.065s-6.101 1.84-8.518.575c-2.417-1.266-4.49-2.762-4.49-2.762s3.914-.806 5.986-.346c2.072.46-1.381-2.762-5.64-1.726-2.417 1.036-9.554 5.87-9.554 6.79 2.648-.344 10.13 0 10.13 0s-1.497 8.173-14.043 6.562c1.257-.987 3.493-2.532 5.672-3.493-1.887.069-5.29 1.006-10.391 5.339-1.003 1.133-2.364 3.084-3.634 5.388a227.122 227.122 0 0 0-1.67 8.324c1.604-2.571 4.89-6.15 12.9-7.961-3.683 4.374-4.028 5.41-5.18 8.402-1.15 2.993-3.683 9.784-4.95 9.439-.804-2.187 2.074-10.475 3.8-12.662-1.612 1.152-5.81 4.615-6.1 8.404-.07.887-.137 7.358 4.834 12.024 10.512.895 27.725 2.634 38.723 1.808a2.302 2.302 0 0 0 2.07-2.834c-1.767-7.303-4.421-27.9-5.52-38.812a11.384 11.384 0 0 1 6.073-11.236c4.276-2.23 10.924-4.411 13.702-5.695 1.197-.553.278-2.142-.127-3.398z"/></g><g clip-path="url(#clip-0:103:c)"><path fill="#c46449" d="M68.451 12.318l.092-.074-.092.074z"/></g><g clip-path="url(#clip-0:102:c)"><path fill="#c46449" d="M70.298 10.774l.08-.07-.08.07z"/></g><g clip-path="url(#clip-0:101:c)"><path fill="#c46449" d="M69.389 11.549z"/></g><g clip-path="url(#clip-0:100:c)"><path fill="#c46449" d="M52.15 23.05z"/></g><g clip-path="url(#clip-0:99:c)"><path fill="#c46449" d="M71.179 9.994l.076-.069"/></g><g clip-path="url(#clip-0:98:c)"><path fill="#b15741" d="M50.478 23.973l.712-.389-.712.39z"/></g><g clip-path="url(#clip-0:97:c)"><path fill="#b15741" d="M52.368 22.928l.77-.435-.77.435z"/></g><g clip-path="url(#clip-0:96:c)"><path fill="#b15741" d="M51.414 23.46z"/></g><g clip-path="url(#clip-0:95:c)"><path fill="#b15741" d="M45.935 27.282z"/></g><g clip-path="url(#clip-0:94:c)"><path fill="#b15741" d="M49.59 24.454l.66-.356-.66.356z"/></g><g clip-path="url(#clip-0:93:c)"><path fill="#b15741" d="M44.54 27.053z"/></g><g clip-path="url(#clip-0:92:c)"><path fill="#b15741" d="M45.475 26.589l.512-.256-.512.256z"/></g><g clip-path="url(#clip-0:91:c)"><path fill="#b15741" d="M45.225 27.146z"/></g><g clip-path="url(#clip-0:90:c)"><path fill="#b15741" d="M46.243 26.202l.535-.272-.535.272z"/></g><g clip-path="url(#clip-0:89:c)"><path fill="#b15741" d="M48.709 24.923z"/></g><g clip-path="url(#clip-0:88:c)"><path fill="#b15741" d="M46.97 25.83z"/></g><g clip-path="url(#clip-0:87:c)"><path fill="#b15741" d="M47.82 25.39z"/></g><g clip-path="url(#clip-0:86:c)"><path fill="#b15741" d="M69.473 11.479z"/></g><g clip-path="url(#clip-0:85:c)"><path fill="#b15741" d="M67.592 13z"/></g><g clip-path="url(#clip-0:84:c)"><path fill="#b15741" d="M70.378 10.705z"/></g><g clip-path="url(#clip-0:83:c)"><path fill="#b15741" d="M68.543 12.244z"/></g><g clip-path="url(#clip-0:82:c)"><path fill="#b15741" d="M65.622 14.493z"/></g><g clip-path="url(#clip-0:81:c)"><path fill="#b15741" d="M66.618 13.75z"/></g><g clip-path="url(#clip-0:80:c)"><path fill="#b15741" d="M71.255 9.925z"/></g><g clip-path="url(#clip-0:79:c)"><path fill="#b15741" d="M64.617 15.223z"/></g><g clip-path="url(#clip-0:78:c)"><path fill="#b15741" d="M73.627 7.62z"/></g><g clip-path="url(#clip-0:77:c)"><path fill="#b15741" d="M72.099 9.142z"/></g><g clip-path="url(#clip-0:76:c)"><path fill="#b15741" d="M60.494 18.031z"/></g><g clip-path="url(#clip-0:75:c)"><path fill="#b15741" d="M56.354 20.615z"/></g><g clip-path="url(#clip-0:74:c)"><path fill="#b15741" d="M57.386 19.99z"/></g><g clip-path="url(#clip-0:73:c)"><path fill="#b15741" d="M58.42 19.351z"/></g><g clip-path="url(#clip-0:72:c)"><path fill="#b15741" d="M54.319 21.815z"/></g><g clip-path="url(#clip-0:71:c)"><path fill="#b15741" d="M55.328 21.226c.283-.167.566-.334.85-.505-.284.17-.568.338-.85.505z"/></g><g clip-path="url(#clip-0:70:c)"><path fill="#b15741" d="M53.328 22.385c.27-.154.54-.308.811-.465l-.81.465z"/></g><g clip-path="url(#clip-0:69:c)"><path fill="#b15741" d="M59.454 18.7z"/></g><g clip-path="url(#clip-0:68:c)"><path fill="#b15741" d="M62.57 16.65z"/></g><g clip-path="url(#clip-0:67:c)"><path fill="#b15741" d="M61.532 17.348z"/></g><g clip-path="url(#clip-0:66:c)"><path fill="#b15741" d="M63.595 15.945z"/></g><g clip-path="url(#clip-0:65:c)"><path fill="#b15741" d="M74.326 7.788c-.113-.182-.22-.365-.339-.545-.098.106-.202.21-.302.316l-.058.06a40.89 40.89 0 0 1-1.529 1.523l-.067.064c-.254.24-.513.48-.776.72l-.076.069c-.263.237-.53.474-.8.71a64.761 64.761 0 0 1-.906.774l-.084.07c-.28.233-.56.465-.846.695l-.092.074c-.284.229-.57.456-.859.682l-.103.08c-.288.225-.578.448-.87.67l-.11.082c-.293.222-.589.442-.887.662l-.108.079a76.27 76.27 0 0 1-1.013.734c-.3.214-.603.427-.906.638l-.118.082c-.3.21-.603.418-.907.624l-.13.089c-.302.204-.604.407-.908.609l-.133.088c-.302.2-.603.398-.906.595l-.14.09c-.299.195-.599.387-.899.578-.05.03-.1.064-.149.095-.295.187-.59.372-.885.556l-.164.103a147.704 147.704 0 0 1-1.902 1.16l-.175.107a171.072 171.072 0 0 1-1.86 1.095l-.18.104c-.272.158-.542.312-.81.466-.065.035-.128.072-.19.108-.26.147-.516.29-.77.435-.073.04-.146.08-.218.122l-.738.409c-.074.04-.149.083-.223.124-.24.132-.477.26-.712.39-.076.04-.152.083-.228.124l-.66.356-.258.138c-.21.113-.418.222-.624.332l-.259.137c-.214.113-.422.22-.629.33l-.222.115c-.214.112-.422.219-.629.325l-.19.099-.536.272-.257.13a122.109 122.109 0 0 1-.743.373l-.704.349c.24.026.465.058.686.092l.05.008c.224.036.443.079.66.129C53.61 23.41 67.107 15.78 74.326 7.788z"/></g><g clip-path="url(#clip-0:64:c)"><path fill="#c46449" d="M43.479 12.24c-.575 1.267-1.727 12.086-3.913 10.36 0 0-2.187-5.526-.576-9.093 1.612-3.569 3.914-6.33 4.144-7.137 1.611 1.726 3.683 5.18 3.223 9.9-.385 3.946-1.303 7.405-2.92 9.51 3.402-1.647 8.505-4.35 13.737-7.61 1.368-1.468 2.529-3.919 2.232-9.01-.358.787-1.075 7.523-2.436 6.448 0 0-1.362-3.44-.359-5.66 1.004-2.222 2.437-3.942 2.58-4.443 1.003 1.074 2.293 3.224 2.006 6.162-.171 1.753-.51 3.352-1.056 4.601a100.801 100.801 0 0 0 6.227-4.44c.905-.95 1.684-2.546 1.487-5.904-.233.513-.699 4.898-1.585 4.198 0 0-.886-2.239-.234-3.685.653-1.446 1.586-2.565 1.68-2.89a5.156 5.156 0 0 1 1.305 4.01c-.091.941-.26 1.811-.515 2.545 1.656-1.39 3.166-2.806 4.463-4.22a2.24 2.24 0 0 0-.26-.206c-13.291-8.842-28.452-3.83-34.8.092a10.276 10.276 0 0 0-2.948 2.756c-6.582 9.174-11.147 22.111-14.217 34.07-.072.417-.149.578-.149.578S32.66 32.614 35.537 30.197c2.878-2.418 8.748-4.144 7.942-17.957z"/></g><g clip-path="url(#clip-0:63:c)"><path fill="#c46449" d="M21.87 44.188z"/></g><g clip-path="url(#clip-0:62:c)"><path fill="#c46449" d="M19.473 47.84a.966.966 0 0 0-.01.045 36.002 36.002 0 0 1 2.37-3.647 35.695 35.695 0 0 0-2.36 3.601z"/></g><g clip-path="url(#clip-0:61:c)"><path fill="#c46449" d="M22.35 43.576z"/></g><g clip-path="url(#clip-0:60:c)"><path fill="#c46449" d="M34.1 38.294c-.017.006-.033.011-.049.018.016-.007.032-.012.05-.018z"/></g><g clip-path="url(#clip-0:59:c)"><path fill="#b15741" d="M34.961 38.024z"/></g><g clip-path="url(#clip-0:58:c)"><path fill="#b15741" d="M22.261 43.686l.088-.11a5.294 5.294 0 0 0-.088.11z"/></g><g clip-path="url(#clip-0:57:c)"><path fill="#b15741" d="M21.832 44.238a.938.938 0 0 1 .038-.05l-.038.05z"/></g><g clip-path="url(#clip-0:56:c)"><path fill="#b15741" d="M34.05 38.312z"/></g><g clip-path="url(#clip-0:55:c)"><path fill="#b15741" d="M33.151 38.675c.302-.133.603-.255.9-.363l.05-.017c.29-.104.58-.198.86-.271 0 0-3.798-2.072-12.2 5.065-.132.148-.27.312-.412.487l-.088.11a19.533 19.533 0 0 0-.429.552 36.14 36.14 0 0 0-2.369 3.648c-.117.51-.226 1.012-.336 1.516 1.27-2.305 2.63-4.255 3.633-5.39 5.102-4.332 8.504-5.268 10.391-5.337z"/></g><g clip-path="url(#clip-0:54:c)"><path fill="#b15741" d="M69.632 53.675c.009-.57-.06-1.141-.056-1.711.002-.294-.105-.444-.404-.517-.458-.11-.912-.235-1.36-.375-1.493-.464-2.981-.944-4.328-1.726-1.052-.61-2.054-1.29-3.06-1.964.212 2.108.432 4.262.657 6.397.807.693 1.71 1.279 2.573 1.905 1.089.79 2.27 1.465 3.377 2.234.952.66 1.964 1.137 3.152 1.254.086.009.159.122.239.187-.014-.101-.024-.202-.043-.301-.33-1.784-.774-3.552-.747-5.383z"/></g><g clip-path="url(#clip-0:53:c)"><path fill="#c46449" d="M71.08 61.6c-.246-.784-.365-1.594-.604-2.378-.044-.244-.22-.29-.456-.337-.697-.139-1.405-.309-1.992-.693-1.578-1.03-3.199-2-4.719-3.112-.769-.562-1.507-1.16-2.273-1.727.701 6.667 2.367 18.401 3.103 22.713.623-.084 13.45 4.165 13.378-2.188-.025-2.167-.829-2.638-5.106-8.899-.686-1.004-.969-2.222-1.33-3.379z"/></g><g clip-path="url(#clip-0:52:c)"><path fill="#c46449" d="M81.626 36.567c-1.423.366-1.308.988-.87 1.688.563.901 1.913 1.437 1.24 2.326-.18.237-.295.434-.465.695-.14.058-.36.262-.503.322a5.614 5.614 0 0 1-.598.228 2.607 2.607 0 0 1-.623.154.026.026 0 0 0-.02.02c-.003.011.006.023.017.026.444.075.9.008 1.333-.084.158-.034.321-.056.473-.106.311.05.616.183.605.503-.237.655-1.2 1.746-1.146 2.092.055.345.48 2.54-.197 3.62-.679 1.078-1.049 1.911-5.057 2.034-1.863.057-8.619-1.154-15.51-3.898-.352-3.535-.679-6.9-.968-9.766-.467-4.637.637-9.044 4.77-11.199 3.94-2.054 9.884-4.065 12.97-5.373.573 1.31.973 2.578.973 3.642 0 3.156-1.337 4.988-.323 6.115.816.906 4.207 2.923 5.376 5.45.412.89-.527 1.265-1.477 1.511zM68.648 28.06c.682-.892 3.822-2.888 4.182-3.032.976-.394 3.13-.622 3.526-.694.294-.053.38-.177.37-.457a1.346 1.346 0 0 0-.154-.573c-.132-.257-.328-.428-.65-.409-.699.043-3.298.792-3.687.946-.8.318-2.53 1.931-2.953 2.333a11.201 11.201 0 0 0-1.414 1.683c-.079.113-.206.598-.025.632.221.041.772-.385.805-.429zm8.338-.263c.061-.103.007-.229-.106-.21-.129.021-.589.227-.7.153-.025-.107-.033-.212-.074-.3-.159-.356-.302-.723-.502-1.053-.218-.357-.504-.45-.837-.335-.113.04-.216.114-.317.181-.449.296-.93.557-1.339.901-.587.495-1.132 1.036-1.792 1.444-.21.132-.976.78-1.2.938l.383.163c.18-.124 1.927-1.302 2.58-1.819.47-.372.912-.789 1.494-1.007.407-.153.618-.097.78.301.111.278.206.564.313.858-.645.465-1.277.92-1.909 1.373-.009.008-.022.011-.034.017l-1.092.631c-.882.051-1.81.136-2.434.25a.225.225 0 1 0 .08.443c.722-.13 1.895-.224 2.9-.267.35.082.695.212 1.04.311.84.241 1.682.357 2.49-.122.077-.046.183-.11.197-.18.024-.132-.057-.244-.196-.285-.063-.018-.13-.019-.219-.032.023-.098.033-.193.038-.287a.643.643 0 0 1-.443-.536.633.633 0 0 1 .241-.566 5.832 5.832 0 0 1-.044-.179c.4-.292.424-.318.702-.786z"/></g><g clip-path="url(#clip-0:51:c)" opacity=".53"><g opacity=".53"><path fill="#b15741" d="M75.85 37.744c-.48.992-2.981.776-5.588-.482-2.606-1.26-4.331-3.085-3.851-4.077.479-.993 2.98-.777 5.587.482 2.607 1.259 4.33 3.084 3.852 4.077z"/></g></g><g clip-path="url(#clip-0:50:c)"><path fill="#b15741" d="M40.947 28.815c-2.417 1.036-9.554 5.87-9.554 6.791.234-.03.507-.055.808-.076 1.934-1.75 6.827-4.967 8.746-5.79 2.254-.549 4.282.096 5.385.757.086.014.174.026.255.045 2.072.46-1.381-2.763-5.64-1.727z"/></g><g clip-path="url(#clip-0:49:c)"><path fill="#b15741" d="M28.564 42.284c-.41.292-.776.567-1.083.809 12.545 1.61 14.042-6.561 14.042-6.561l-.288-.013c-.794 2.005-3.614 6.563-12.671 5.765z"/></g><g clip-path="url(#clip-0:48:c)"><path fill="#b15741" d="M59.406 10.084c.021.366.033.714.04 1.053.012-.613.002-1.267-.04-1.978-.358.788-1.075 7.524-2.437 6.449 0 0-.602-1.529-.708-3.207-.134 1.994.708 4.132.708 4.132 1.362 1.075 2.08-5.661 2.437-6.449z"/></g><g clip-path="url(#clip-0:47:c)"><path fill="#b15741" d="M23.01 56.65c.357-.718.706-1.312 1.017-1.706-1.612 1.15-5.81 4.614-6.1 8.403-.014.164-.026.52-.007 1.02l.006-.095c.242-3.145 3.172-6.061 5.083-7.621z"/></g><g clip-path="url(#clip-0:46:c)"><path fill="#b15741" d="M68.506 10.102c.109-.09.212-.184.32-.276.085-.425.15-.876.196-1.344.032-.336.024-.649 0-.952v.027c-.092.941-.261 1.812-.516 2.545z"/></g><g clip-path="url(#clip-0:45:c)"><path fill="#b15741" d="M67.856 6.85c.01.176.017.346.02.513.015-.441.01-.916-.02-1.438-.233.513-.7 4.897-1.586 4.197 0 0-.353-.895-.448-1.918-.146 1.338.448 2.843.448 2.843.887.7 1.353-3.684 1.586-4.197z"/></g><g clip-path="url(#clip-0:44:c)"><path fill="#b15741" d="M60.14 16.268c.147-.096.29-.196.436-.292.297-1.009.502-2.157.622-3.384.044-.449.047-.877.024-1.288-.007.12-.012.24-.024.363-.171 1.753-.511 3.352-1.057 4.601z"/></g><g clip-path="url(#clip-0:43:c)"><path fill="#b15741" d="M44.264 25.375c1.107-2.099 1.78-4.972 2.093-8.182.06-.613.075-1.204.056-1.773-.01.279-.028.562-.056.85-.385 3.947-1.302 7.406-2.92 9.51.265-.128.543-.265.827-.405z"/></g><g clip-path="url(#clip-0:42:c)"><path fill="#b15741" d="M45.09 33.65a41.063 41.063 0 0 1-3.411-2.027c-.646.1-1.077.189-1.077.189s2.072 1.497 4.489 2.763c2.417 1.266 8.518-.576 8.518-.576s-.263-.294-.678-.737c-1.654.433-5.915 1.397-7.84.388z"/></g><g clip-path="url(#clip-0:41:c)"><path fill="#b15741" d="M20.228 67.606a2.406 2.406 0 0 1-.119-.594c-.045.635-.013 1.16.119 1.519 1.266.345 3.799-6.446 4.95-9.44 1.151-2.991 1.496-4.027 5.179-8.402-.33.075-.646.155-.96.235-2.788 3.423-3.178 4.537-4.219 7.244-1.151 2.992-3.684 9.783-4.95 9.438z"/></g><g clip-path="url(#clip-0:40:c)"><path fill="#b15741" d="M43.479 13.165c.041.703.061 1.365.068 2.006a40.942 40.942 0 0 0-.068-2.93c-.575 1.266-1.727 12.086-3.913 10.359 0 0-1.045-2.64-1.158-5.448-.126 3.124 1.158 6.372 1.158 6.372 2.186 1.727 3.338-9.093 3.913-10.359z"/></g><g clip-path="url(#clip-0:39:c)"><path fill="#b15741" d="M80.564 42.039c1.029-.128.854-.193 1.077-.174.222.018.641.176.456.399-.182.223-.462.352-.93.413-.39.05-.92-.034-1.145-.202-.223-.167-.245-.238-.3-.312-.057-.075.613-.096.841-.124z"/></g><g><path fill="#c46449" d="M97.11 68.135c-1.115 3.57-2.57 4.787-3.868 5.337.173.015.341.035.502.056.315.043.628.102.932.181 1.107-.47 2.128-1.832 2.972-3.543.89-1.805.585-3.486.204-4.413-.213.285-1.54 1.037-2.715 2.212-1.174 1.175-1.133 3.697-1.133 3.697.61 1.013 2.687-3.11 3.105-3.527z"/></g><g><path fill="#c46449" d="M89.064 69.324c-1.312 4.206-3.027 5.641-4.557 6.29.203.017.401.04.591.065.371.05.74.12 1.1.213 1.303-.554 2.507-2.159 3.501-4.175 1.05-2.127.69-4.108.24-5.2-.25.336-1.815 1.222-3.199 2.607-1.384 1.385-1.336 4.355-1.336 4.355.718 1.195 3.167-3.664 3.66-4.155z"/></g><g><path fill="#c46449" d="M6.13 68.135c1.113 3.57 2.568 4.787 3.867 5.337-.173.015-.342.035-.503.056a8.074 8.074 0 0 0-.932.181c-1.107-.47-2.128-1.832-2.972-3.543-.89-1.805-.585-3.486-.204-4.413.212.285 1.54 1.037 2.715 2.212 1.174 1.175 1.134 3.697 1.134 3.697-.609 1.013-2.688-3.11-3.106-3.527z"/></g><g><path fill="#c46449" d="M13.246 69.96c1.203 3.851 2.772 5.164 4.173 5.757-.187.016-.368.037-.542.061-.34.046-.677.11-1.006.195-1.194-.507-2.296-1.976-3.206-3.823-.96-1.946-.63-3.76-.22-4.76.23.308 1.661 1.12 2.928 2.386 1.268 1.268 1.224 3.988 1.224 3.988-.658 1.093-2.9-3.355-3.35-3.804z"/></g><g><path fill="#c46449" d="M23.703 88.554c4.513 0 13.328 4.07 13.328-1.54 0-3.142-4.45-3.374-4.45.106-1.075-2.763.802-4.43 2.87-4.43 2.466 0 4.448 1.752 4.448 4.24 0 5.884-7.107 5.23-9.089 4.66v9.237c0 2.616 1.055 2.679 1.055 2.679.021.084.021.422-.38.422h-4.724c-.4 0-.4-.338-.4-.422 0 0 1.054-.063 1.075-2.636v-7.803c0-1.582-.612-3.817-3.944-3.817-4.239 0-3.922 4.724-1.16 4.724 2.236 0 2.025-2.763.74-2.763 1.791-.38 2.74.696 2.74 2.004 0 1.56-1.603 2.868-3.374 2.868-2.53 0-3.712-2.173-3.712-3.522 0-2.172 1.56-4.007 4.977-4.007z"/></g><g><path fill="#c46449" d="M45.088 89.82c1.96 0 6.285.126 6.285 7.127 0 5.588-2.68 7.107-6.285 7.107-3.628 0-6.242-1.582-6.242-7.107 0-6.896 4.259-7.128 6.242-7.128zm0 1.095c-1.751 0-2.826 1.034-2.826 6.074 0 4.808 1.075 5.99 2.826 5.99 1.729 0 2.868-.907 2.868-5.99s-1.14-6.074-2.868-6.074z"/></g><g><path fill="#c46449" d="M57.636 100.954v-3.838l-2.531-4.07c-1.602-2.552-2.7-2.615-2.7-2.615-.041-.085-.062-.443.338-.443h4.724c.4 0 .422.316.443.443 0 0-1.012.063.612 2.657l1.602 3.015 1.688-3.015c1.433-2.742.695-2.657.695-2.657-.02-.169 0-.443.4-.443h2.743c.4 0 .274.358.21.443 0 0-1.18-.02-2.762 2.615l-2.066 3.627v4.26c.02 2.087.716 2.72 1.138 2.931 2.868 1.561 6.79 4.175 12.148 4.07 5.714-.105 6.874-3.627 6.874-3.627l.4.295c-1.117 3.248-5.313 4.323-8.33 4.323-10.84 0-13.095-4.998-16.301-4.998-.401 0-.38-.358-.38-.42 0 0 1.034-.086 1.055-2.553z"/></g><g><path fill="#c46449" d="M67.906 103.927c-.4 0-.295-.358-.273-.443 0 0 1.075-.063 1.813-2.614l2.193-7.824c.717-2.552-.316-2.636-.316-2.636 0-.148.17-.422.464-.422h4.723c.401 0 .506.358.528.422 0 0-1.033.084-.338 2.636l2.215 7.824c.738 2.551 1.813 2.614 1.813 2.614.022.085.127.443-.274.443H75.73c-.4 0-.485-.358-.506-.443 0 0 1.034-.063.295-2.657l-.61-2.193h-3.586l-.633 2.193c-.717 2.594.317 2.657.317 2.657-.022.085-.106.443-.506.443zm6.707-6.326l-1.266-4.513c-.085-.253-.147-.486-.232-.696-.084.21-.148.443-.23.696l-1.267 4.513z"/></g></g></svg>