<svg xmlns="http://www.w3.org/2000/svg" width="31" height="32" viewBox="0 0 31 32"><g><g><path fill="#a3a3a3" d="M9.7 17.008c0-.13-.004-.26 0-.39a.696.696 0 0 1 .676-.7c.12-.008.24-.003.36-.003h9.605c.642.001.888.245.886.882 0 .15.012.302-.006.45-.042.358-.355.598-.774.6H10.541c-.578 0-.84-.263-.842-.839z"/></g><g><path fill="#a3a3a3" d="M21.227 12.91c0 .12.002.24 0 .36-.007.437-.294.725-.736.733-.23.005-.46.001-.69.001h-9.246c-.599 0-.856-.256-.856-.853v-.3c.003-.497.278-.776.781-.777 1.181-.003 2.361 0 3.542 0h1.441c1.641 0 3.282-.002 4.922 0 .582 0 .844.262.842.836z"/></g><g><path fill="#a3a3a3" d="M9.7 9.32c0-.13-.004-.26 0-.39a.692.692 0 0 1 .677-.696c.22-.011.44-.003.661-.003h9.305c.642 0 .886.245.884.883 0 .15.012.302-.006.45-.043.359-.357.597-.777.597-1.66.002-3.32 0-4.982 0H10.54c-.577 0-.839-.262-.84-.84z"/></g><g><path fill="#a3a3a3" d="M30.865 13.147c-.003 5.253-.006 10.505 0 15.757.002 1.238-.639 2.037-1.68 2.585-.236.126-.503.105-.752.166H2.434c-1.118-.078-2.263-1.223-2.34-2.34V12.802c.082-.857.562-1.469 1.213-1.982.761-.6 1.502-1.229 2.264-1.828a.666.666 0 0 0 .284-.588c-.013-.549-.005-1.1-.004-1.65a2.918 2.918 0 0 1 2.921-2.92c.901-.002 1.802-.016 2.702.005.37.01.648-.105.918-.343.798-.7 1.624-1.366 2.545-1.902 1.69-.98 3.377-.983 5.063.007.901.53 1.721 1.17 2.498 1.863.292.262.597.387.998.376.91-.026 1.821-.012 2.731-.006 1.5.005 2.823 1.312 2.847 2.813.01.58.012 1.161-.003 1.741-.007.268.088.45.295.613.78.612 1.54 1.245 2.31 1.87.351.283.67.597.882 1.008.21.4.308.815.307 1.267zM17.74 3.897a3.12 3.12 0 0 0-4.553 0zM5.857 11.862c0 1.66.003 3.321-.006 4.981 0 .19.06.304.208.422 2.022 1.632 4.084 3.213 6.078 4.88.713.596 1.446 1.166 2.295 1.567.695.33 1.38.321 2.074-.016a8.165 8.165 0 0 0 1.634-1.049c2.228-1.838 4.506-3.614 6.76-5.423a.429.429 0 0 0 .173-.379c-.004-3.29-.002-6.58-.004-9.872 0-.77-.37-1.135-1.142-1.135H7.062c-.857 0-1.205.343-1.205 1.193v4.831zm23.056 1.734c0-.12 0-.24-.01-.36-.024-.248-.116-.47-.307-.63-.513-.43-1.034-.848-1.605-1.313 0 1.507.013 2.946-.008 4.386-.005.382.08.674.348.958.415.438.352.845-.12 1.222-2.17 1.735-4.349 3.463-6.512 5.21-.933.751-1.827 1.555-2.886 2.135-.67.368-1.372.646-2.149.687-1.189.065-2.194-.424-3.156-1.039-.938-.602-1.75-1.36-2.616-2.055-2.058-1.654-4.126-3.296-6.188-4.944-.458-.366-.502-.75-.137-1.21.075-.095.14-.2.23-.278.116-.103.141-.22.141-.369-.004-1.482-.002-2.962-.004-4.444 0-.07.042-.157-.05-.22-.442.36-.87.735-1.33 1.072-.403.296-.546.671-.545 1.161.008 4.982.006 9.966.006 14.948 0 .87.35 1.22 1.214 1.22h24.437c.91 0 1.247-.338 1.247-1.248z"/></g><g><path fill="#a3a3a3" d="M21.222 17.247c-.042.358-.355.6-.774.6H10.54c-.578 0-.84-.263-.841-.839 0-.13-.003-.26 0-.39a.695.695 0 0 1 .676-.7c.119-.007.24-.003.36-.003h9.605c.643.001.889.246.887.882-.001.15.012.302-.006.45z"/></g><g><path fill="#a3a3a3" d="M21.227 12.91c0 .12.002.24 0 .36-.007.437-.294.725-.736.733-.23.005-.46.001-.69.001h-9.246c-.599 0-.856-.256-.856-.853v-.3c.003-.497.278-.776.781-.777 1.181-.003 2.361 0 3.542 0h1.441c1.641 0 3.282-.002 4.922 0 .582 0 .844.262.842.836z"/></g><g><path fill="#a3a3a3" d="M9.7 9.32c0-.13-.004-.26 0-.39a.692.692 0 0 1 .677-.696c.22-.011.44-.003.661-.003h9.305c.642 0 .886.245.884.883 0 .15.012.302-.006.45-.043.359-.357.597-.777.597-1.66.002-3.32 0-4.982 0H10.54c-.577 0-.839-.262-.84-.84z"/></g><g><path fill="#a3a3a3" d="M21.222 9.564c-.044.359-.357.597-.777.597-1.661.002-3.322.001-4.983.001h-4.923c-.577 0-.838-.264-.84-.841 0-.13-.002-.26.002-.39a.693.693 0 0 1 .676-.698c.22-.01.44-.002.66-.002h9.306c.643 0 .887.245.885.883-.001.15.012.302-.006.45z"/></g><g><path fill="#a3a3a3" d="M21.227 13.27c-.006.438-.293.726-.735.734-.23.004-.46 0-.69 0h-9.246c-.6 0-.856-.255-.856-.853v-.3c.003-.498.278-.776.78-.777 1.182-.002 2.362-.001 3.543-.001H20.386c.582 0 .844.263.842.837-.001.12.002.24-.001.36z"/></g><g><path fill="#a3a3a3" d="M21.222 17.247c-.042.358-.355.6-.774.6H10.54c-.578 0-.84-.263-.841-.839 0-.13-.003-.26 0-.39a.695.695 0 0 1 .676-.7c.119-.007.24-.003.36-.003h9.605c.643.001.889.246.887.882-.001.15.012.302-.006.45z"/></g></g></svg>