<svg xmlns="http://www.w3.org/2000/svg" width="31" height="33" viewBox="0 0 31 33"><g><g><path fill="#fff" d="M24.628 32.798c-4.835-.306-9.178-1.983-13.01-4.909C5.193 22.986 1.563 16.453.558 8.451.416 7.311.442 6.157.508 5.008c.03-.536.255-.989.55-1.415C1.954 2.305 3.117 1.294 4.46.515c1.433-.83 3.966.03 4.66 1.611.918 2.088 1.319 4.32 1.588 6.573.066.554-.194 1.01-.545 1.393-.552.601-1.094 1.226-1.727 1.73-.821.651-.854 1.326-.433 2.218 1.7 3.606 4.237 6.516 7.356 8.946.666.52 1.379.977 2.076 1.455.583.4 1.102.317 1.636-.15.68-.596 1.4-1.15 2.128-1.688A1.994 1.994 0 0 1 23 22.276c1.857.523 3.704 1.082 5.434 1.956 2.347 1.187 2.84 3.89 1.076 5.805-.802.87-1.676 1.651-2.712 2.243-.678.388-1.383.596-2.17.518z"/></g></g></svg>