<svg xmlns="http://www.w3.org/2000/svg" width="29" height="30" viewBox="0 0 29 30"><g><g><path fill="#a3a3a3" d="M28.16 12.957c.426.008.694.267.694.693.01.909.01 1.827 0 2.744 0 .417-.278.657-.704.667-.343 0-.686-.01-1.038 0-.48.009-.814.222-1 .685a108.5 108.5 0 0 1-1.344 3.354c-.185.453-.1.833.232 1.167.25.26.51.491.76.75.361.371.352.713-.019 1.084-.602.611-1.204 1.213-1.807 1.816-.388.38-.75.37-1.13-.028a24.615 24.615 0 0 0-.685-.686c-.316-.306-.686-.379-1.094-.213-1.26.538-2.51 1.084-3.77 1.603-.455.195-.667.51-.667.991-.009.371 0 .751-.009 1.122 0 .435-.26.704-.696.713-.898.01-1.788 0-2.686 0-.454-.009-.714-.269-.723-.723-.01-.389-.01-.769 0-1.158 0-.436-.204-.74-.593-.908a566.93 566.93 0 0 0-3.5-1.399c-.373-.139-.715-.065-1.01.223-.28.268-.558.555-.835.833-.408.4-.74.39-1.14 0-.593-.593-1.186-1.195-1.788-1.788-.39-.389-.38-.732.01-1.13.26-.25.51-.5.76-.75.295-.306.36-.658.193-1.066a487.826 487.826 0 0 1-1.62-3.826c-.187-.436-.51-.667-.992-.649-.389.01-.779.02-1.159-.009-.462-.028-.694-.287-.694-.75-.01-.436-.01-.87-.01-1.307 0-.426 0-.852.01-1.278 0-.519.25-.778.76-.778.37-.01.75 0 1.121 0 .444 0 .76-.195.926-.612.445-1.13.9-2.26 1.343-3.39.158-.399.075-.75-.222-1.057-.278-.287-.566-.556-.834-.843-.352-.37-.352-.713 0-1.066.612-.62 1.232-1.24 1.853-1.852.343-.343.695-.343 1.037-.01.26.25.501.51.76.751.334.333.677.39 1.113.204 1.278-.547 2.547-1.094 3.826-1.64.463-.195.704-.519.685-1.038-.018-.333-.01-.667 0-1 0-.473.26-.742.732-.742a130.05 130.05 0 0 1 2.65 0c.472 0 .723.26.732.741 0 .344-.009.695 0 1.038 0 .473.212.797.667.982 1.121.435 2.242.89 3.353 1.334.408.158.76.075 1.066-.213.27-.259.528-.537.796-.796.343-.334.704-.334 1.047 0 .621.62 1.251 1.241 1.872 1.871.333.342.325.695-.009 1.038-.232.24-.473.481-.713.713-.297.315-.37.667-.204 1.065a629.344 629.344 0 0 0 1.676 3.91c.167.408.482.612.927.612.37 0 .732-.01 1.093 0zm-13.675 9.959a7.875 7.875 0 1 0 0-15.75A7.869 7.869 0 0 0 6.61 15.04a7.875 7.875 0 0 0 7.875 7.875z"/></g></g></svg>