<?xml version="1.0" encoding="utf-8"?>
<!-- Generator: Adobe Illustrator 24.0.0, SVG Export Plug-In . SVG Version: 6.00 Build 0)  -->
<svg version="1.1" id="Layer_1" xmlns="http://www.w3.org/2000/svg" xmlns:xlink="http://www.w3.org/1999/xlink" x="0px" y="0px"
	 viewBox="0 0 123.42 128.48" style="enable-background:new 0 0 123.42 128.48;" xml:space="preserve">
<style type="text/css">
	.st0{fill:#FDFDFD;}
	.st1{fill:#C46449;}
</style>
<g>
	<polygon points="52.04,110.34 52.04,110.34 52.04,110.34 52.01,110.37 52.03,110.35 52.03,110.34 	"/>
	<polygon points="54.69,35.33 54.68,35.33 54.69,35.33 	"/>
	<path d="M57.05,34.5l-0.02,0.01c0,0,0,0,0,0C57.04,34.5,57.04,34.5,57.05,34.5z"/>
	<polygon points="72.06,33.99 72.06,33.99 72.06,33.99 	"/>
	<polygon points="81.25,37.84 81.25,37.83 81.25,37.83 	"/>
	<polygon points="83.23,39.22 83.22,39.22 83.26,39.18 	"/>
	<polygon class="st0" points="45.18,41.52 45.18,41.53 45.17,41.53 45.17,41.52 45.17,41.52 45.17,41.52 	"/>
	<path class="st1" d="M31.06,39.87l-7.99-1.15c-0.29-0.04-0.56,0.15-0.62,0.44l-1.54,7.93c-0.12,0.6-0.98,0.59-1.08-0.01l-1.38-7.96
		c-0.05-0.29-0.32-0.49-0.61-0.45l-8.01,0.99c-0.61,0.07-0.86-0.75-0.32-1.03l7.14-3.77c0.26-0.14,0.37-0.45,0.24-0.72l-3.42-7.32
		c-0.26-0.55,0.44-1.05,0.88-0.63l5.79,5.63c0.21,0.2,0.54,0.21,0.76,0.01l5.9-5.51c0.45-0.42,1.14,0.1,0.87,0.64l-3.56,7.25
		c-0.13,0.26-0.03,0.58,0.23,0.72l7.06,3.91C31.94,39.14,31.67,39.96,31.06,39.87z"/>
	<path class="st1" d="M31.06,106.74l-7.99-1.15c-0.29-0.04-0.56,0.15-0.62,0.44l-1.54,7.93c-0.12,0.6-0.98,0.59-1.08-0.01
		l-1.38-7.96c-0.05-0.29-0.32-0.49-0.61-0.45l-8.01,0.99c-0.61,0.07-0.86-0.75-0.32-1.03l7.14-3.77c0.26-0.14,0.37-0.45,0.24-0.72
		l-3.42-7.32c-0.26-0.55,0.44-1.05,0.88-0.63l5.79,5.63c0.21,0.2,0.54,0.21,0.76,0.01l5.9-5.51c0.45-0.42,1.14,0.1,0.87,0.64
		l-3.56,7.25c-0.13,0.26-0.03,0.58,0.23,0.72l7.06,3.91C31.94,106.01,31.67,106.82,31.06,106.74z"/>
	<path class="st1" d="M109.03,108.97l-4.88-0.7c-0.18-0.03-0.34,0.09-0.38,0.27l-0.94,4.84c-0.07,0.37-0.6,0.36-0.66-0.01
		l-0.84-4.86c-0.03-0.18-0.19-0.3-0.37-0.28l-4.89,0.6c-0.37,0.05-0.53-0.46-0.2-0.63l4.36-2.3c0.16-0.08,0.22-0.28,0.15-0.44
		L98.3,101c-0.16-0.34,0.27-0.64,0.54-0.38l3.54,3.44c0.13,0.12,0.33,0.13,0.46,0l3.6-3.36c0.27-0.25,0.7,0.06,0.53,0.39l-2.18,4.42
		c-0.08,0.16-0.02,0.36,0.14,0.44l4.31,2.39C109.57,108.53,109.4,109.03,109.03,108.97z"/>
	<path class="st1" d="M109.03,40.84l-4.88-0.7c-0.18-0.03-0.34,0.09-0.38,0.27l-0.94,4.84c-0.07,0.37-0.6,0.36-0.66-0.01l-0.84-4.86
		c-0.03-0.18-0.19-0.3-0.37-0.28l-4.89,0.6c-0.37,0.05-0.53-0.46-0.2-0.63l4.36-2.3c0.16-0.08,0.22-0.28,0.15-0.44l-2.09-4.47
		c-0.16-0.34,0.27-0.64,0.54-0.38l3.54,3.44c0.13,0.12,0.33,0.13,0.46,0l3.6-3.36c0.27-0.25,0.7,0.06,0.53,0.39l-2.18,4.42
		c-0.08,0.16-0.02,0.36,0.14,0.44l4.31,2.39C109.57,40.4,109.4,40.9,109.03,40.84z"/>
	<path class="st1" d="M58.66,12.72l-3.69,2.64c-0.13,0.1-0.17,0.28-0.08,0.42l2.46,3.81c0.19,0.29-0.17,0.62-0.44,0.42l-3.65-2.69
		c-0.13-0.1-0.32-0.07-0.42,0.05l-2.86,3.51c-0.22,0.27-0.64,0.03-0.53-0.29l1.43-4.3c0.05-0.16-0.03-0.33-0.18-0.39l-4.23-1.64
		c-0.32-0.12-0.23-0.6,0.11-0.6l4.53,0.03c0.16,0,0.3-0.13,0.31-0.29l0.25-4.53c0.02-0.34,0.5-0.4,0.6-0.08l1.37,4.32
		c0.05,0.16,0.21,0.25,0.37,0.21l4.38-1.16C58.73,12.08,58.93,12.52,58.66,12.72z"/>
</g>
</svg>
