<svg xmlns="http://www.w3.org/2000/svg" width="33" height="33" viewBox="0 0 33 33"><g><g><path fill="#fff" d="M27.233.66l.44 3.105c.132.938.254 1.878.4 2.814.046.297.011.37-.323.318-1.894-.3-3.792-.567-5.69-.846-.054-.008-.104-.027-.203-.054l1.952-1.56c-.024-.114-.124-.131-.193-.173-8.15-4.885-18.843-.393-21.07 8.852a14.25 14.25 0 0 0 11.3 17.398c7.758 1.427 15.3-3.907 16.556-11.704.22-1.358.252-2.717.07-4.081-.037-.28-.075-.563.018-.84.16-.482.648-.804 1.153-.767.543.04.96.447 1.046 1.028.123.816.18 1.638.168 2.463-.113 8.039-5.699 14.663-13.603 16.133C10.94 34.294 2.63 29.02.445 20.812-2.022 11.542 3.727 2.236 13.142.334c4.292-.867 8.317-.071 12.032 2.242.294.182.415.137.605-.111.455-.596.938-1.17 1.454-1.805z"/></g><g><path fill="#fff" d="M15.483 12.632c.043-1.42.085-2.843.13-4.264.02-.62.441-1.036 1.025-1.017.561.018.963.452.948 1.057-.064 2.38-.13 4.761-.21 7.141-.009.265.066.388.31.505 2.954 1.435 5.902 2.885 8.853 4.331.472.231.703.602.657 1.04-.045.43-.353.77-.78.873-.27.064-.512-.015-.749-.13-3.355-1.646-6.709-3.29-10.068-4.928-.192-.094-.252-.2-.244-.412.053-1.398.092-2.797.135-4.196z"/></g></g></svg>